<?xml version="1.0" encoding="UTF-8" standalone="no"?>
<!-- Created with Inkscape (http://www.inkscape.org/) -->

<svg
   xmlns:dc="http://purl.org/dc/elements/1.1/"
   xmlns:cc="http://creativecommons.org/ns#"
   xmlns:rdf="http://www.w3.org/1999/02/22-rdf-syntax-ns#"
   xmlns:svg="http://www.w3.org/2000/svg"
   xmlns="http://www.w3.org/2000/svg"
   xmlns:sodipodi="http://sodipodi.sourceforge.net/DTD/sodipodi-0.dtd"
   xmlns:inkscape="http://www.inkscape.org/namespaces/inkscape"
   id="svg2"
   version="1.1"
   inkscape:version="0.47pre4 r22446"
   width="990"
   height="765"
   xml:space="preserve"
   sodipodi:docname="E in T ISING 0.3.eps"><metadata
     id="metadata8"><rdf:RDF><cc:Work
         rdf:about=""><dc:format>image/svg+xml</dc:format><dc:type
           rdf:resource="http://purl.org/dc/dcmitype/StillImage" /><dc:title></dc:title></cc:Work></rdf:RDF></metadata><defs
     id="defs6"><inkscape:perspective
       sodipodi:type="inkscape:persp3d"
       inkscape:vp_x="0 : 0.5 : 1"
       inkscape:vp_y="0 : 1000 : 0"
       inkscape:vp_z="1 : 0.5 : 1"
       inkscape:persp3d-origin="0.5 : 0.33333333 : 1"
       id="perspective10" /><inkscape:perspective
       id="perspective3271"
       inkscape:persp3d-origin="0.5 : 0.33333333 : 1"
       inkscape:vp_z="1 : 0.5 : 1"
       inkscape:vp_y="0 : 1000 : 0"
       inkscape:vp_x="0 : 0.5 : 1"
       sodipodi:type="inkscape:persp3d" /></defs><sodipodi:namedview
     pagecolor="#ffffff"
     bordercolor="#666666"
     borderopacity="1"
     objecttolerance="10"
     gridtolerance="10"
     guidetolerance="10"
     inkscape:pageopacity="0"
     inkscape:pageshadow="2"
     inkscape:window-width="1920"
     inkscape:window-height="1006"
     id="namedview4"
     showgrid="false"
     inkscape:zoom="1.2339869"
     inkscape:cx="682.74517"
     inkscape:cy="375.91702"
     inkscape:window-x="0"
     inkscape:window-y="25"
     inkscape:window-maximized="1"
     inkscape:current-layer="g12" /><g
     id="g12"
     inkscape:groupmode="layer"
     inkscape:label="ink_ext_XXXXXX"
     transform="matrix(0,1.25,1.25,0,0,0)"><path
       id="path16"
       style="fill:none;stroke:#000000;stroke-width:1;stroke-linecap:butt;stroke-linejoin:miter;stroke-miterlimit:10;stroke-opacity:1;stroke-dasharray:none"
       d="m 470.8,208.6 0,6.3 m 0,516.1 0,-6.3" /><g
       id="g18"><text
         id="text20"
         transform="matrix(0,1,1,0,479.47,171.342)"><tspan
           id="tspan22"
           sodipodi:role="line"
           y="0"
           x="0 8.658"
           style="font-size:26px;font-variant:normal;font-weight:normal;writing-mode:lr-tb;fill:#000000;fill-opacity:1;fill-rule:nonzero;stroke:none;font-family:Times New Roman;-inkscape-font-specification:Times-Roman">-2</tspan></text>
</g><path
       id="path24"
       style="fill:none;stroke:#000000;stroke-width:1;stroke-linecap:butt;stroke-linejoin:miter;stroke-miterlimit:10;stroke-opacity:1;stroke-dasharray:none"
       d="m 413.7,208.6 0,6.3 m 0,516.1 0,-6.3" /><g
       id="g26"><text
         id="text28"
         transform="matrix(0,1,1,0,422.37,151.842)"><tspan
           id="tspan30"
           sodipodi:role="line"
           y="0"
           x="0 8.658 21.658001 28.158001"
           style="font-size:26px;font-variant:normal;font-weight:normal;writing-mode:lr-tb;fill:#000000;fill-opacity:1;fill-rule:nonzero;stroke:none;font-family:Times New Roman;-inkscape-font-specification:Times-Roman">-1.8</tspan></text>
</g><path
       id="path32"
       style="fill:none;stroke:#000000;stroke-width:1;stroke-linecap:butt;stroke-linejoin:miter;stroke-miterlimit:10;stroke-opacity:1;stroke-dasharray:none"
       d="m 356.5,208.6 0,6.3 m 0,516.1 0,-6.3" /><g
       id="g34"><text
         id="text36"
         transform="matrix(0,1,1,0,365.17,151.842)"><tspan
           id="tspan38"
           sodipodi:role="line"
           y="0"
           x="0 8.658 21.658001 28.158001"
           style="font-size:26px;font-variant:normal;font-weight:normal;writing-mode:lr-tb;fill:#000000;fill-opacity:1;fill-rule:nonzero;stroke:none;font-family:Times New Roman;-inkscape-font-specification:Times-Roman">-1.6</tspan></text>
</g><path
       id="path40"
       style="fill:none;stroke:#000000;stroke-width:1;stroke-linecap:butt;stroke-linejoin:miter;stroke-miterlimit:10;stroke-opacity:1;stroke-dasharray:none"
       d="m 299.4,208.6 0,6.3 m 0,516.1 0,-6.3" /><g
       id="g42"><text
         id="text44"
         transform="matrix(0,1,1,0,308.07,151.842)"><tspan
           id="tspan46"
           sodipodi:role="line"
           y="0"
           x="0 8.658 21.658001 28.158001"
           style="font-size:26px;font-variant:normal;font-weight:normal;writing-mode:lr-tb;fill:#000000;fill-opacity:1;fill-rule:nonzero;stroke:none;font-family:Times New Roman;-inkscape-font-specification:Times-Roman">-1.4</tspan></text>
</g><path
       id="path48"
       style="fill:none;stroke:#000000;stroke-width:1;stroke-linecap:butt;stroke-linejoin:miter;stroke-miterlimit:10;stroke-opacity:1;stroke-dasharray:none"
       d="m 242.3,208.6 0,6.3 m 0,516.1 0,-6.3" /><g
       id="g50"><text
         id="text52"
         transform="matrix(0,1,1,0,250.97,151.842)"><tspan
           id="tspan54"
           sodipodi:role="line"
           y="0"
           x="0 8.658 21.658001 28.158001"
           style="font-size:26px;font-variant:normal;font-weight:normal;writing-mode:lr-tb;fill:#000000;fill-opacity:1;fill-rule:nonzero;stroke:none;font-family:Times New Roman;-inkscape-font-specification:Times-Roman">-1.2</tspan></text>
</g><path
       id="path56"
       style="fill:none;stroke:#000000;stroke-width:1;stroke-linecap:butt;stroke-linejoin:miter;stroke-miterlimit:10;stroke-opacity:1;stroke-dasharray:none"
       d="m 185.1,208.6 0,6.3 m 0,516.1 0,-6.3" /><g
       id="g58"><text
         id="text60"
         transform="matrix(0,1,1,0,193.77,171.342)"><tspan
           id="tspan62"
           sodipodi:role="line"
           y="0"
           x="0 8.658"
           style="font-size:26px;font-variant:normal;font-weight:normal;writing-mode:lr-tb;fill:#000000;fill-opacity:1;fill-rule:nonzero;stroke:none;font-family:Times New Roman;-inkscape-font-specification:Times-Roman">-1</tspan></text>
</g><path
       id="path64"
       style="fill:none;stroke:#000000;stroke-width:1;stroke-linecap:butt;stroke-linejoin:miter;stroke-miterlimit:10;stroke-opacity:1;stroke-dasharray:none"
       d="m 128,208.6 0,6.3 m 0,516.1 0,-6.3" /><g
       id="g66"><text
         id="text68"
         transform="matrix(0,1,1,0,136.67,151.842)"><tspan
           id="tspan70"
           sodipodi:role="line"
           y="0"
           x="0 8.658 21.658001 28.158001"
           style="font-size:26px;font-variant:normal;font-weight:normal;writing-mode:lr-tb;fill:#000000;fill-opacity:1;fill-rule:nonzero;stroke:none;font-family:Times New Roman;-inkscape-font-specification:Times-Roman">-0.8</tspan></text>
</g><path
       id="path72"
       style="fill:none;stroke:#000000;stroke-width:1;stroke-linecap:butt;stroke-linejoin:miter;stroke-miterlimit:10;stroke-opacity:1;stroke-dasharray:none"
       d="m 470.8,208.6 -6.3,0 m -336.5,0 6.3,0" /><g
       id="g74"><text
         id="text76"
         transform="matrix(0,1,1,0,505.47,195.6)"><tspan
           id="tspan78"
           sodipodi:role="line"
           y="0"
           x="0 13 19.5"
           style="font-size:26px;font-variant:normal;font-weight:normal;writing-mode:lr-tb;fill:#000000;fill-opacity:1;fill-rule:nonzero;stroke:none;font-family:Times New Roman;-inkscape-font-specification:Times-Roman">1.8</tspan></text>
</g><path
       id="path80"
       style="fill:none;stroke:#000000;stroke-width:1;stroke-linecap:butt;stroke-linejoin:miter;stroke-miterlimit:10;stroke-opacity:1;stroke-dasharray:none"
       d="m 470.8,295.7 -6.3,0 m -336.5,0 6.3,0" /><g
       id="g82"><text
         id="text84"
         transform="matrix(0,1,1,0,505.47,292.45)"><tspan
           id="tspan86"
           y="0"
           x="0"
           style="font-size:26px;font-variant:normal;font-weight:normal;writing-mode:lr-tb;fill:#000000;fill-opacity:1;fill-rule:nonzero;stroke:none;font-family:Times New Roman;-inkscape-font-specification:Times-Roman">2</tspan></text>
</g><path
       id="path88"
       style="fill:none;stroke:#000000;stroke-width:1;stroke-linecap:butt;stroke-linejoin:miter;stroke-miterlimit:10;stroke-opacity:1;stroke-dasharray:none"
       d="m 470.8,382.7 -6.3,0 m -336.5,0 6.3,0" /><g
       id="g90"><text
         id="text92"
         transform="matrix(0,1,1,0,505.47,369.7)"><tspan
           id="tspan94"
           sodipodi:role="line"
           y="0"
           x="0 13 19.5"
           style="font-size:26px;font-variant:normal;font-weight:normal;writing-mode:lr-tb;fill:#000000;fill-opacity:1;fill-rule:nonzero;stroke:none;font-family:Times New Roman;-inkscape-font-specification:Times-Roman">2.2</tspan></text>
</g><path
       id="path96"
       style="fill:none;stroke:#000000;stroke-width:1;stroke-linecap:butt;stroke-linejoin:miter;stroke-miterlimit:10;stroke-opacity:1;stroke-dasharray:none"
       d="m 470.8,469.8 -6.3,0 m -336.5,0 6.3,0" /><g
       id="g98"><text
         id="text100"
         transform="matrix(0,1,1,0,505.47,456.8)"><tspan
           id="tspan102"
           sodipodi:role="line"
           y="0"
           x="0 13 19.5"
           style="font-size:26px;font-variant:normal;font-weight:normal;writing-mode:lr-tb;fill:#000000;fill-opacity:1;fill-rule:nonzero;stroke:none;font-family:Times New Roman;-inkscape-font-specification:Times-Roman">2.4</tspan></text>
</g><path
       id="path104"
       style="fill:none;stroke:#000000;stroke-width:1;stroke-linecap:butt;stroke-linejoin:miter;stroke-miterlimit:10;stroke-opacity:1;stroke-dasharray:none"
       d="m 470.8,556.9 -6.3,0 m -336.5,0 6.3,0" /><g
       id="g106"><text
         id="text108"
         transform="matrix(0,1,1,0,505.47,543.9)"><tspan
           id="tspan110"
           sodipodi:role="line"
           y="0"
           x="0 13 19.5"
           style="font-size:26px;font-variant:normal;font-weight:normal;writing-mode:lr-tb;fill:#000000;fill-opacity:1;fill-rule:nonzero;stroke:none;font-family:Times New Roman;-inkscape-font-specification:Times-Roman">2.6</tspan></text>
</g><path
       id="path112"
       style="fill:none;stroke:#000000;stroke-width:1;stroke-linecap:butt;stroke-linejoin:miter;stroke-miterlimit:10;stroke-opacity:1;stroke-dasharray:none"
       d="m 470.8,643.9 -6.3,0 m -336.5,0 6.3,0" /><g
       id="g114"><text
         id="text116"
         transform="matrix(0,1,1,0,505.47,630.9)"><tspan
           id="tspan118"
           sodipodi:role="line"
           y="0"
           x="0 13 19.5"
           style="font-size:26px;font-variant:normal;font-weight:normal;writing-mode:lr-tb;fill:#000000;fill-opacity:1;fill-rule:nonzero;stroke:none;font-family:Times New Roman;-inkscape-font-specification:Times-Roman">2.8</tspan></text>
</g><path
       id="path120"
       style="fill:none;stroke:#000000;stroke-width:1;stroke-linecap:butt;stroke-linejoin:miter;stroke-miterlimit:10;stroke-opacity:1;stroke-dasharray:none"
       d="m 470.8,731 -6.3,0 m -336.5,0 6.3,0" /><g
       id="g122"><text
         id="text124"
         transform="matrix(0,1,1,0,505.47,727.75)"><tspan
           id="tspan126"
           y="0"
           x="0"
           style="font-size:26px;font-variant:normal;font-weight:normal;writing-mode:lr-tb;fill:#000000;fill-opacity:1;fill-rule:nonzero;stroke:none;font-family:Times New Roman;-inkscape-font-specification:Times-Roman">3</tspan></text>
</g><path
       id="path128"
       style="fill:none;stroke:#000000;stroke-width:1;stroke-linecap:butt;stroke-linejoin:miter;stroke-miterlimit:10;stroke-opacity:1;stroke-dasharray:none"
       d="m 128,208.6 342.8,0 0,522.4 -342.8,0 0,-522.4 z" /><path
       id="path142"
       style="fill:#000000;fill-opacity:1;fill-rule:nonzero;stroke:none"
       d="m 465.1,211.75 c -1.739,0 -3.15,-1.411 -3.15,-3.15 0,-1.739 1.411,-3.15 3.15,-3.15 1.739,0 3.15,1.411 3.15,3.15 0,1.739 -1.411,3.15 -3.15,3.15" /><path
       id="path144"
       style="fill:#000000;fill-opacity:1;fill-rule:nonzero;stroke:none"
       d="m 463.5,218.25 c -1.739,0 -3.15,-1.411 -3.15,-3.15 0,-1.739 1.411,-3.15 3.15,-3.15 1.739,0 3.15,1.411 3.15,3.15 0,1.739 -1.411,3.15 -3.15,3.15" /><path
       id="path146"
       style="fill:#000000;fill-opacity:1;fill-rule:nonzero;stroke:none"
       d="m 461.7,224.85 c -1.739,0 -3.15,-1.411 -3.15,-3.15 0,-1.739 1.411,-3.15 3.15,-3.15 1.739,0 3.15,1.411 3.15,3.15 0,1.739 -1.411,3.15 -3.15,3.15" /><path
       id="path148"
       style="fill:#000000;fill-opacity:1;fill-rule:nonzero;stroke:none"
       d="m 459.9,231.35 c -1.739,0 -3.15,-1.411 -3.15,-3.15 0,-1.739 1.411,-3.15 3.15,-3.15 1.739,0 3.15,1.411 3.15,3.15 0,1.739 -1.411,3.15 -3.15,3.15" /><path
       id="path150"
       style="fill:#000000;fill-opacity:1;fill-rule:nonzero;stroke:none"
       d="m 458,237.85 c -1.739,0 -3.15,-1.411 -3.15,-3.15 0,-1.739 1.411,-3.15 3.15,-3.15 1.739,0 3.15,1.411 3.15,3.15 0,1.739 -1.411,3.15 -3.15,3.15" /><path
       id="path152"
       style="fill:#000000;fill-opacity:1;fill-rule:nonzero;stroke:none"
       d="m 456,244.35 c -1.739,0 -3.15,-1.411 -3.15,-3.15 0,-1.739 1.411,-3.15 3.15,-3.15 1.739,0 3.15,1.411 3.15,3.15 0,1.739 -1.411,3.15 -3.15,3.15" /><path
       id="path154"
       style="fill:#000000;fill-opacity:1;fill-rule:nonzero;stroke:none"
       d="m 454,250.95 c -1.739,0 -3.15,-1.411 -3.15,-3.15 0,-1.739 1.411,-3.15 3.15,-3.15 1.739,0 3.15,1.411 3.15,3.15 0,1.739 -1.411,3.15 -3.15,3.15" /><path
       id="path156"
       style="fill:#000000;fill-opacity:1;fill-rule:nonzero;stroke:none"
       d="m 451.9,257.45 c -1.739,0 -3.15,-1.411 -3.15,-3.15 0,-1.739 1.411,-3.15 3.15,-3.15 1.739,0 3.15,1.411 3.15,3.15 0,1.739 -1.411,3.15 -3.15,3.15" /><path
       id="path158"
       style="fill:#000000;fill-opacity:1;fill-rule:nonzero;stroke:none"
       d="m 449.7,263.95 c -1.739,0 -3.15,-1.411 -3.15,-3.15 0,-1.739 1.411,-3.15 3.15,-3.15 1.739,0 3.15,1.411 3.15,3.15 0,1.739 -1.411,3.15 -3.15,3.15" /><path
       id="path160"
       style="fill:#000000;fill-opacity:1;fill-rule:nonzero;stroke:none"
       d="m 447.5,270.55 c -1.739,0 -3.15,-1.411 -3.15,-3.15 0,-1.739 1.411,-3.15 3.15,-3.15 1.739,0 3.15,1.411 3.15,3.15 0,1.739 -1.411,3.15 -3.15,3.15" /><path
       id="path162"
       style="fill:#000000;fill-opacity:1;fill-rule:nonzero;stroke:none"
       d="m 445.1,277.05 c -1.739,0 -3.15,-1.411 -3.15,-3.15 0,-1.739 1.411,-3.15 3.15,-3.15 1.739,0 3.15,1.411 3.15,3.15 0,1.739 -1.411,3.15 -3.15,3.15" /><path
       id="path164"
       style="fill:#000000;fill-opacity:1;fill-rule:nonzero;stroke:none"
       d="m 442.7,283.55 c -1.739,0 -3.15,-1.411 -3.15,-3.15 0,-1.739 1.411,-3.15 3.15,-3.15 1.739,0 3.15,1.411 3.15,3.15 0,1.739 -1.411,3.15 -3.15,3.15" /><path
       id="path166"
       style="fill:#000000;fill-opacity:1;fill-rule:nonzero;stroke:none"
       d="m 440.2,290.15 c -1.739,0 -3.15,-1.411 -3.15,-3.15 0,-1.739 1.411,-3.15 3.15,-3.15 1.739,0 3.15,1.411 3.15,3.15 0,1.739 -1.411,3.15 -3.15,3.15" /><path
       id="path168"
       style="fill:#000000;fill-opacity:1;fill-rule:nonzero;stroke:none"
       d="m 437.6,296.65 c -1.739,0 -3.15,-1.411 -3.15,-3.15 0,-1.739 1.411,-3.15 3.15,-3.15 1.739,0 3.15,1.411 3.15,3.15 0,1.739 -1.411,3.15 -3.15,3.15" /><path
       id="path170"
       style="fill:#000000;fill-opacity:1;fill-rule:nonzero;stroke:none"
       d="m 434.9,303.15 c -1.739,0 -3.15,-1.411 -3.15,-3.15 0,-1.739 1.411,-3.15 3.15,-3.15 1.739,0 3.15,1.411 3.15,3.15 0,1.739 -1.411,3.15 -3.15,3.15" /><path
       id="path172"
       style="fill:#000000;fill-opacity:1;fill-rule:nonzero;stroke:none"
       d="m 432.1,309.65 c -1.739,0 -3.15,-1.411 -3.15,-3.15 0,-1.739 1.411,-3.15 3.15,-3.15 1.739,0 3.15,1.411 3.15,3.15 0,1.739 -1.411,3.15 -3.15,3.15" /><path
       id="path174"
       style="fill:#000000;fill-opacity:1;fill-rule:nonzero;stroke:none"
       d="m 429.2,316.25 c -1.739,0 -3.15,-1.411 -3.15,-3.15 0,-1.739 1.411,-3.15 3.15,-3.15 1.739,0 3.15,1.411 3.15,3.15 0,1.739 -1.411,3.15 -3.15,3.15" /><path
       id="path176"
       style="fill:#000000;fill-opacity:1;fill-rule:nonzero;stroke:none"
       d="m 426.2,322.75 c -1.739,0 -3.15,-1.411 -3.15,-3.15 0,-1.739 1.411,-3.15 3.15,-3.15 1.739,0 3.15,1.411 3.15,3.15 0,1.739 -1.411,3.15 -3.15,3.15" /><path
       id="path178"
       style="fill:#000000;fill-opacity:1;fill-rule:nonzero;stroke:none"
       d="m 423.1,329.25 c -1.739,0 -3.15,-1.411 -3.15,-3.15 0,-1.739 1.411,-3.15 3.15,-3.15 1.739,0 3.15,1.411 3.15,3.15 0,1.739 -1.411,3.15 -3.15,3.15" /><path
       id="path180"
       style="fill:#000000;fill-opacity:1;fill-rule:nonzero;stroke:none"
       d="m 419.9,335.85 c -1.739,0 -3.15,-1.411 -3.15,-3.15 0,-1.739 1.411,-3.15 3.15,-3.15 1.739,0 3.15,1.411 3.15,3.15 0,1.739 -1.411,3.15 -3.15,3.15" /><path
       id="path182"
       style="fill:#000000;fill-opacity:1;fill-rule:nonzero;stroke:none"
       d="m 416.6,342.35 c -1.739,0 -3.15,-1.411 -3.15,-3.15 0,-1.739 1.411,-3.15 3.15,-3.15 1.739,0 3.15,1.411 3.15,3.15 0,1.739 -1.411,3.15 -3.15,3.15" /><path
       id="path184"
       style="fill:#000000;fill-opacity:1;fill-rule:nonzero;stroke:none"
       d="m 413.1,348.85 c -1.739,0 -3.15,-1.411 -3.15,-3.15 0,-1.739 1.411,-3.15 3.15,-3.15 1.739,0 3.15,1.411 3.15,3.15 0,1.739 -1.411,3.15 -3.15,3.15" /><path
       id="path186"
       style="fill:#000000;fill-opacity:1;fill-rule:nonzero;stroke:none"
       d="m 409.5,355.45 c -1.739,0 -3.15,-1.411 -3.15,-3.15 0,-1.739 1.411,-3.15 3.15,-3.15 1.739,0 3.15,1.411 3.15,3.15 0,1.739 -1.411,3.15 -3.15,3.15" /><path
       id="path188"
       style="fill:#000000;fill-opacity:1;fill-rule:nonzero;stroke:none"
       d="m 405.8,361.95 c -1.739,0 -3.15,-1.411 -3.15,-3.15 0,-1.739 1.411,-3.15 3.15,-3.15 1.739,0 3.15,1.411 3.15,3.15 0,1.739 -1.411,3.15 -3.15,3.15" /><path
       id="path190"
       style="fill:#000000;fill-opacity:1;fill-rule:nonzero;stroke:none"
       d="m 401.9,368.45 c -1.739,0 -3.15,-1.411 -3.15,-3.15 0,-1.739 1.411,-3.15 3.15,-3.15 1.739,0 3.15,1.411 3.15,3.15 0,1.739 -1.411,3.15 -3.15,3.15" /><path
       id="path192"
       style="fill:#000000;fill-opacity:1;fill-rule:nonzero;stroke:none"
       d="m 398,374.95 c -1.739,0 -3.15,-1.411 -3.15,-3.15 0,-1.739 1.411,-3.15 3.15,-3.15 1.739,0 3.15,1.411 3.15,3.15 0,1.739 -1.411,3.15 -3.15,3.15" /><path
       id="path194"
       style="fill:#000000;fill-opacity:1;fill-rule:nonzero;stroke:none"
       d="m 393.8,381.55 c -1.739,0 -3.15,-1.411 -3.15,-3.15 0,-1.739 1.411,-3.15 3.15,-3.15 1.739,0 3.15,1.411 3.15,3.15 0,1.739 -1.411,3.15 -3.15,3.15" /><path
       id="path196"
       style="fill:#000000;fill-opacity:1;fill-rule:nonzero;stroke:none"
       d="m 389.5,388.05 c -1.739,0 -3.15,-1.411 -3.15,-3.15 0,-1.739 1.411,-3.15 3.15,-3.15 1.739,0 3.15,1.411 3.15,3.15 0,1.739 -1.411,3.15 -3.15,3.15" /><path
       id="path198"
       style="fill:#000000;fill-opacity:1;fill-rule:nonzero;stroke:none"
       d="m 385,394.55 c -1.739,0 -3.15,-1.411 -3.15,-3.15 0,-1.739 1.411,-3.15 3.15,-3.15 1.739,0 3.15,1.411 3.15,3.15 0,1.739 -1.411,3.15 -3.15,3.15" /><path
       id="path200"
       style="fill:#000000;fill-opacity:1;fill-rule:nonzero;stroke:none"
       d="m 380.4,401.15 c -1.739,0 -3.15,-1.411 -3.15,-3.15 0,-1.739 1.411,-3.15 3.15,-3.15 1.739,0 3.15,1.411 3.15,3.15 0,1.739 -1.411,3.15 -3.15,3.15" /><path
       id="path202"
       style="fill:#000000;fill-opacity:1;fill-rule:nonzero;stroke:none"
       d="m 375.6,407.65 c -1.739,0 -3.15,-1.411 -3.15,-3.15 0,-1.739 1.411,-3.15 3.15,-3.15 1.739,0 3.15,1.411 3.15,3.15 0,1.739 -1.411,3.15 -3.15,3.15" /><path
       id="path204"
       style="fill:#000000;fill-opacity:1;fill-rule:nonzero;stroke:none"
       d="m 370.5,414.15 c -1.739,0 -3.15,-1.411 -3.15,-3.15 0,-1.739 1.411,-3.15 3.15,-3.15 1.739,0 3.15,1.411 3.15,3.15 0,1.739 -1.411,3.15 -3.15,3.15" /><path
       id="path206"
       style="fill:#000000;fill-opacity:1;fill-rule:nonzero;stroke:none"
       d="m 365.2,420.75 c -1.739,0 -3.15,-1.411 -3.15,-3.15 0,-1.739 1.411,-3.15 3.15,-3.15 1.739,0 3.15,1.411 3.15,3.15 0,1.739 -1.411,3.15 -3.15,3.15" /><path
       id="path208"
       style="fill:#000000;fill-opacity:1;fill-rule:nonzero;stroke:none"
       d="m 359.8,427.25 c -1.739,0 -3.15,-1.411 -3.15,-3.15 0,-1.739 1.411,-3.15 3.15,-3.15 1.739,0 3.15,1.411 3.15,3.15 0,1.739 -1.411,3.15 -3.15,3.15" /><path
       id="path210"
       style="fill:#000000;fill-opacity:1;fill-rule:nonzero;stroke:none"
       d="m 354,433.75 c -1.739,0 -3.15,-1.411 -3.15,-3.15 0,-1.739 1.411,-3.15 3.15,-3.15 1.739,0 3.15,1.411 3.15,3.15 0,1.739 -1.411,3.15 -3.15,3.15" /><path
       id="path212"
       style="fill:#000000;fill-opacity:1;fill-rule:nonzero;stroke:none"
       d="m 347.9,440.35 c -1.739,0 -3.15,-1.411 -3.15,-3.15 0,-1.739 1.411,-3.15 3.15,-3.15 1.739,0 3.15,1.411 3.15,3.15 0,1.739 -1.411,3.15 -3.15,3.15" /><path
       id="path214"
       style="fill:#000000;fill-opacity:1;fill-rule:nonzero;stroke:none"
       d="m 341.5,446.85 c -1.739,0 -3.15,-1.411 -3.15,-3.15 0,-1.739 1.411,-3.15 3.15,-3.15 1.739,0 3.15,1.411 3.15,3.15 0,1.739 -1.411,3.15 -3.15,3.15" /><path
       id="path216"
       style="fill:#000000;fill-opacity:1;fill-rule:nonzero;stroke:none"
       d="m 334.7,453.35 c -1.739,0 -3.15,-1.411 -3.15,-3.15 0,-1.739 1.411,-3.15 3.15,-3.15 1.739,0 3.15,1.411 3.15,3.15 0,1.739 -1.411,3.15 -3.15,3.15" /><path
       id="path218"
       style="fill:#000000;fill-opacity:1;fill-rule:nonzero;stroke:none"
       d="m 327.6,459.85 c -1.739,0 -3.15,-1.411 -3.15,-3.15 0,-1.739 1.411,-3.15 3.15,-3.15 1.739,0 3.15,1.411 3.15,3.15 0,1.739 -1.411,3.15 -3.15,3.15" /><path
       id="path220"
       style="fill:#000000;fill-opacity:1;fill-rule:nonzero;stroke:none"
       d="m 319.9,466.45 c -1.739,0 -3.15,-1.411 -3.15,-3.15 0,-1.739 1.411,-3.15 3.15,-3.15 1.739,0 3.15,1.411 3.15,3.15 0,1.739 -1.411,3.15 -3.15,3.15" /><path
       id="path222"
       style="fill:#000000;fill-opacity:1;fill-rule:nonzero;stroke:none"
       d="m 311.3,472.95 c -1.739,0 -3.15,-1.411 -3.15,-3.15 0,-1.739 1.411,-3.15 3.15,-3.15 1.739,0 3.15,1.411 3.15,3.15 0,1.739 -1.411,3.15 -3.15,3.15" /><path
       id="path224"
       style="fill:#000000;fill-opacity:1;fill-rule:nonzero;stroke:none"
       d="m 301.9,479.45 c -1.739,0 -3.15,-1.411 -3.15,-3.15 0,-1.739 1.411,-3.15 3.15,-3.15 1.739,0 3.15,1.411 3.15,3.15 0,1.739 -1.411,3.15 -3.15,3.15" /><path
       id="path226"
       style="fill:#000000;fill-opacity:1;fill-rule:nonzero;stroke:none"
       d="m 291.6,486.05 c -1.739,0 -3.15,-1.411 -3.15,-3.15 0,-1.739 1.411,-3.15 3.15,-3.15 1.739,0 3.15,1.411 3.15,3.15 0,1.739 -1.411,3.15 -3.15,3.15" /><path
       id="path228"
       style="fill:#000000;fill-opacity:1;fill-rule:nonzero;stroke:none"
       d="m 279.3,492.55 c -1.739,0 -3.15,-1.411 -3.15,-3.15 0,-1.739 1.411,-3.15 3.15,-3.15 1.739,0 3.15,1.411 3.15,3.15 0,1.739 -1.411,3.15 -3.15,3.15" /><path
       id="path230"
       style="fill:#000000;fill-opacity:1;fill-rule:nonzero;stroke:none"
       d="m 266,499.05 c -1.739,0 -3.15,-1.411 -3.15,-3.15 0,-1.739 1.411,-3.15 3.15,-3.15 1.739,0 3.15,1.411 3.15,3.15 0,1.739 -1.411,3.15 -3.15,3.15" /><path
       id="path232"
       style="fill:#000000;fill-opacity:1;fill-rule:nonzero;stroke:none"
       d="m 253.7,505.65 c -1.739,0 -3.15,-1.411 -3.15,-3.15 0,-1.739 1.411,-3.15 3.15,-3.15 1.739,0 3.15,1.411 3.15,3.15 0,1.739 -1.411,3.15 -3.15,3.15" /><path
       id="path234"
       style="fill:#000000;fill-opacity:1;fill-rule:nonzero;stroke:none"
       d="m 243.2,512.15 c -1.739,0 -3.15,-1.411 -3.15,-3.15 0,-1.739 1.411,-3.15 3.15,-3.15 1.739,0 3.15,1.411 3.15,3.15 0,1.739 -1.411,3.15 -3.15,3.15" /><path
       id="path236"
       style="fill:#000000;fill-opacity:1;fill-rule:nonzero;stroke:none"
       d="m 234.7,518.65 c -1.739,0 -3.15,-1.411 -3.15,-3.15 0,-1.739 1.411,-3.15 3.15,-3.15 1.739,0 3.15,1.411 3.15,3.15 0,1.739 -1.411,3.15 -3.15,3.15" /><path
       id="path238"
       style="fill:#000000;fill-opacity:1;fill-rule:nonzero;stroke:none"
       d="m 228,525.15 c -1.739,0 -3.15,-1.411 -3.15,-3.15 0,-1.739 1.411,-3.15 3.15,-3.15 1.739,0 3.15,1.411 3.15,3.15 0,1.739 -1.411,3.15 -3.15,3.15" /><path
       id="path240"
       style="fill:#000000;fill-opacity:1;fill-rule:nonzero;stroke:none"
       d="m 222.2,531.75 c -1.739,0 -3.15,-1.411 -3.15,-3.15 0,-1.739 1.411,-3.15 3.15,-3.15 1.739,0 3.15,1.411 3.15,3.15 0,1.739 -1.411,3.15 -3.15,3.15" /><path
       id="path242"
       style="fill:#000000;fill-opacity:1;fill-rule:nonzero;stroke:none"
       d="m 217,538.25 c -1.739,0 -3.15,-1.411 -3.15,-3.15 0,-1.739 1.411,-3.15 3.15,-3.15 1.739,0 3.15,1.411 3.15,3.15 0,1.739 -1.411,3.15 -3.15,3.15" /><path
       id="path244"
       style="fill:#000000;fill-opacity:1;fill-rule:nonzero;stroke:none"
       d="m 212.4,544.75 c -1.739,0 -3.15,-1.411 -3.15,-3.15 0,-1.739 1.411,-3.15 3.15,-3.15 1.739,0 3.15,1.411 3.15,3.15 0,1.739 -1.411,3.15 -3.15,3.15" /><path
       id="path246"
       style="fill:#000000;fill-opacity:1;fill-rule:nonzero;stroke:none"
       d="m 208.1,551.35 c -1.739,0 -3.15,-1.411 -3.15,-3.15 0,-1.739 1.411,-3.15 3.15,-3.15 1.739,0 3.15,1.411 3.15,3.15 0,1.739 -1.411,3.15 -3.15,3.15" /><path
       id="path248"
       style="fill:#000000;fill-opacity:1;fill-rule:nonzero;stroke:none"
       d="m 204.2,557.85 c -1.739,0 -3.15,-1.411 -3.15,-3.15 0,-1.739 1.411,-3.15 3.15,-3.15 1.739,0 3.15,1.411 3.15,3.15 0,1.739 -1.411,3.15 -3.15,3.15" /><path
       id="path250"
       style="fill:#000000;fill-opacity:1;fill-rule:nonzero;stroke:none"
       d="m 200.4,564.35 c -1.739,0 -3.15,-1.411 -3.15,-3.15 0,-1.739 1.411,-3.15 3.15,-3.15 1.739,0 3.15,1.411 3.15,3.15 0,1.739 -1.411,3.15 -3.15,3.15" /><path
       id="path252"
       style="fill:#000000;fill-opacity:1;fill-rule:nonzero;stroke:none"
       d="m 197,570.95 c -1.739,0 -3.15,-1.411 -3.15,-3.15 0,-1.739 1.411,-3.15 3.15,-3.15 1.739,0 3.15,1.411 3.15,3.15 0,1.739 -1.411,3.15 -3.15,3.15" /><path
       id="path254"
       style="fill:#000000;fill-opacity:1;fill-rule:nonzero;stroke:none"
       d="m 193.8,577.45 c -1.739,0 -3.15,-1.411 -3.15,-3.15 0,-1.739 1.411,-3.15 3.15,-3.15 1.739,0 3.15,1.411 3.15,3.15 0,1.739 -1.411,3.15 -3.15,3.15" /><path
       id="path256"
       style="fill:#000000;fill-opacity:1;fill-rule:nonzero;stroke:none"
       d="m 190.7,583.95 c -1.739,0 -3.15,-1.411 -3.15,-3.15 0,-1.739 1.411,-3.15 3.15,-3.15 1.739,0 3.15,1.411 3.15,3.15 0,1.739 -1.411,3.15 -3.15,3.15" /><path
       id="path258"
       style="fill:#000000;fill-opacity:1;fill-rule:nonzero;stroke:none"
       d="m 187.7,590.45 c -1.739,0 -3.15,-1.411 -3.15,-3.15 0,-1.739 1.411,-3.15 3.15,-3.15 1.739,0 3.15,1.411 3.15,3.15 0,1.739 -1.411,3.15 -3.15,3.15" /><path
       id="path260"
       style="fill:#000000;fill-opacity:1;fill-rule:nonzero;stroke:none"
       d="m 185,597.05 c -1.739,0 -3.15,-1.411 -3.15,-3.15 0,-1.739 1.411,-3.15 3.15,-3.15 1.739,0 3.15,1.411 3.15,3.15 0,1.739 -1.411,3.15 -3.15,3.15" /><path
       id="path262"
       style="fill:#000000;fill-opacity:1;fill-rule:nonzero;stroke:none"
       d="m 182.4,603.55 c -1.739,0 -3.15,-1.411 -3.15,-3.15 0,-1.739 1.411,-3.15 3.15,-3.15 1.739,0 3.15,1.411 3.15,3.15 0,1.739 -1.411,3.15 -3.15,3.15" /><path
       id="path264"
       style="fill:#000000;fill-opacity:1;fill-rule:nonzero;stroke:none"
       d="m 179.9,610.05 c -1.739,0 -3.15,-1.411 -3.15,-3.15 0,-1.739 1.411,-3.15 3.15,-3.15 1.739,0 3.15,1.411 3.15,3.15 0,1.739 -1.411,3.15 -3.15,3.15" /><path
       id="path266"
       style="fill:#000000;fill-opacity:1;fill-rule:nonzero;stroke:none"
       d="m 177.5,616.65 c -1.739,0 -3.15,-1.411 -3.15,-3.15 0,-1.739 1.411,-3.15 3.15,-3.15 1.739,0 3.15,1.411 3.15,3.15 0,1.739 -1.411,3.15 -3.15,3.15" /><path
       id="path268"
       style="fill:#000000;fill-opacity:1;fill-rule:nonzero;stroke:none"
       d="m 175.2,623.15 c -1.739,0 -3.15,-1.411 -3.15,-3.15 0,-1.739 1.411,-3.15 3.15,-3.15 1.739,0 3.15,1.411 3.15,3.15 0,1.739 -1.411,3.15 -3.15,3.15" /><path
       id="path270"
       style="fill:#000000;fill-opacity:1;fill-rule:nonzero;stroke:none"
       d="m 173,629.65 c -1.739,0 -3.15,-1.411 -3.15,-3.15 0,-1.739 1.411,-3.15 3.15,-3.15 1.739,0 3.15,1.411 3.15,3.15 0,1.739 -1.411,3.15 -3.15,3.15" /><path
       id="path272"
       style="fill:#000000;fill-opacity:1;fill-rule:nonzero;stroke:none"
       d="m 170.8,636.25 c -1.739,0 -3.15,-1.411 -3.15,-3.15 0,-1.739 1.411,-3.15 3.15,-3.15 1.739,0 3.15,1.411 3.15,3.15 0,1.739 -1.411,3.15 -3.15,3.15" /><path
       id="path274"
       style="fill:#000000;fill-opacity:1;fill-rule:nonzero;stroke:none"
       d="m 168.8,642.75 c -1.739,0 -3.15,-1.411 -3.15,-3.15 0,-1.739 1.411,-3.15 3.15,-3.15 1.739,0 3.15,1.411 3.15,3.15 0,1.739 -1.411,3.15 -3.15,3.15" /><path
       id="path276"
       style="fill:#000000;fill-opacity:1;fill-rule:nonzero;stroke:none"
       d="m 166.8,649.25 c -1.739,0 -3.15,-1.411 -3.15,-3.15 0,-1.739 1.411,-3.15 3.15,-3.15 1.739,0 3.15,1.411 3.15,3.15 0,1.739 -1.411,3.15 -3.15,3.15" /><path
       id="path278"
       style="fill:#000000;fill-opacity:1;fill-rule:nonzero;stroke:none"
       d="m 164.8,655.75 c -1.739,0 -3.15,-1.411 -3.15,-3.15 0,-1.739 1.411,-3.15 3.15,-3.15 1.739,0 3.15,1.411 3.15,3.15 0,1.739 -1.411,3.15 -3.15,3.15" /><path
       id="path280"
       style="fill:#000000;fill-opacity:1;fill-rule:nonzero;stroke:none"
       d="m 163,662.35 c -1.739,0 -3.15,-1.411 -3.15,-3.15 0,-1.739 1.411,-3.15 3.15,-3.15 1.739,0 3.15,1.411 3.15,3.15 0,1.739 -1.411,3.15 -3.15,3.15" /><path
       id="path282"
       style="fill:#000000;fill-opacity:1;fill-rule:nonzero;stroke:none"
       d="m 161.2,668.85 c -1.739,0 -3.15,-1.411 -3.15,-3.15 0,-1.739 1.411,-3.15 3.15,-3.15 1.739,0 3.15,1.411 3.15,3.15 0,1.739 -1.411,3.15 -3.15,3.15" /><path
       id="path284"
       style="fill:#000000;fill-opacity:1;fill-rule:nonzero;stroke:none"
       d="m 159.4,675.35 c -1.739,0 -3.15,-1.411 -3.15,-3.15 0,-1.739 1.411,-3.15 3.15,-3.15 1.739,0 3.15,1.411 3.15,3.15 0,1.739 -1.411,3.15 -3.15,3.15" /><path
       id="path286"
       style="fill:#000000;fill-opacity:1;fill-rule:nonzero;stroke:none"
       d="m 157.6,681.95 c -1.739,0 -3.15,-1.411 -3.15,-3.15 0,-1.739 1.411,-3.15 3.15,-3.15 1.739,0 3.15,1.411 3.15,3.15 0,1.739 -1.411,3.15 -3.15,3.15" /><path
       id="path288"
       style="fill:#000000;fill-opacity:1;fill-rule:nonzero;stroke:none"
       d="m 156,688.45 c -1.739,0 -3.15,-1.411 -3.15,-3.15 0,-1.739 1.411,-3.15 3.15,-3.15 1.739,0 3.15,1.411 3.15,3.15 0,1.739 -1.411,3.15 -3.15,3.15" /><path
       id="path290"
       style="fill:#000000;fill-opacity:1;fill-rule:nonzero;stroke:none"
       d="m 154.3,694.95 c -1.739,0 -3.15,-1.411 -3.15,-3.15 0,-1.739 1.411,-3.15 3.15,-3.15 1.739,0 3.15,1.411 3.15,3.15 0,1.739 -1.411,3.15 -3.15,3.15" /><path
       id="path292"
       style="fill:#000000;fill-opacity:1;fill-rule:nonzero;stroke:none"
       d="m 152.8,701.55 c -1.739,0 -3.15,-1.411 -3.15,-3.15 0,-1.739 1.411,-3.15 3.15,-3.15 1.739,0 3.15,1.411 3.15,3.15 0,1.739 -1.411,3.15 -3.15,3.15" /><path
       id="path294"
       style="fill:#000000;fill-opacity:1;fill-rule:nonzero;stroke:none"
       d="m 151.2,708.05 c -1.739,0 -3.15,-1.411 -3.15,-3.15 0,-1.739 1.411,-3.15 3.15,-3.15 1.739,0 3.15,1.411 3.15,3.15 0,1.739 -1.411,3.15 -3.15,3.15" /><path
       id="path296"
       style="fill:#000000;fill-opacity:1;fill-rule:nonzero;stroke:none"
       d="m 149.7,714.55 c -1.739,0 -3.15,-1.411 -3.15,-3.15 0,-1.739 1.411,-3.15 3.15,-3.15 1.739,0 3.15,1.411 3.15,3.15 0,1.739 -1.411,3.15 -3.15,3.15" /><path
       id="path298"
       style="fill:#000000;fill-opacity:1;fill-rule:nonzero;stroke:none"
       d="m 148.2,721.05 c -1.739,0 -3.15,-1.411 -3.15,-3.15 0,-1.739 1.411,-3.15 3.15,-3.15 1.739,0 3.15,1.411 3.15,3.15 0,1.739 -1.411,3.15 -3.15,3.15" /><path
       id="path300"
       style="fill:#000000;fill-opacity:1;fill-rule:nonzero;stroke:none"
       d="m 146.7,727.65 c -1.739,0 -3.15,-1.411 -3.15,-3.15 0,-1.739 1.411,-3.15 3.15,-3.15 1.739,0 3.15,1.411 3.15,3.15 0,1.739 -1.411,3.15 -3.15,3.15" /><path
       id="path302"
       style="fill:#000000;fill-opacity:1;fill-rule:nonzero;stroke:none"
       d="m 145.3,734.15 c -1.739,0 -3.15,-1.411 -3.15,-3.15 0,-1.739 1.411,-3.15 3.15,-3.15 1.739,0 3.15,1.411 3.15,3.15 0,1.739 -1.411,3.15 -3.15,3.15" /><path
       id="path304"
       style="fill:none;stroke:#000000;stroke-width:1;stroke-linecap:butt;stroke-linejoin:miter;stroke-miterlimit:10;stroke-opacity:1;stroke-dasharray:none"
       d="m 128,208.6 342.8,0 0,522.4 -342.8,0 0,-522.4 z" /><flowRoot
       xml:space="preserve"
       id="flowRoot3255"
       style="font-size:40px;font-style:normal;font-weight:normal;fill:#000000;fill-opacity:1;stroke:none;font-family:Bitstream Vera Sans"
       transform="matrix(0,0.8,0.8,0,-20.097458,-3.8898305)"><flowRegion
         id="flowRegion3257"><rect
           id="rect3259"
           width="81.848518"
           height="51.864407"
           x="863.05615"
           y="653.97778" /></flowRegion><flowPara
         id="flowPara3261"
         style="font-style:italic;font-variant:normal;font-weight:normal;font-stretch:normal;font-family:Times New Roman;-inkscape-font-specification:'Times New Roman, Italic'">T</flowPara></flowRoot><flowRoot
       xml:space="preserve"
       id="flowRoot3255-7"
       style="font-size:40px;font-style:normal;font-weight:normal;fill:#000000;fill-opacity:1;stroke:none;font-family:Bitstream Vera Sans"
       transform="matrix(0,0.8,0.8,0,-381.50285,-559.62717)"><flowRegion
         id="flowRegion3257-6"><rect
           id="rect3259-1"
           width="81.848518"
           height="51.864407"
           x="863.05615"
           y="653.97778" /></flowRegion><flowPara
         id="flowPara3261-5"
         style="font-style:italic;font-variant:normal;font-weight:normal;font-stretch:normal;font-family:Times New Roman;-inkscape-font-specification:'Times New Roman, Italic'">E</flowPara></flowRoot></g></svg>