<?xml version="1.0" encoding="UTF-8" standalone="no"?>
<!-- Created with Inkscape (http://www.inkscape.org/) -->

<svg
   xmlns:dc="http://purl.org/dc/elements/1.1/"
   xmlns:cc="http://creativecommons.org/ns#"
   xmlns:rdf="http://www.w3.org/1999/02/22-rdf-syntax-ns#"
   xmlns:svg="http://www.w3.org/2000/svg"
   xmlns="http://www.w3.org/2000/svg"
   xmlns:sodipodi="http://sodipodi.sourceforge.net/DTD/sodipodi-0.dtd"
   xmlns:inkscape="http://www.inkscape.org/namespaces/inkscape"
   id="svg2"
   version="1.1"
   inkscape:version="0.47 r22583"
   width="990"
   height="765"
   xml:space="preserve"
   sodipodi:docname="E in T.eps"><metadata
     id="metadata8"><rdf:RDF><cc:Work
         rdf:about=""><dc:format>image/svg+xml</dc:format><dc:type
           rdf:resource="http://purl.org/dc/dcmitype/StillImage" /><dc:title></dc:title></cc:Work></rdf:RDF></metadata><defs
     id="defs6"><inkscape:perspective
       sodipodi:type="inkscape:persp3d"
       inkscape:vp_x="0 : 0.5 : 1"
       inkscape:vp_y="0 : 1000 : 0"
       inkscape:vp_z="1 : 0.5 : 1"
       inkscape:persp3d-origin="0.5 : 0.33333333 : 1"
       id="perspective10" /><inkscape:perspective
       id="perspective3066"
       inkscape:persp3d-origin="0.5 : 0.33333333 : 1"
       inkscape:vp_z="1 : 0.5 : 1"
       inkscape:vp_y="0 : 1000 : 0"
       inkscape:vp_x="0 : 0.5 : 1"
       sodipodi:type="inkscape:persp3d" /><inkscape:perspective
       id="perspective3082"
       inkscape:persp3d-origin="0.5 : 0.33333333 : 1"
       inkscape:vp_z="1 : 0.5 : 1"
       inkscape:vp_y="0 : 1000 : 0"
       inkscape:vp_x="0 : 0.5 : 1"
       sodipodi:type="inkscape:persp3d" /></defs><sodipodi:namedview
     pagecolor="#ffffff"
     bordercolor="#666666"
     borderopacity="1"
     objecttolerance="10"
     gridtolerance="10"
     guidetolerance="10"
     inkscape:pageopacity="0"
     inkscape:pageshadow="2"
     inkscape:window-width="1366"
     inkscape:window-height="695"
     id="namedview4"
     showgrid="false"
     inkscape:zoom="0.61699346"
     inkscape:cx="506.6266"
     inkscape:cy="467.46176"
     inkscape:window-x="0"
     inkscape:window-y="24"
     inkscape:window-maximized="1"
     inkscape:current-layer="g12" /><g
     id="g12"
     inkscape:groupmode="layer"
     inkscape:label="ink_ext_XXXXXX"
     transform="matrix(0,1.25,1.25,0,0,0)"><path
       id="path16"
       style="fill:none;stroke:#000000;stroke-width:1;stroke-linecap:butt;stroke-linejoin:miter;stroke-miterlimit:10;stroke-opacity:1;stroke-dasharray:none"
       d="m 416.34237,156.73559 0,6.3 m 0,516.1 0,-6.3" /><g
       transform="translate(-54.457627,-51.864407)"
       id="g18"><text
         id="text20"
         transform="matrix(0,1,1,0,479.47,151.842)"><tspan
           id="tspan22"
           sodipodi:role="line"
           y="0"
           x="0 8.658 21.658001 28.158001"
           style="font-size:26px;font-variant:normal;font-weight:normal;writing-mode:lr-tb;fill:#000000;fill-opacity:1;fill-rule:nonzero;stroke:none;font-family:Times New Roman;-inkscape-font-specification:Times-Roman">-1.8</tspan></text>
</g><path
       id="path24"
       style="fill:none;stroke:#000000;stroke-width:1;stroke-linecap:butt;stroke-linejoin:miter;stroke-miterlimit:10;stroke-opacity:1;stroke-dasharray:none"
       d="m 382.04237,156.73559 0,6.3 m 0,516.1 0,-6.3" /><g
       transform="translate(-54.457627,-51.864407)"
       id="g26"><text
         id="text28"
         transform="matrix(0,1,1,0,445.17,151.842)"><tspan
           id="tspan30"
           sodipodi:role="line"
           y="0"
           x="0 8.658 21.658001 28.158001"
           style="font-size:26px;font-variant:normal;font-weight:normal;writing-mode:lr-tb;fill:#000000;fill-opacity:1;fill-rule:nonzero;stroke:none;font-family:Times New Roman;-inkscape-font-specification:Times-Roman">-1.7</tspan></text>
</g><path
       id="path32"
       style="fill:none;stroke:#000000;stroke-width:1;stroke-linecap:butt;stroke-linejoin:miter;stroke-miterlimit:10;stroke-opacity:1;stroke-dasharray:none"
       d="m 347.74237,156.73559 0,6.3 m 0,516.1 0,-6.3" /><g
       transform="translate(-54.457627,-51.864407)"
       id="g34"><text
         id="text36"
         transform="matrix(0,1,1,0,410.87,151.842)"><tspan
           id="tspan38"
           sodipodi:role="line"
           y="0"
           x="0 8.658 21.658001 28.158001"
           style="font-size:26px;font-variant:normal;font-weight:normal;writing-mode:lr-tb;fill:#000000;fill-opacity:1;fill-rule:nonzero;stroke:none;font-family:Times New Roman;-inkscape-font-specification:Times-Roman">-1.6</tspan></text>
</g><path
       id="path40"
       style="fill:none;stroke:#000000;stroke-width:1;stroke-linecap:butt;stroke-linejoin:miter;stroke-miterlimit:10;stroke-opacity:1;stroke-dasharray:none"
       d="m 313.54237,156.73559 0,6.3 m 0,516.1 0,-6.3" /><g
       transform="translate(-54.457627,-51.864407)"
       id="g42"><text
         id="text44"
         transform="matrix(0,1,1,0,376.67,151.842)"><tspan
           id="tspan46"
           sodipodi:role="line"
           y="0"
           x="0 8.658 21.658001 28.158001"
           style="font-size:26px;font-variant:normal;font-weight:normal;writing-mode:lr-tb;fill:#000000;fill-opacity:1;fill-rule:nonzero;stroke:none;font-family:Times New Roman;-inkscape-font-specification:Times-Roman">-1.5</tspan></text>
</g><path
       id="path48"
       style="fill:none;stroke:#000000;stroke-width:1;stroke-linecap:butt;stroke-linejoin:miter;stroke-miterlimit:10;stroke-opacity:1;stroke-dasharray:none"
       d="m 279.24237,156.73559 0,6.3 m 0,516.1 0,-6.3" /><g
       transform="translate(-54.457627,-51.864407)"
       id="g50"><text
         id="text52"
         transform="matrix(0,1,1,0,342.37,151.842)"><tspan
           id="tspan54"
           sodipodi:role="line"
           y="0"
           x="0 8.658 21.658001 28.158001"
           style="font-size:26px;font-variant:normal;font-weight:normal;writing-mode:lr-tb;fill:#000000;fill-opacity:1;fill-rule:nonzero;stroke:none;font-family:Times New Roman;-inkscape-font-specification:Times-Roman">-1.4</tspan></text>
</g><path
       id="path56"
       style="fill:none;stroke:#000000;stroke-width:1;stroke-linecap:butt;stroke-linejoin:miter;stroke-miterlimit:10;stroke-opacity:1;stroke-dasharray:none"
       d="m 244.94237,156.73559 0,6.3 m 0,516.1 0,-6.3" /><g
       transform="translate(-54.457627,-51.864407)"
       id="g58"><text
         id="text60"
         transform="matrix(0,1,1,0,308.07,151.842)"><tspan
           id="tspan62"
           sodipodi:role="line"
           y="0"
           x="0 8.658 21.658001 28.158001"
           style="font-size:26px;font-variant:normal;font-weight:normal;writing-mode:lr-tb;fill:#000000;fill-opacity:1;fill-rule:nonzero;stroke:none;font-family:Times New Roman;-inkscape-font-specification:Times-Roman">-1.3</tspan></text>
</g><path
       id="path64"
       style="fill:none;stroke:#000000;stroke-width:1;stroke-linecap:butt;stroke-linejoin:miter;stroke-miterlimit:10;stroke-opacity:1;stroke-dasharray:none"
       d="m 210.64237,156.73559 0,6.3 m 0,516.1 0,-6.3" /><g
       transform="translate(-54.457627,-51.864407)"
       id="g66"><text
         id="text68"
         transform="matrix(0,1,1,0,273.77,151.842)"><tspan
           id="tspan70"
           sodipodi:role="line"
           y="0"
           x="0 8.658 21.658001 28.158001"
           style="font-size:26px;font-variant:normal;font-weight:normal;writing-mode:lr-tb;fill:#000000;fill-opacity:1;fill-rule:nonzero;stroke:none;font-family:Times New Roman;-inkscape-font-specification:Times-Roman">-1.2</tspan></text>
</g><path
       id="path72"
       style="fill:none;stroke:#000000;stroke-width:1;stroke-linecap:butt;stroke-linejoin:miter;stroke-miterlimit:10;stroke-opacity:1;stroke-dasharray:none"
       d="m 176.34237,156.73559 0,6.3 m 0,516.1 0,-6.3" /><g
       transform="translate(-54.457627,-51.864407)"
       id="g74"><text
         id="text76"
         transform="matrix(0,1,1,0,239.47,151.842)"><tspan
           id="tspan78"
           sodipodi:role="line"
           y="0"
           x="0 8.658 21.658001 28.158001"
           style="font-size:26px;font-variant:normal;font-weight:normal;writing-mode:lr-tb;fill:#000000;fill-opacity:1;fill-rule:nonzero;stroke:none;font-family:Times New Roman;-inkscape-font-specification:Times-Roman">-1.1</tspan></text>
</g><path
       id="path80"
       style="fill:none;stroke:#000000;stroke-width:1;stroke-linecap:butt;stroke-linejoin:miter;stroke-miterlimit:10;stroke-opacity:1;stroke-dasharray:none"
       d="m 142.14237,156.73559 0,6.3 m 0,516.1 0,-6.3" /><g
       transform="translate(-54.457627,-51.864407)"
       id="g82"><text
         id="text84"
         transform="matrix(0,1,1,0,205.27,171.342)"><tspan
           id="tspan86"
           sodipodi:role="line"
           y="0"
           x="0 8.658"
           style="font-size:26px;font-variant:normal;font-weight:normal;writing-mode:lr-tb;fill:#000000;fill-opacity:1;fill-rule:nonzero;stroke:none;font-family:Times New Roman;-inkscape-font-specification:Times-Roman">-1</tspan></text>
</g><path
       id="path88"
       style="fill:none;stroke:#000000;stroke-width:1;stroke-linecap:butt;stroke-linejoin:miter;stroke-miterlimit:10;stroke-opacity:1;stroke-dasharray:none"
       d="m 107.84237,156.73559 0,6.3 m 0,516.1 0,-6.3" /><g
       transform="translate(-54.457627,-51.864407)"
       id="g90"><text
         id="text92"
         transform="matrix(0,1,1,0,170.97,151.842)"><tspan
           id="tspan94"
           sodipodi:role="line"
           y="0"
           x="0 8.658 21.658001 28.158001"
           style="font-size:26px;font-variant:normal;font-weight:normal;writing-mode:lr-tb;fill:#000000;fill-opacity:1;fill-rule:nonzero;stroke:none;font-family:Times New Roman;-inkscape-font-specification:Times-Roman">-0.9</tspan></text>
</g><path
       id="path96"
       style="fill:none;stroke:#000000;stroke-width:1;stroke-linecap:butt;stroke-linejoin:miter;stroke-miterlimit:10;stroke-opacity:1;stroke-dasharray:none"
       d="m 73.542373,156.73559 0,6.3 m 0,516.1 0,-6.3" /><g
       transform="translate(-54.457627,-51.864407)"
       id="g98"><text
         id="text100"
         transform="matrix(0,1,1,0,136.67,151.842)"><tspan
           id="tspan102"
           sodipodi:role="line"
           y="0"
           x="0 8.658 21.658001 28.158001"
           style="font-size:26px;font-variant:normal;font-weight:normal;writing-mode:lr-tb;fill:#000000;fill-opacity:1;fill-rule:nonzero;stroke:none;font-family:Times New Roman;-inkscape-font-specification:Times-Roman">-0.8</tspan></text>
</g><path
       id="path104"
       style="fill:none;stroke:#000000;stroke-width:1;stroke-linecap:butt;stroke-linejoin:miter;stroke-miterlimit:10;stroke-opacity:1;stroke-dasharray:none"
       d="m 416.34237,156.73559 -6.3,0 m -336.499997,0 6.3,0" /><g
       transform="translate(-54.457627,-51.864407)"
       id="g106"><text
         id="text108"
         transform="matrix(0,1,1,0,505.47,195.6)"><tspan
           id="tspan110"
           sodipodi:role="line"
           y="0"
           x="0 13 19.5"
           style="font-size:26px;font-variant:normal;font-weight:normal;writing-mode:lr-tb;fill:#000000;fill-opacity:1;fill-rule:nonzero;stroke:none;font-family:Times New Roman;-inkscape-font-specification:Times-Roman">1.2</tspan></text>
</g><path
       id="path112"
       style="fill:none;stroke:#000000;stroke-width:1;stroke-linecap:butt;stroke-linejoin:miter;stroke-miterlimit:10;stroke-opacity:1;stroke-dasharray:none"
       d="m 416.34237,243.83559 -6.3,0 m -336.499997,0 6.3,0" /><g
       transform="translate(-54.457627,-51.864407)"
       id="g114"><text
         id="text116"
         transform="matrix(0,1,1,0,505.47,282.7)"><tspan
           id="tspan118"
           sodipodi:role="line"
           y="0"
           x="0 13 19.5"
           style="font-size:26px;font-variant:normal;font-weight:normal;writing-mode:lr-tb;fill:#000000;fill-opacity:1;fill-rule:nonzero;stroke:none;font-family:Times New Roman;-inkscape-font-specification:Times-Roman">1.4</tspan></text>
</g><path
       id="path120"
       style="fill:none;stroke:#000000;stroke-width:1;stroke-linecap:butt;stroke-linejoin:miter;stroke-miterlimit:10;stroke-opacity:1;stroke-dasharray:none"
       d="m 416.34237,330.83559 -6.3,0 m -336.499997,0 6.3,0" /><g
       transform="translate(-54.457627,-51.864407)"
       id="g122"><text
         id="text124"
         transform="matrix(0,1,1,0,505.47,369.7)"><tspan
           id="tspan126"
           sodipodi:role="line"
           y="0"
           x="0 13 19.5"
           style="font-size:26px;font-variant:normal;font-weight:normal;writing-mode:lr-tb;fill:#000000;fill-opacity:1;fill-rule:nonzero;stroke:none;font-family:Times New Roman;-inkscape-font-specification:Times-Roman">1.6</tspan></text>
</g><path
       id="path128"
       style="fill:none;stroke:#000000;stroke-width:1;stroke-linecap:butt;stroke-linejoin:miter;stroke-miterlimit:10;stroke-opacity:1;stroke-dasharray:none"
       d="m 416.34237,417.93559 -6.3,0 m -336.499997,0 6.3,0" /><g
       transform="translate(-54.457627,-51.864407)"
       id="g130"><text
         id="text132"
         transform="matrix(0,1,1,0,505.47,456.8)"><tspan
           id="tspan134"
           sodipodi:role="line"
           y="0"
           x="0 13 19.5"
           style="font-size:26px;font-variant:normal;font-weight:normal;writing-mode:lr-tb;fill:#000000;fill-opacity:1;fill-rule:nonzero;stroke:none;font-family:Times New Roman;-inkscape-font-specification:Times-Roman">1.8</tspan></text>
</g><path
       id="path136"
       style="fill:none;stroke:#000000;stroke-width:1;stroke-linecap:butt;stroke-linejoin:miter;stroke-miterlimit:10;stroke-opacity:1;stroke-dasharray:none"
       d="m 416.34237,505.03559 -6.3,0 m -336.499997,0 6.3,0" /><g
       transform="translate(-54.457627,-51.864407)"
       id="g138"><text
         id="text140"
         transform="matrix(0,1,1,0,505.47,553.65)"><tspan
           id="tspan142"
           y="0"
           x="0"
           style="font-size:26px;font-variant:normal;font-weight:normal;writing-mode:lr-tb;fill:#000000;fill-opacity:1;fill-rule:nonzero;stroke:none;font-family:Times New Roman;-inkscape-font-specification:Times-Roman">2</tspan></text>
</g><path
       id="path144"
       style="fill:none;stroke:#000000;stroke-width:1;stroke-linecap:butt;stroke-linejoin:miter;stroke-miterlimit:10;stroke-opacity:1;stroke-dasharray:none"
       d="m 416.34237,592.03559 -6.3,0 m -336.499997,0 6.3,0" /><g
       transform="translate(-54.457627,-51.864407)"
       id="g146"><text
         id="text148"
         transform="matrix(0,1,1,0,505.47,630.9)"><tspan
           id="tspan150"
           sodipodi:role="line"
           y="0"
           x="0 13 19.5"
           style="font-size:26px;font-variant:normal;font-weight:normal;writing-mode:lr-tb;fill:#000000;fill-opacity:1;fill-rule:nonzero;stroke:none;font-family:Times New Roman;-inkscape-font-specification:Times-Roman">2.2</tspan></text>
</g><path
       id="path152"
       style="fill:none;stroke:#000000;stroke-width:1;stroke-linecap:butt;stroke-linejoin:miter;stroke-miterlimit:10;stroke-opacity:1;stroke-dasharray:none"
       d="m 416.34237,679.13559 -6.3,0 m -336.499997,0 6.3,0" /><g
       transform="translate(-54.457627,-51.864407)"
       id="g154"><text
         id="text156"
         transform="matrix(0,1,1,0,505.47,718)"><tspan
           id="tspan158"
           sodipodi:role="line"
           y="0"
           x="0 13 19.5"
           style="font-size:26px;font-variant:normal;font-weight:normal;writing-mode:lr-tb;fill:#000000;fill-opacity:1;fill-rule:nonzero;stroke:none;font-family:Times New Roman;-inkscape-font-specification:Times-Roman">2.4</tspan></text>
</g><path
       id="path160"
       style="fill:none;stroke:#000000;stroke-width:1;stroke-linecap:butt;stroke-linejoin:miter;stroke-miterlimit:10;stroke-opacity:1;stroke-dasharray:none"
       d="m 73.542373,156.73559 342.799997,0 0,522.4 -342.799997,0 0,-522.4 z" /><path
       id="path174"
       style="fill:#000000;fill-opacity:1;fill-rule:nonzero;stroke:none"
       d="m 395.34237,159.88559 c -1.739,0 -3.15,-1.411 -3.15,-3.15 0,-1.739 1.411,-3.15 3.15,-3.15 1.739,0 3.15,1.411 3.15,3.15 0,1.739 -1.411,3.15 -3.15,3.15" /><path
       id="path176"
       style="fill:#000000;fill-opacity:1;fill-rule:nonzero;stroke:none"
       d="m 394.54237,166.38559 c -1.739,0 -3.15,-1.411 -3.15,-3.15 0,-1.739 1.411,-3.15 3.15,-3.15 1.739,0 3.15,1.411 3.15,3.15 0,1.739 -1.411,3.15 -3.15,3.15" /><path
       id="path178"
       style="fill:#000000;fill-opacity:1;fill-rule:nonzero;stroke:none"
       d="m 393.64237,172.98559 c -1.739,0 -3.15,-1.411 -3.15,-3.15 0,-1.739 1.411,-3.15 3.15,-3.15 1.739,0 3.15,1.411 3.15,3.15 0,1.739 -1.411,3.15 -3.15,3.15" /><path
       id="path180"
       style="fill:#000000;fill-opacity:1;fill-rule:nonzero;stroke:none"
       d="m 392.64237,179.48559 c -1.739,0 -3.15,-1.411 -3.15,-3.15 0,-1.739 1.411,-3.15 3.15,-3.15 1.739,0 3.15,1.411 3.15,3.15 0,1.739 -1.411,3.15 -3.15,3.15" /><path
       id="path182"
       style="fill:#000000;fill-opacity:1;fill-rule:nonzero;stroke:none"
       d="m 391.64237,185.98559 c -1.739,0 -3.15,-1.411 -3.15,-3.15 0,-1.739 1.411,-3.15 3.15,-3.15 1.739,0 3.15,1.411 3.15,3.15 0,1.739 -1.411,3.15 -3.15,3.15" /><path
       id="path184"
       style="fill:#000000;fill-opacity:1;fill-rule:nonzero;stroke:none"
       d="m 390.54237,192.48559 c -1.739,0 -3.15,-1.411 -3.15,-3.15 0,-1.739 1.411,-3.15 3.15,-3.15 1.739,0 3.15,1.411 3.15,3.15 0,1.739 -1.411,3.15 -3.15,3.15" /><path
       id="path186"
       style="fill:#000000;fill-opacity:1;fill-rule:nonzero;stroke:none"
       d="m 389.34237,199.08559 c -1.739,0 -3.15,-1.411 -3.15,-3.15 0,-1.739 1.411,-3.15 3.15,-3.15 1.739,0 3.15,1.411 3.15,3.15 0,1.739 -1.411,3.15 -3.15,3.15" /><path
       id="path188"
       style="fill:#000000;fill-opacity:1;fill-rule:nonzero;stroke:none"
       d="m 388.14237,205.58559 c -1.739,0 -3.15,-1.411 -3.15,-3.15 0,-1.739 1.411,-3.15 3.15,-3.15 1.739,0 3.15,1.411 3.15,3.15 0,1.739 -1.411,3.15 -3.15,3.15" /><path
       id="path190"
       style="fill:#000000;fill-opacity:1;fill-rule:nonzero;stroke:none"
       d="m 386.84237,212.08559 c -1.739,0 -3.15,-1.411 -3.15,-3.15 0,-1.739 1.411,-3.15 3.15,-3.15 1.739,0 3.15,1.411 3.15,3.15 0,1.739 -1.411,3.15 -3.15,3.15" /><path
       id="path192"
       style="fill:#000000;fill-opacity:1;fill-rule:nonzero;stroke:none"
       d="m 385.44237,218.68559 c -1.739,0 -3.15,-1.411 -3.15,-3.15 0,-1.739 1.411,-3.15 3.15,-3.15 1.739,0 3.15,1.411 3.15,3.15 0,1.739 -1.411,3.15 -3.15,3.15" /><path
       id="path194"
       style="fill:#000000;fill-opacity:1;fill-rule:nonzero;stroke:none"
       d="m 384.04237,225.18559 c -1.739,0 -3.15,-1.411 -3.15,-3.15 0,-1.739 1.411,-3.15 3.15,-3.15 1.739,0 3.15,1.411 3.15,3.15 0,1.739 -1.411,3.15 -3.15,3.15" /><path
       id="path196"
       style="fill:#000000;fill-opacity:1;fill-rule:nonzero;stroke:none"
       d="m 382.44237,231.68559 c -1.739,0 -3.15,-1.411 -3.15,-3.15 0,-1.739 1.411,-3.15 3.15,-3.15 1.739,0 3.15,1.411 3.15,3.15 0,1.739 -1.411,3.15 -3.15,3.15" /><path
       id="path198"
       style="fill:#000000;fill-opacity:1;fill-rule:nonzero;stroke:none"
       d="m 380.84237,238.28559 c -1.739,0 -3.15,-1.411 -3.15,-3.15 0,-1.739 1.411,-3.15 3.15,-3.15 1.739,0 3.15,1.411 3.15,3.15 0,1.739 -1.411,3.15 -3.15,3.15" /><path
       id="path200"
       style="fill:#000000;fill-opacity:1;fill-rule:nonzero;stroke:none"
       d="m 379.04237,244.78559 c -1.739,0 -3.15,-1.411 -3.15,-3.15 0,-1.739 1.411,-3.15 3.15,-3.15 1.739,0 3.15,1.411 3.15,3.15 0,1.739 -1.411,3.15 -3.15,3.15" /><path
       id="path202"
       style="fill:#000000;fill-opacity:1;fill-rule:nonzero;stroke:none"
       d="m 377.24237,251.28559 c -1.739,0 -3.15,-1.411 -3.15,-3.15 0,-1.739 1.411,-3.15 3.15,-3.15 1.739,0 3.15,1.411 3.15,3.15 0,1.739 -1.411,3.15 -3.15,3.15" /><path
       id="path204"
       style="fill:#000000;fill-opacity:1;fill-rule:nonzero;stroke:none"
       d="m 375.24237,257.88559 c -1.739,0 -3.15,-1.411 -3.15,-3.15 0,-1.739 1.411,-3.15 3.15,-3.15 1.739,0 3.15,1.411 3.15,3.15 0,1.739 -1.411,3.15 -3.15,3.15" /><path
       id="path206"
       style="fill:#000000;fill-opacity:1;fill-rule:nonzero;stroke:none"
       d="m 373.24237,264.38559 c -1.739,0 -3.15,-1.411 -3.15,-3.15 0,-1.739 1.411,-3.15 3.15,-3.15 1.739,0 3.15,1.411 3.15,3.15 0,1.739 -1.411,3.15 -3.15,3.15" /><path
       id="path208"
       style="fill:#000000;fill-opacity:1;fill-rule:nonzero;stroke:none"
       d="m 371.04237,270.88559 c -1.739,0 -3.15,-1.411 -3.15,-3.15 0,-1.739 1.411,-3.15 3.15,-3.15 1.739,0 3.15,1.411 3.15,3.15 0,1.739 -1.411,3.15 -3.15,3.15" /><path
       id="path210"
       style="fill:#000000;fill-opacity:1;fill-rule:nonzero;stroke:none"
       d="m 368.74237,277.38559 c -1.739,0 -3.15,-1.411 -3.15,-3.15 0,-1.739 1.411,-3.15 3.15,-3.15 1.739,0 3.15,1.411 3.15,3.15 0,1.739 -1.411,3.15 -3.15,3.15" /><path
       id="path212"
       style="fill:#000000;fill-opacity:1;fill-rule:nonzero;stroke:none"
       d="m 366.34237,283.98559 c -1.739,0 -3.15,-1.411 -3.15,-3.15 0,-1.739 1.411,-3.15 3.15,-3.15 1.739,0 3.15,1.411 3.15,3.15 0,1.739 -1.411,3.15 -3.15,3.15" /><path
       id="path214"
       style="fill:#000000;fill-opacity:1;fill-rule:nonzero;stroke:none"
       d="m 363.74237,290.48559 c -1.739,0 -3.15,-1.411 -3.15,-3.15 0,-1.739 1.411,-3.15 3.15,-3.15 1.739,0 3.15,1.411 3.15,3.15 0,1.739 -1.411,3.15 -3.15,3.15" /><path
       id="path216"
       style="fill:#000000;fill-opacity:1;fill-rule:nonzero;stroke:none"
       d="m 361.04237,296.98559 c -1.739,0 -3.15,-1.411 -3.15,-3.15 0,-1.739 1.411,-3.15 3.15,-3.15 1.739,0 3.15,1.411 3.15,3.15 0,1.739 -1.411,3.15 -3.15,3.15" /><path
       id="path218"
       style="fill:#000000;fill-opacity:1;fill-rule:nonzero;stroke:none"
       d="m 358.24237,303.58559 c -1.739,0 -3.15,-1.411 -3.15,-3.15 0,-1.739 1.411,-3.15 3.15,-3.15 1.739,0 3.15,1.411 3.15,3.15 0,1.739 -1.411,3.15 -3.15,3.15" /><path
       id="path220"
       style="fill:#000000;fill-opacity:1;fill-rule:nonzero;stroke:none"
       d="m 355.24237,310.08559 c -1.739,0 -3.15,-1.411 -3.15,-3.15 0,-1.739 1.411,-3.15 3.15,-3.15 1.739,0 3.15,1.411 3.15,3.15 0,1.739 -1.411,3.15 -3.15,3.15" /><path
       id="path222"
       style="fill:#000000;fill-opacity:1;fill-rule:nonzero;stroke:none"
       d="m 352.04237,316.58559 c -1.739,0 -3.15,-1.411 -3.15,-3.15 0,-1.739 1.411,-3.15 3.15,-3.15 1.739,0 3.15,1.411 3.15,3.15 0,1.739 -1.411,3.15 -3.15,3.15" /><path
       id="path224"
       style="fill:#000000;fill-opacity:1;fill-rule:nonzero;stroke:none"
       d="m 348.74237,323.18559 c -1.739,0 -3.15,-1.411 -3.15,-3.15 0,-1.739 1.411,-3.15 3.15,-3.15 1.739,0 3.15,1.411 3.15,3.15 0,1.739 -1.411,3.15 -3.15,3.15" /><path
       id="path226"
       style="fill:#000000;fill-opacity:1;fill-rule:nonzero;stroke:none"
       d="m 345.24237,329.68559 c -1.739,0 -3.15,-1.411 -3.15,-3.15 0,-1.739 1.411,-3.15 3.15,-3.15 1.739,0 3.15,1.411 3.15,3.15 0,1.739 -1.411,3.15 -3.15,3.15" /><path
       id="path228"
       style="fill:#000000;fill-opacity:1;fill-rule:nonzero;stroke:none"
       d="m 341.54237,336.18559 c -1.739,0 -3.15,-1.411 -3.15,-3.15 0,-1.739 1.411,-3.15 3.15,-3.15 1.739,0 3.15,1.411 3.15,3.15 0,1.739 -1.411,3.15 -3.15,3.15" /><path
       id="path230"
       style="fill:#000000;fill-opacity:1;fill-rule:nonzero;stroke:none"
       d="m 337.64237,342.68559 c -1.739,0 -3.15,-1.411 -3.15,-3.15 0,-1.739 1.411,-3.15 3.15,-3.15 1.739,0 3.15,1.411 3.15,3.15 0,1.739 -1.411,3.15 -3.15,3.15" /><path
       id="path232"
       style="fill:#000000;fill-opacity:1;fill-rule:nonzero;stroke:none"
       d="m 333.44237,349.28559 c -1.739,0 -3.15,-1.411 -3.15,-3.15 0,-1.739 1.411,-3.15 3.15,-3.15 1.739,0 3.15,1.411 3.15,3.15 0,1.739 -1.411,3.15 -3.15,3.15" /><path
       id="path234"
       style="fill:#000000;fill-opacity:1;fill-rule:nonzero;stroke:none"
       d="m 329.14237,355.78559 c -1.739,0 -3.15,-1.411 -3.15,-3.15 0,-1.739 1.411,-3.15 3.15,-3.15 1.739,0 3.15,1.411 3.15,3.15 0,1.739 -1.411,3.15 -3.15,3.15" /><path
       id="path236"
       style="fill:#000000;fill-opacity:1;fill-rule:nonzero;stroke:none"
       d="m 324.44237,362.28559 c -1.739,0 -3.15,-1.411 -3.15,-3.15 0,-1.739 1.411,-3.15 3.15,-3.15 1.739,0 3.15,1.411 3.15,3.15 0,1.739 -1.411,3.15 -3.15,3.15" /><path
       id="path238"
       style="fill:#000000;fill-opacity:1;fill-rule:nonzero;stroke:none"
       d="m 319.54237,368.88559 c -1.739,0 -3.15,-1.411 -3.15,-3.15 0,-1.739 1.411,-3.15 3.15,-3.15 1.739,0 3.15,1.411 3.15,3.15 0,1.739 -1.411,3.15 -3.15,3.15" /><path
       id="path240"
       style="fill:#000000;fill-opacity:1;fill-rule:nonzero;stroke:none"
       d="m 314.34237,375.38559 c -1.739,0 -3.15,-1.411 -3.15,-3.15 0,-1.739 1.411,-3.15 3.15,-3.15 1.739,0 3.15,1.411 3.15,3.15 0,1.739 -1.411,3.15 -3.15,3.15" /><path
       id="path242"
       style="fill:#000000;fill-opacity:1;fill-rule:nonzero;stroke:none"
       d="m 308.84237,381.88559 c -1.739,0 -3.15,-1.411 -3.15,-3.15 0,-1.739 1.411,-3.15 3.15,-3.15 1.739,0 3.15,1.411 3.15,3.15 0,1.739 -1.411,3.15 -3.15,3.15" /><path
       id="path244"
       style="fill:#000000;fill-opacity:1;fill-rule:nonzero;stroke:none"
       d="m 303.04237,388.48559 c -1.739,0 -3.15,-1.411 -3.15,-3.15 0,-1.739 1.411,-3.15 3.15,-3.15 1.739,0 3.15,1.411 3.15,3.15 0,1.739 -1.411,3.15 -3.15,3.15" /><path
       id="path246"
       style="fill:#000000;fill-opacity:1;fill-rule:nonzero;stroke:none"
       d="m 296.74237,394.98559 c -1.739,0 -3.15,-1.411 -3.15,-3.15 0,-1.739 1.411,-3.15 3.15,-3.15 1.739,0 3.15,1.411 3.15,3.15 0,1.739 -1.411,3.15 -3.15,3.15" /><path
       id="path248"
       style="fill:#000000;fill-opacity:1;fill-rule:nonzero;stroke:none"
       d="m 290.14237,401.48559 c -1.739,0 -3.15,-1.411 -3.15,-3.15 0,-1.739 1.411,-3.15 3.15,-3.15 1.739,0 3.15,1.411 3.15,3.15 0,1.739 -1.411,3.15 -3.15,3.15" /><path
       id="path250"
       style="fill:#000000;fill-opacity:1;fill-rule:nonzero;stroke:none"
       d="m 283.04237,407.98559 c -1.739,0 -3.15,-1.411 -3.15,-3.15 0,-1.739 1.411,-3.15 3.15,-3.15 1.739,0 3.15,1.411 3.15,3.15 0,1.739 -1.411,3.15 -3.15,3.15" /><path
       id="path252"
       style="fill:#000000;fill-opacity:1;fill-rule:nonzero;stroke:none"
       d="m 275.64237,414.58559 c -1.739,0 -3.15,-1.411 -3.15,-3.15 0,-1.739 1.411,-3.15 3.15,-3.15 1.739,0 3.15,1.411 3.15,3.15 0,1.739 -1.411,3.15 -3.15,3.15" /><path
       id="path254"
       style="fill:#000000;fill-opacity:1;fill-rule:nonzero;stroke:none"
       d="m 267.54237,421.08559 c -1.739,0 -3.15,-1.411 -3.15,-3.15 0,-1.739 1.411,-3.15 3.15,-3.15 1.739,0 3.15,1.411 3.15,3.15 0,1.739 -1.411,3.15 -3.15,3.15" /><path
       id="path256"
       style="fill:#000000;fill-opacity:1;fill-rule:nonzero;stroke:none"
       d="m 258.64237,427.58559 c -1.739,0 -3.15,-1.411 -3.15,-3.15 0,-1.739 1.411,-3.15 3.15,-3.15 1.739,0 3.15,1.411 3.15,3.15 0,1.739 -1.411,3.15 -3.15,3.15" /><path
       id="path258"
       style="fill:#000000;fill-opacity:1;fill-rule:nonzero;stroke:none"
       d="m 249.24237,434.18559 c -1.739,0 -3.15,-1.411 -3.15,-3.15 0,-1.739 1.411,-3.15 3.15,-3.15 1.739,0 3.15,1.411 3.15,3.15 0,1.739 -1.411,3.15 -3.15,3.15" /><path
       id="path260"
       style="fill:#000000;fill-opacity:1;fill-rule:nonzero;stroke:none"
       d="m 238.54237,440.68559 c -1.739,0 -3.15,-1.411 -3.15,-3.15 0,-1.739 1.411,-3.15 3.15,-3.15 1.739,0 3.15,1.411 3.15,3.15 0,1.739 -1.411,3.15 -3.15,3.15" /><path
       id="path262"
       style="fill:#000000;fill-opacity:1;fill-rule:nonzero;stroke:none"
       d="m 226.64237,447.18559 c -1.739,0 -3.15,-1.411 -3.15,-3.15 0,-1.739 1.411,-3.15 3.15,-3.15 1.739,0 3.15,1.411 3.15,3.15 0,1.739 -1.411,3.15 -3.15,3.15" /><path
       id="path264"
       style="fill:#000000;fill-opacity:1;fill-rule:nonzero;stroke:none"
       d="m 214.04237,453.78559 c -1.739,0 -3.15,-1.411 -3.15,-3.15 0,-1.739 1.411,-3.15 3.15,-3.15 1.739,0 3.15,1.411 3.15,3.15 0,1.739 -1.411,3.15 -3.15,3.15" /><path
       id="path266"
       style="fill:#000000;fill-opacity:1;fill-rule:nonzero;stroke:none"
       d="m 199.84237,460.28559 c -1.739,0 -3.15,-1.411 -3.15,-3.15 0,-1.739 1.411,-3.15 3.15,-3.15 1.739,0 3.15,1.411 3.15,3.15 0,1.739 -1.411,3.15 -3.15,3.15" /><path
       id="path268"
       style="fill:#000000;fill-opacity:1;fill-rule:nonzero;stroke:none"
       d="m 186.34237,466.78559 c -1.739,0 -3.15,-1.411 -3.15,-3.15 0,-1.739 1.411,-3.15 3.15,-3.15 1.739,0 3.15,1.411 3.15,3.15 0,1.739 -1.411,3.15 -3.15,3.15" /><path
       id="path270"
       style="fill:#000000;fill-opacity:1;fill-rule:nonzero;stroke:none"
       d="m 174.64237,473.28559 c -1.739,0 -3.15,-1.411 -3.15,-3.15 0,-1.739 1.411,-3.15 3.15,-3.15 1.739,0 3.15,1.411 3.15,3.15 0,1.739 -1.411,3.15 -3.15,3.15" /><path
       id="path272"
       style="fill:#000000;fill-opacity:1;fill-rule:nonzero;stroke:none"
       d="m 166.04237,479.88559 c -1.739,0 -3.15,-1.411 -3.15,-3.15 0,-1.739 1.411,-3.15 3.15,-3.15 1.739,0 3.15,1.411 3.15,3.15 0,1.739 -1.411,3.15 -3.15,3.15" /><path
       id="path274"
       style="fill:#000000;fill-opacity:1;fill-rule:nonzero;stroke:none"
       d="m 158.54237,486.38559 c -1.739,0 -3.15,-1.411 -3.15,-3.15 0,-1.739 1.411,-3.15 3.15,-3.15 1.739,0 3.15,1.411 3.15,3.15 0,1.739 -1.411,3.15 -3.15,3.15" /><path
       id="path276"
       style="fill:#000000;fill-opacity:1;fill-rule:nonzero;stroke:none"
       d="m 152.94237,492.88559 c -1.739,0 -3.15,-1.411 -3.15,-3.15 0,-1.739 1.411,-3.15 3.15,-3.15 1.739,0 3.15,1.411 3.15,3.15 0,1.739 -1.411,3.15 -3.15,3.15" /><path
       id="path278"
       style="fill:#000000;fill-opacity:1;fill-rule:nonzero;stroke:none"
       d="m 147.74237,499.48559 c -1.739,0 -3.15,-1.411 -3.15,-3.15 0,-1.739 1.411,-3.15 3.15,-3.15 1.739,0 3.15,1.411 3.15,3.15 0,1.739 -1.411,3.15 -3.15,3.15" /><path
       id="path280"
       style="fill:#000000;fill-opacity:1;fill-rule:nonzero;stroke:none"
       d="m 143.34237,505.98559 c -1.739,0 -3.15,-1.411 -3.15,-3.15 0,-1.739 1.411,-3.15 3.15,-3.15 1.739,0 3.15,1.411 3.15,3.15 0,1.739 -1.411,3.15 -3.15,3.15" /><path
       id="path282"
       style="fill:#000000;fill-opacity:1;fill-rule:nonzero;stroke:none"
       d="m 139.44237,512.48559 c -1.739,0 -3.15,-1.411 -3.15,-3.15 0,-1.739 1.411,-3.15 3.15,-3.15 1.739,0 3.15,1.411 3.15,3.15 0,1.739 -1.411,3.15 -3.15,3.15" /><path
       id="path284"
       style="fill:#000000;fill-opacity:1;fill-rule:nonzero;stroke:none"
       d="m 135.64237,519.08559 c -1.739,0 -3.15,-1.411 -3.15,-3.15 0,-1.739 1.411,-3.15 3.15,-3.15 1.739,0 3.15,1.411 3.15,3.15 0,1.739 -1.411,3.15 -3.15,3.15" /><path
       id="path286"
       style="fill:#000000;fill-opacity:1;fill-rule:nonzero;stroke:none"
       d="m 132.24237,525.58559 c -1.739,0 -3.15,-1.411 -3.15,-3.15 0,-1.739 1.411,-3.15 3.15,-3.15 1.739,0 3.15,1.411 3.15,3.15 0,1.739 -1.411,3.15 -3.15,3.15" /><path
       id="path288"
       style="fill:#000000;fill-opacity:1;fill-rule:nonzero;stroke:none"
       d="m 129.04237,532.08559 c -1.739,0 -3.15,-1.411 -3.15,-3.15 0,-1.739 1.411,-3.15 3.15,-3.15 1.739,0 3.15,1.411 3.15,3.15 0,1.739 -1.411,3.15 -3.15,3.15" /><path
       id="path290"
       style="fill:#000000;fill-opacity:1;fill-rule:nonzero;stroke:none"
       d="m 126.04237,538.58559 c -1.739,0 -3.15,-1.411 -3.15,-3.15 0,-1.739 1.411,-3.15 3.15,-3.15 1.739,0 3.15,1.411 3.15,3.15 0,1.739 -1.411,3.15 -3.15,3.15" /><path
       id="path292"
       style="fill:#000000;fill-opacity:1;fill-rule:nonzero;stroke:none"
       d="m 123.24237,545.18559 c -1.739,0 -3.15,-1.411 -3.15,-3.15 0,-1.739 1.411,-3.15 3.15,-3.15 1.739,0 3.15,1.411 3.15,3.15 0,1.739 -1.411,3.15 -3.15,3.15" /><path
       id="path294"
       style="fill:#000000;fill-opacity:1;fill-rule:nonzero;stroke:none"
       d="m 120.44237,551.68559 c -1.739,0 -3.15,-1.411 -3.15,-3.15 0,-1.739 1.411,-3.15 3.15,-3.15 1.739,0 3.15,1.411 3.15,3.15 0,1.739 -1.411,3.15 -3.15,3.15" /><path
       id="path296"
       style="fill:#000000;fill-opacity:1;fill-rule:nonzero;stroke:none"
       d="m 117.74237,558.18559 c -1.739,0 -3.15,-1.411 -3.15,-3.15 0,-1.739 1.411,-3.15 3.15,-3.15 1.739,0 3.15,1.411 3.15,3.15 0,1.739 -1.411,3.15 -3.15,3.15" /><path
       id="path298"
       style="fill:#000000;fill-opacity:1;fill-rule:nonzero;stroke:none"
       d="m 115.24237,564.78559 c -1.739,0 -3.15,-1.411 -3.15,-3.15 0,-1.739 1.411,-3.15 3.15,-3.15 1.739,0 3.15,1.411 3.15,3.15 0,1.739 -1.411,3.15 -3.15,3.15" /><path
       id="path300"
       style="fill:#000000;fill-opacity:1;fill-rule:nonzero;stroke:none"
       d="m 112.74237,571.28559 c -1.739,0 -3.15,-1.411 -3.15,-3.15 0,-1.739 1.411,-3.15 3.15,-3.15 1.739,0 3.15,1.411 3.15,3.15 0,1.739 -1.411,3.15 -3.15,3.15" /><path
       id="path302"
       style="fill:#000000;fill-opacity:1;fill-rule:nonzero;stroke:none"
       d="m 110.34237,577.78559 c -1.739,0 -3.15,-1.411 -3.15,-3.15 0,-1.739 1.411,-3.15 3.15,-3.15 1.739,0 3.15,1.411 3.15,3.15 0,1.739 -1.411,3.15 -3.15,3.15" /><path
       id="path304"
       style="fill:#000000;fill-opacity:1;fill-rule:nonzero;stroke:none"
       d="m 108.14237,584.38559 c -1.739,0 -3.15,-1.411 -3.15,-3.15 0,-1.739 1.411,-3.15 3.15,-3.15 1.739,0 3.15,1.411 3.15,3.15 0,1.739 -1.411,3.15 -3.15,3.15" /><path
       id="path306"
       style="fill:#000000;fill-opacity:1;fill-rule:nonzero;stroke:none"
       d="m 105.84237,590.88559 c -1.739,0 -3.15,-1.411 -3.15,-3.15 0,-1.739 1.411,-3.15 3.15,-3.15 1.739,0 3.15,1.411 3.15,3.15 0,1.739 -1.411,3.15 -3.15,3.15" /><path
       id="path308"
       style="fill:#000000;fill-opacity:1;fill-rule:nonzero;stroke:none"
       d="m 103.64237,597.38559 c -1.739,0 -3.15,-1.411 -3.15,-3.15 0,-1.739 1.411,-3.15 3.15,-3.15 1.739,0 3.15,1.411 3.15,3.15 0,1.739 -1.411,3.15 -3.15,3.15" /><path
       id="path310"
       style="fill:#000000;fill-opacity:1;fill-rule:nonzero;stroke:none"
       d="m 101.64237,603.88559 c -1.738997,0 -3.149997,-1.411 -3.149997,-3.15 0,-1.739 1.411,-3.15 3.149997,-3.15 1.739,0 3.15,1.411 3.15,3.15 0,1.739 -1.411,3.15 -3.15,3.15" /><path
       id="path312"
       style="fill:#000000;fill-opacity:1;fill-rule:nonzero;stroke:none"
       d="m 99.542373,610.48559 c -1.739,0 -3.15,-1.411 -3.15,-3.15 0,-1.739 1.411,-3.15 3.15,-3.15 1.738997,0 3.149997,1.411 3.149997,3.15 0,1.739 -1.411,3.15 -3.149997,3.15" /><path
       id="path314"
       style="fill:#000000;fill-opacity:1;fill-rule:nonzero;stroke:none"
       d="m 97.642373,616.98559 c -1.739,0 -3.15,-1.411 -3.15,-3.15 0,-1.739 1.411,-3.15 3.15,-3.15 1.739,0 3.149997,1.411 3.149997,3.15 0,1.739 -1.410997,3.15 -3.149997,3.15" /><path
       id="path316"
       style="fill:#000000;fill-opacity:1;fill-rule:nonzero;stroke:none"
       d="m 95.742373,623.48559 c -1.739,0 -3.15,-1.411 -3.15,-3.15 0,-1.739 1.411,-3.15 3.15,-3.15 1.739,0 3.15,1.411 3.15,3.15 0,1.739 -1.411,3.15 -3.15,3.15" /><path
       id="path318"
       style="fill:#000000;fill-opacity:1;fill-rule:nonzero;stroke:none"
       d="m 93.842373,630.08559 c -1.739,0 -3.15,-1.411 -3.15,-3.15 0,-1.739 1.411,-3.15 3.15,-3.15 1.739,0 3.15,1.411 3.15,3.15 0,1.739 -1.411,3.15 -3.15,3.15" /><path
       id="path320"
       style="fill:#000000;fill-opacity:1;fill-rule:nonzero;stroke:none"
       d="m 91.942373,636.58559 c -1.739,0 -3.15,-1.411 -3.15,-3.15 0,-1.739 1.411,-3.15 3.15,-3.15 1.739,0 3.15,1.411 3.15,3.15 0,1.739 -1.411,3.15 -3.15,3.15" /><path
       id="path322"
       style="fill:#000000;fill-opacity:1;fill-rule:nonzero;stroke:none"
       d="m 90.142373,643.08559 c -1.739,0 -3.15,-1.411 -3.15,-3.15 0,-1.739 1.411,-3.15 3.15,-3.15 1.739,0 3.15,1.411 3.15,3.15 0,1.739 -1.411,3.15 -3.15,3.15" /><path
       id="path324"
       style="fill:#000000;fill-opacity:1;fill-rule:nonzero;stroke:none"
       d="m 88.342373,649.68559 c -1.739,0 -3.15,-1.411 -3.15,-3.15 0,-1.739 1.411,-3.15 3.15,-3.15 1.739,0 3.15,1.411 3.15,3.15 0,1.739 -1.411,3.15 -3.15,3.15" /><path
       id="path326"
       style="fill:#000000;fill-opacity:1;fill-rule:nonzero;stroke:none"
       d="m 86.642373,656.18559 c -1.739,0 -3.15,-1.411 -3.15,-3.15 0,-1.739 1.411,-3.15 3.15,-3.15 1.739,0 3.15,1.411 3.15,3.15 0,1.739 -1.411,3.15 -3.15,3.15" /><path
       id="path328"
       style="fill:#000000;fill-opacity:1;fill-rule:nonzero;stroke:none"
       d="m 84.942373,662.68559 c -1.739,0 -3.15,-1.411 -3.15,-3.15 0,-1.739 1.411,-3.15 3.15,-3.15 1.739,0 3.15,1.411 3.15,3.15 0,1.739 -1.411,3.15 -3.15,3.15" /><path
       id="path330"
       style="fill:#000000;fill-opacity:1;fill-rule:nonzero;stroke:none"
       d="m 83.342373,669.18559 c -1.739,0 -3.15,-1.411 -3.15,-3.15 0,-1.739 1.411,-3.15 3.15,-3.15 1.739,0 3.15,1.411 3.15,3.15 0,1.739 -1.411,3.15 -3.15,3.15" /><path
       id="path332"
       style="fill:#000000;fill-opacity:1;fill-rule:nonzero;stroke:none"
       d="m 81.642373,675.78559 c -1.739,0 -3.15,-1.411 -3.15,-3.15 0,-1.739 1.411,-3.15 3.15,-3.15 1.739,0 3.15,1.411 3.15,3.15 0,1.739 -1.411,3.15 -3.15,3.15" /><path
       id="path334"
       style="fill:#000000;fill-opacity:1;fill-rule:nonzero;stroke:none"
       d="m 80.042373,682.28559 c -1.739,0 -3.15,-1.411 -3.15,-3.15 0,-1.739 1.411,-3.15 3.15,-3.15 1.739,0 3.15,1.411 3.15,3.15 0,1.739 -1.411,3.15 -3.15,3.15" /><path
       id="path336"
       style="fill:none;stroke:#000000;stroke-width:1;stroke-linecap:butt;stroke-linejoin:miter;stroke-miterlimit:10;stroke-opacity:1;stroke-dasharray:none"
       d="m 73.542373,156.73559 342.799997,0 0,522.4 -342.799997,0 0,-522.4 z" /><flowRoot
       xml:space="preserve"
       id="flowRoot3255-7"
       style="font-size:40px;font-style:normal;font-weight:normal;fill:#000000;fill-opacity:1;stroke:none;font-family:Bitstream Vera Sans"
       transform="matrix(0,0.8,0.8,0,-445.80286,-623.57053)"><flowRegion
         id="flowRegion3257-6"><rect
           id="rect3259-1"
           width="81.848518"
           height="51.864407"
           x="863.05615"
           y="653.97778" /></flowRegion><flowPara
         id="flowPara3261-5"
         style="font-style:italic;font-variant:normal;font-weight:normal;font-stretch:normal;font-family:Times New Roman;-inkscape-font-specification:'Times New Roman, Italic'">E</flowPara></flowRoot><flowRoot
       xml:space="preserve"
       id="flowRoot3255"
       style="font-size:40px;font-style:normal;font-weight:normal;fill:#000000;fill-opacity:1;stroke:none;font-family:Bitstream Vera Sans"
       transform="matrix(0,0.8,0.8,0,-69.019806,-53.652729)"><flowRegion
         id="flowRegion3257"><rect
           id="rect3259"
           width="81.848518"
           height="51.864407"
           x="863.05615"
           y="653.97778" /></flowRegion><flowPara
         id="flowPara3261"
         style="font-style:italic;font-variant:normal;font-weight:normal;font-stretch:normal;font-family:Times New Roman;-inkscape-font-specification:'Times New Roman, Italic'">T</flowPara></flowRoot></g></svg>