<?xml version="1.0" encoding="UTF-8" standalone="no"?>
<!-- Created with Inkscape (http://www.inkscape.org/) -->

<svg
   xmlns:dc="http://purl.org/dc/elements/1.1/"
   xmlns:cc="http://creativecommons.org/ns#"
   xmlns:rdf="http://www.w3.org/1999/02/22-rdf-syntax-ns#"
   xmlns:svg="http://www.w3.org/2000/svg"
   xmlns="http://www.w3.org/2000/svg"
   xmlns:sodipodi="http://sodipodi.sourceforge.net/DTD/sodipodi-0.dtd"
   xmlns:inkscape="http://www.inkscape.org/namespaces/inkscape"
   id="svg2"
   version="1.1"
   inkscape:version="0.47 r22583"
   width="990"
   height="765"
   xml:space="preserve"
   sodipodi:docname="Ksi1 in T.eps"><metadata
     id="metadata8"><rdf:RDF><cc:Work
         rdf:about=""><dc:format>image/svg+xml</dc:format><dc:type
           rdf:resource="http://purl.org/dc/dcmitype/StillImage" /><dc:title></dc:title></cc:Work></rdf:RDF></metadata><defs
     id="defs6"><inkscape:perspective
       sodipodi:type="inkscape:persp3d"
       inkscape:vp_x="0 : 0.5 : 1"
       inkscape:vp_y="0 : 1000 : 0"
       inkscape:vp_z="1 : 0.5 : 1"
       inkscape:persp3d-origin="0.5 : 0.33333333 : 1"
       id="perspective10" /><inkscape:perspective
       id="perspective2973"
       inkscape:persp3d-origin="0.5 : 0.33333333 : 1"
       inkscape:vp_z="1 : 0.5 : 1"
       inkscape:vp_y="0 : 1000 : 0"
       inkscape:vp_x="0 : 0.5 : 1"
       sodipodi:type="inkscape:persp3d" /><inkscape:perspective
       id="perspective2989"
       inkscape:persp3d-origin="0.5 : 0.33333333 : 1"
       inkscape:vp_z="1 : 0.5 : 1"
       inkscape:vp_y="0 : 1000 : 0"
       inkscape:vp_x="0 : 0.5 : 1"
       sodipodi:type="inkscape:persp3d" /></defs><sodipodi:namedview
     pagecolor="#ffffff"
     bordercolor="#666666"
     borderopacity="1"
     objecttolerance="10"
     gridtolerance="10"
     guidetolerance="10"
     inkscape:pageopacity="0"
     inkscape:pageshadow="2"
     inkscape:window-width="1366"
     inkscape:window-height="695"
     id="namedview4"
     showgrid="false"
     inkscape:zoom="0.43628026"
     inkscape:cx="542.75028"
     inkscape:cy="418.0382"
     inkscape:window-x="0"
     inkscape:window-y="24"
     inkscape:window-maximized="1"
     inkscape:current-layer="g12" /><g
     id="g12"
     inkscape:groupmode="layer"
     inkscape:label="ink_ext_XXXXXX"
     transform="matrix(0,1.25,1.25,0,0,0)"><path
       id="path16"
       style="fill:none;stroke:#000000;stroke-width:1;stroke-linecap:butt;stroke-linejoin:miter;stroke-miterlimit:10;stroke-opacity:1;stroke-dasharray:none"
       d="m 470.8,193 0,6.3 m 0,531.7 0,-6.3" /><g
       id="g18"><text
         id="text20"
         transform="matrix(0,1,1,0,479.47,164.4)"><tspan
           id="tspan22"
           y="0"
           x="0"
           style="font-size:26px;font-variant:normal;font-weight:normal;writing-mode:lr-tb;fill:#000000;fill-opacity:1;fill-rule:nonzero;stroke:none;font-family:Times New Roman;-inkscape-font-specification:Times-Roman">0</tspan></text>
</g><path
       id="path24"
       style="fill:none;stroke:#000000;stroke-width:1;stroke-linecap:butt;stroke-linejoin:miter;stroke-miterlimit:10;stroke-opacity:1;stroke-dasharray:none"
       d="m 427.9,193 0,6.3 m 0,531.7 0,-6.3" /><g
       id="g26"><text
         id="text28"
         transform="matrix(0,1,1,0,436.57,164.4)"><tspan
           id="tspan30"
           y="0"
           x="0"
           style="font-size:26px;font-variant:normal;font-weight:normal;writing-mode:lr-tb;fill:#000000;fill-opacity:1;fill-rule:nonzero;stroke:none;font-family:Times New Roman;-inkscape-font-specification:Times-Roman">5</tspan></text>
</g><path
       id="path32"
       style="fill:none;stroke:#000000;stroke-width:1;stroke-linecap:butt;stroke-linejoin:miter;stroke-miterlimit:10;stroke-opacity:1;stroke-dasharray:none"
       d="m 385.1,193 0,6.3 m 0,531.7 0,-6.3" /><g
       id="g34"><text
         id="text36"
         transform="matrix(0,1,1,0,393.77,151.4)"><tspan
           id="tspan38"
           sodipodi:role="line"
           y="0"
           x="0 13"
           style="font-size:26px;font-variant:normal;font-weight:normal;writing-mode:lr-tb;fill:#000000;fill-opacity:1;fill-rule:nonzero;stroke:none;font-family:Times New Roman;-inkscape-font-specification:Times-Roman">10</tspan></text>
</g><path
       id="path40"
       style="fill:none;stroke:#000000;stroke-width:1;stroke-linecap:butt;stroke-linejoin:miter;stroke-miterlimit:10;stroke-opacity:1;stroke-dasharray:none"
       d="m 342.2,193 0,6.3 m 0,531.7 0,-6.3" /><g
       id="g42"><text
         id="text44"
         transform="matrix(0,1,1,0,350.87,151.4)"><tspan
           id="tspan46"
           sodipodi:role="line"
           y="0"
           x="0 13"
           style="font-size:26px;font-variant:normal;font-weight:normal;writing-mode:lr-tb;fill:#000000;fill-opacity:1;fill-rule:nonzero;stroke:none;font-family:Times New Roman;-inkscape-font-specification:Times-Roman">15</tspan></text>
</g><path
       id="path48"
       style="fill:none;stroke:#000000;stroke-width:1;stroke-linecap:butt;stroke-linejoin:miter;stroke-miterlimit:10;stroke-opacity:1;stroke-dasharray:none"
       d="m 299.4,193 0,6.3 m 0,531.7 0,-6.3" /><g
       id="g50"><text
         id="text52"
         transform="matrix(0,1,1,0,308.07,151.4)"><tspan
           id="tspan54"
           sodipodi:role="line"
           y="0"
           x="0 13"
           style="font-size:26px;font-variant:normal;font-weight:normal;writing-mode:lr-tb;fill:#000000;fill-opacity:1;fill-rule:nonzero;stroke:none;font-family:Times New Roman;-inkscape-font-specification:Times-Roman">20</tspan></text>
</g><path
       id="path56"
       style="fill:none;stroke:#000000;stroke-width:1;stroke-linecap:butt;stroke-linejoin:miter;stroke-miterlimit:10;stroke-opacity:1;stroke-dasharray:none"
       d="m 256.5,193 0,6.3 m 0,531.7 0,-6.3" /><g
       id="g58"><text
         id="text60"
         transform="matrix(0,1,1,0,265.17,151.4)"><tspan
           id="tspan62"
           sodipodi:role="line"
           y="0"
           x="0 13"
           style="font-size:26px;font-variant:normal;font-weight:normal;writing-mode:lr-tb;fill:#000000;fill-opacity:1;fill-rule:nonzero;stroke:none;font-family:Times New Roman;-inkscape-font-specification:Times-Roman">25</tspan></text>
</g><path
       id="path64"
       style="fill:none;stroke:#000000;stroke-width:1;stroke-linecap:butt;stroke-linejoin:miter;stroke-miterlimit:10;stroke-opacity:1;stroke-dasharray:none"
       d="m 213.7,193 0,6.3 m 0,531.7 0,-6.3" /><g
       id="g66"><text
         id="text68"
         transform="matrix(0,1,1,0,222.37,151.4)"><tspan
           id="tspan70"
           sodipodi:role="line"
           y="0"
           x="0 13"
           style="font-size:26px;font-variant:normal;font-weight:normal;writing-mode:lr-tb;fill:#000000;fill-opacity:1;fill-rule:nonzero;stroke:none;font-family:Times New Roman;-inkscape-font-specification:Times-Roman">30</tspan></text>
</g><path
       id="path72"
       style="fill:none;stroke:#000000;stroke-width:1;stroke-linecap:butt;stroke-linejoin:miter;stroke-miterlimit:10;stroke-opacity:1;stroke-dasharray:none"
       d="m 170.8,193 0,6.3 m 0,531.7 0,-6.3" /><g
       id="g74"><text
         id="text76"
         transform="matrix(0,1,1,0,179.47,151.4)"><tspan
           id="tspan78"
           sodipodi:role="line"
           y="0"
           x="0 13"
           style="font-size:26px;font-variant:normal;font-weight:normal;writing-mode:lr-tb;fill:#000000;fill-opacity:1;fill-rule:nonzero;stroke:none;font-family:Times New Roman;-inkscape-font-specification:Times-Roman">35</tspan></text>
</g><path
       id="path80"
       style="fill:none;stroke:#000000;stroke-width:1;stroke-linecap:butt;stroke-linejoin:miter;stroke-miterlimit:10;stroke-opacity:1;stroke-dasharray:none"
       d="m 128,193 0,6.3 m 0,531.7 0,-6.3" /><g
       id="g82"><text
         id="text84"
         transform="matrix(0,1,1,0,136.67,151.4)"><tspan
           id="tspan86"
           sodipodi:role="line"
           y="0"
           x="0 13"
           style="font-size:26px;font-variant:normal;font-weight:normal;writing-mode:lr-tb;fill:#000000;fill-opacity:1;fill-rule:nonzero;stroke:none;font-family:Times New Roman;-inkscape-font-specification:Times-Roman">40</tspan></text>
</g><path
       id="path88"
       style="fill:none;stroke:#000000;stroke-width:1;stroke-linecap:butt;stroke-linejoin:miter;stroke-miterlimit:10;stroke-opacity:1;stroke-dasharray:none"
       d="m 470.8,193 -6.3,0 m -336.5,0 6.3,0" /><g
       id="g90"><text
         id="text92"
         transform="matrix(0,1,1,0,505.47,180)"><tspan
           id="tspan94"
           sodipodi:role="line"
           y="0"
           x="0 13 19.5"
           style="font-size:26px;font-variant:normal;font-weight:normal;writing-mode:lr-tb;fill:#000000;fill-opacity:1;fill-rule:nonzero;stroke:none;font-family:Times New Roman;-inkscape-font-specification:Times-Roman">1.2</tspan></text>
</g><path
       id="path96"
       style="fill:none;stroke:#000000;stroke-width:1;stroke-linecap:butt;stroke-linejoin:miter;stroke-miterlimit:10;stroke-opacity:1;stroke-dasharray:none"
       d="m 470.8,282.7 -6.3,0 m -336.5,0 6.3,0" /><g
       id="g98"><text
         id="text100"
         transform="matrix(0,1,1,0,505.47,269.7)"><tspan
           id="tspan102"
           sodipodi:role="line"
           y="0"
           x="0 13 19.5"
           style="font-size:26px;font-variant:normal;font-weight:normal;writing-mode:lr-tb;fill:#000000;fill-opacity:1;fill-rule:nonzero;stroke:none;font-family:Times New Roman;-inkscape-font-specification:Times-Roman">1.4</tspan></text>
</g><path
       id="path104"
       style="fill:none;stroke:#000000;stroke-width:1;stroke-linecap:butt;stroke-linejoin:miter;stroke-miterlimit:10;stroke-opacity:1;stroke-dasharray:none"
       d="m 470.8,372.3 -6.3,0 m -336.5,0 6.3,0" /><g
       id="g106"><text
         id="text108"
         transform="matrix(0,1,1,0,505.47,359.3)"><tspan
           id="tspan110"
           sodipodi:role="line"
           y="0"
           x="0 13 19.5"
           style="font-size:26px;font-variant:normal;font-weight:normal;writing-mode:lr-tb;fill:#000000;fill-opacity:1;fill-rule:nonzero;stroke:none;font-family:Times New Roman;-inkscape-font-specification:Times-Roman">1.6</tspan></text>
</g><path
       id="path112"
       style="fill:none;stroke:#000000;stroke-width:1;stroke-linecap:butt;stroke-linejoin:miter;stroke-miterlimit:10;stroke-opacity:1;stroke-dasharray:none"
       d="m 470.8,462 -6.3,0 m -336.5,0 6.3,0" /><g
       id="g114"><text
         id="text116"
         transform="matrix(0,1,1,0,505.47,449)"><tspan
           id="tspan118"
           sodipodi:role="line"
           y="0"
           x="0 13 19.5"
           style="font-size:26px;font-variant:normal;font-weight:normal;writing-mode:lr-tb;fill:#000000;fill-opacity:1;fill-rule:nonzero;stroke:none;font-family:Times New Roman;-inkscape-font-specification:Times-Roman">1.8</tspan></text>
</g><path
       id="path120"
       style="fill:none;stroke:#000000;stroke-width:1;stroke-linecap:butt;stroke-linejoin:miter;stroke-miterlimit:10;stroke-opacity:1;stroke-dasharray:none"
       d="m 470.8,551.7 -6.3,0 m -336.5,0 6.3,0" /><g
       id="g122"><text
         id="text124"
         transform="matrix(0,1,1,0,505.47,548.45)"><tspan
           id="tspan126"
           y="0"
           x="0"
           style="font-size:26px;font-variant:normal;font-weight:normal;writing-mode:lr-tb;fill:#000000;fill-opacity:1;fill-rule:nonzero;stroke:none;font-family:Times New Roman;-inkscape-font-specification:Times-Roman">2</tspan></text>
</g><path
       id="path128"
       style="fill:none;stroke:#000000;stroke-width:1;stroke-linecap:butt;stroke-linejoin:miter;stroke-miterlimit:10;stroke-opacity:1;stroke-dasharray:none"
       d="m 470.8,641.3 -6.3,0 m -336.5,0 6.3,0" /><g
       id="g130"><text
         id="text132"
         transform="matrix(0,1,1,0,505.47,628.3)"><tspan
           id="tspan134"
           sodipodi:role="line"
           y="0"
           x="0 13 19.5"
           style="font-size:26px;font-variant:normal;font-weight:normal;writing-mode:lr-tb;fill:#000000;fill-opacity:1;fill-rule:nonzero;stroke:none;font-family:Times New Roman;-inkscape-font-specification:Times-Roman">2.2</tspan></text>
</g><path
       id="path136"
       style="fill:none;stroke:#000000;stroke-width:1;stroke-linecap:butt;stroke-linejoin:miter;stroke-miterlimit:10;stroke-opacity:1;stroke-dasharray:none"
       d="m 470.8,731 -6.3,0 m -336.5,0 6.3,0" /><g
       id="g138"><text
         id="text140"
         transform="matrix(0,1,1,0,505.47,718)"><tspan
           id="tspan142"
           sodipodi:role="line"
           y="0"
           x="0 13 19.5"
           style="font-size:26px;font-variant:normal;font-weight:normal;writing-mode:lr-tb;fill:#000000;fill-opacity:1;fill-rule:nonzero;stroke:none;font-family:Times New Roman;-inkscape-font-specification:Times-Roman">2.4</tspan></text>
</g><path
       id="path144"
       style="fill:none;stroke:#000000;stroke-width:1;stroke-linecap:butt;stroke-linejoin:miter;stroke-miterlimit:10;stroke-opacity:1;stroke-dasharray:none"
       d="m 128,193 342.8,0 0,538 -342.8,0 0,-538 z" /><path
       id="path158"
       style="fill:#000000;fill-opacity:1;fill-rule:nonzero;stroke:none"
       d="m 470.6,196.15 c -1.739,0 -3.15,-1.411 -3.15,-3.15 0,-1.739 1.411,-3.15 3.15,-3.15 1.739,0 3.15,1.411 3.15,3.15 0,1.739 -1.411,3.15 -3.15,3.15" /><path
       id="path160"
       style="fill:#000000;fill-opacity:1;fill-rule:nonzero;stroke:none"
       d="m 470.6,202.85 c -1.739,0 -3.15,-1.411 -3.15,-3.15 0,-1.739 1.411,-3.15 3.15,-3.15 1.739,0 3.15,1.411 3.15,3.15 0,1.739 -1.411,3.15 -3.15,3.15" /><path
       id="path162"
       style="fill:#000000;fill-opacity:1;fill-rule:nonzero;stroke:none"
       d="m 470.5,209.65 c -1.739,0 -3.15,-1.411 -3.15,-3.15 0,-1.739 1.411,-3.15 3.15,-3.15 1.739,0 3.15,1.411 3.15,3.15 0,1.739 -1.411,3.15 -3.15,3.15" /><path
       id="path164"
       style="fill:#000000;fill-opacity:1;fill-rule:nonzero;stroke:none"
       d="m 470.5,216.35 c -1.739,0 -3.15,-1.411 -3.15,-3.15 0,-1.739 1.411,-3.15 3.15,-3.15 1.739,0 3.15,1.411 3.15,3.15 0,1.739 -1.411,3.15 -3.15,3.15" /><path
       id="path166"
       style="fill:#000000;fill-opacity:1;fill-rule:nonzero;stroke:none"
       d="m 470.5,223.05 c -1.739,0 -3.15,-1.411 -3.15,-3.15 0,-1.739 1.411,-3.15 3.15,-3.15 1.739,0 3.15,1.411 3.15,3.15 0,1.739 -1.411,3.15 -3.15,3.15" /><path
       id="path168"
       style="fill:#000000;fill-opacity:1;fill-rule:nonzero;stroke:none"
       d="m 470.4,229.75 c -1.739,0 -3.15,-1.411 -3.15,-3.15 0,-1.739 1.411,-3.15 3.15,-3.15 1.739,0 3.15,1.411 3.15,3.15 0,1.739 -1.411,3.15 -3.15,3.15" /><path
       id="path170"
       style="fill:#000000;fill-opacity:1;fill-rule:nonzero;stroke:none"
       d="m 470.4,236.55 c -1.739,0 -3.15,-1.411 -3.15,-3.15 0,-1.739 1.411,-3.15 3.15,-3.15 1.739,0 3.15,1.411 3.15,3.15 0,1.739 -1.411,3.15 -3.15,3.15" /><path
       id="path172"
       style="fill:#000000;fill-opacity:1;fill-rule:nonzero;stroke:none"
       d="m 470.4,243.25 c -1.739,0 -3.15,-1.411 -3.15,-3.15 0,-1.739 1.411,-3.15 3.15,-3.15 1.739,0 3.15,1.411 3.15,3.15 0,1.739 -1.411,3.15 -3.15,3.15" /><path
       id="path174"
       style="fill:#000000;fill-opacity:1;fill-rule:nonzero;stroke:none"
       d="m 470.3,249.95 c -1.739,0 -3.15,-1.411 -3.15,-3.15 0,-1.739 1.411,-3.15 3.15,-3.15 1.739,0 3.15,1.411 3.15,3.15 0,1.739 -1.411,3.15 -3.15,3.15" /><path
       id="path176"
       style="fill:#000000;fill-opacity:1;fill-rule:nonzero;stroke:none"
       d="m 470.3,256.65 c -1.739,0 -3.15,-1.411 -3.15,-3.15 0,-1.739 1.411,-3.15 3.15,-3.15 1.739,0 3.15,1.411 3.15,3.15 0,1.739 -1.411,3.15 -3.15,3.15" /><path
       id="path178"
       style="fill:#000000;fill-opacity:1;fill-rule:nonzero;stroke:none"
       d="m 470.2,263.45 c -1.739,0 -3.15,-1.411 -3.15,-3.15 0,-1.739 1.411,-3.15 3.15,-3.15 1.739,0 3.15,1.411 3.15,3.15 0,1.739 -1.411,3.15 -3.15,3.15" /><path
       id="path180"
       style="fill:#000000;fill-opacity:1;fill-rule:nonzero;stroke:none"
       d="m 470.2,270.15 c -1.739,0 -3.15,-1.411 -3.15,-3.15 0,-1.739 1.411,-3.15 3.15,-3.15 1.739,0 3.15,1.411 3.15,3.15 0,1.739 -1.411,3.15 -3.15,3.15" /><path
       id="path182"
       style="fill:#000000;fill-opacity:1;fill-rule:nonzero;stroke:none"
       d="m 470.1,276.85 c -1.739,0 -3.15,-1.411 -3.15,-3.15 0,-1.739 1.411,-3.15 3.15,-3.15 1.739,0 3.15,1.411 3.15,3.15 0,1.739 -1.411,3.15 -3.15,3.15" /><path
       id="path184"
       style="fill:#000000;fill-opacity:1;fill-rule:nonzero;stroke:none"
       d="m 470,283.55 c -1.739,0 -3.15,-1.411 -3.15,-3.15 0,-1.739 1.411,-3.15 3.15,-3.15 1.739,0 3.15,1.411 3.15,3.15 0,1.739 -1.411,3.15 -3.15,3.15" /><path
       id="path186"
       style="fill:#000000;fill-opacity:1;fill-rule:nonzero;stroke:none"
       d="m 469.9,290.35 c -1.739,0 -3.15,-1.411 -3.15,-3.15 0,-1.739 1.411,-3.15 3.15,-3.15 1.739,0 3.15,1.411 3.15,3.15 0,1.739 -1.411,3.15 -3.15,3.15" /><path
       id="path188"
       style="fill:#000000;fill-opacity:1;fill-rule:nonzero;stroke:none"
       d="m 469.9,297.05 c -1.739,0 -3.15,-1.411 -3.15,-3.15 0,-1.739 1.411,-3.15 3.15,-3.15 1.739,0 3.15,1.411 3.15,3.15 0,1.739 -1.411,3.15 -3.15,3.15" /><path
       id="path190"
       style="fill:#000000;fill-opacity:1;fill-rule:nonzero;stroke:none"
       d="m 469.8,303.75 c -1.739,0 -3.15,-1.411 -3.15,-3.15 0,-1.739 1.411,-3.15 3.15,-3.15 1.739,0 3.15,1.411 3.15,3.15 0,1.739 -1.411,3.15 -3.15,3.15" /><path
       id="path192"
       style="fill:#000000;fill-opacity:1;fill-rule:nonzero;stroke:none"
       d="m 469.6,310.45 c -1.739,0 -3.15,-1.411 -3.15,-3.15 0,-1.739 1.411,-3.15 3.15,-3.15 1.739,0 3.15,1.411 3.15,3.15 0,1.739 -1.411,3.15 -3.15,3.15" /><path
       id="path194"
       style="fill:#000000;fill-opacity:1;fill-rule:nonzero;stroke:none"
       d="m 469.5,317.25 c -1.739,0 -3.15,-1.411 -3.15,-3.15 0,-1.739 1.411,-3.15 3.15,-3.15 1.739,0 3.15,1.411 3.15,3.15 0,1.739 -1.411,3.15 -3.15,3.15" /><path
       id="path196"
       style="fill:#000000;fill-opacity:1;fill-rule:nonzero;stroke:none"
       d="m 469.4,323.95 c -1.739,0 -3.15,-1.411 -3.15,-3.15 0,-1.739 1.411,-3.15 3.15,-3.15 1.739,0 3.15,1.411 3.15,3.15 0,1.739 -1.411,3.15 -3.15,3.15" /><path
       id="path198"
       style="fill:#000000;fill-opacity:1;fill-rule:nonzero;stroke:none"
       d="m 469.2,330.65 c -1.739,0 -3.15,-1.411 -3.15,-3.15 0,-1.739 1.411,-3.15 3.15,-3.15 1.739,0 3.15,1.411 3.15,3.15 0,1.739 -1.411,3.15 -3.15,3.15" /><path
       id="path200"
       style="fill:#000000;fill-opacity:1;fill-rule:nonzero;stroke:none"
       d="m 469.1,337.35 c -1.739,0 -3.15,-1.411 -3.15,-3.15 0,-1.739 1.411,-3.15 3.15,-3.15 1.739,0 3.15,1.411 3.15,3.15 0,1.739 -1.411,3.15 -3.15,3.15" /><path
       id="path202"
       style="fill:#000000;fill-opacity:1;fill-rule:nonzero;stroke:none"
       d="m 468.9,344.15 c -1.739,0 -3.15,-1.411 -3.15,-3.15 0,-1.739 1.411,-3.15 3.15,-3.15 1.739,0 3.15,1.411 3.15,3.15 0,1.739 -1.411,3.15 -3.15,3.15" /><path
       id="path204"
       style="fill:#000000;fill-opacity:1;fill-rule:nonzero;stroke:none"
       d="m 468.7,350.85 c -1.739,0 -3.15,-1.411 -3.15,-3.15 0,-1.739 1.411,-3.15 3.15,-3.15 1.739,0 3.15,1.411 3.15,3.15 0,1.739 -1.411,3.15 -3.15,3.15" /><path
       id="path206"
       style="fill:#000000;fill-opacity:1;fill-rule:nonzero;stroke:none"
       d="m 468.4,357.55 c -1.739,0 -3.15,-1.411 -3.15,-3.15 0,-1.739 1.411,-3.15 3.15,-3.15 1.739,0 3.15,1.411 3.15,3.15 0,1.739 -1.411,3.15 -3.15,3.15" /><path
       id="path208"
       style="fill:#000000;fill-opacity:1;fill-rule:nonzero;stroke:none"
       d="m 468.1,364.25 c -1.739,0 -3.15,-1.411 -3.15,-3.15 0,-1.739 1.411,-3.15 3.15,-3.15 1.739,0 3.15,1.411 3.15,3.15 0,1.739 -1.411,3.15 -3.15,3.15" /><path
       id="path210"
       style="fill:#000000;fill-opacity:1;fill-rule:nonzero;stroke:none"
       d="m 467.8,371.05 c -1.739,0 -3.15,-1.411 -3.15,-3.15 0,-1.739 1.411,-3.15 3.15,-3.15 1.739,0 3.15,1.411 3.15,3.15 0,1.739 -1.411,3.15 -3.15,3.15" /><path
       id="path212"
       style="fill:#000000;fill-opacity:1;fill-rule:nonzero;stroke:none"
       d="m 467.4,377.75 c -1.739,0 -3.15,-1.411 -3.15,-3.15 0,-1.739 1.411,-3.15 3.15,-3.15 1.739,0 3.15,1.411 3.15,3.15 0,1.739 -1.411,3.15 -3.15,3.15" /><path
       id="path214"
       style="fill:#000000;fill-opacity:1;fill-rule:nonzero;stroke:none"
       d="m 467.1,384.45 c -1.739,0 -3.15,-1.411 -3.15,-3.15 0,-1.739 1.411,-3.15 3.15,-3.15 1.739,0 3.15,1.411 3.15,3.15 0,1.739 -1.411,3.15 -3.15,3.15" /><path
       id="path216"
       style="fill:#000000;fill-opacity:1;fill-rule:nonzero;stroke:none"
       d="m 466.5,391.15 c -1.739,0 -3.15,-1.411 -3.15,-3.15 0,-1.739 1.411,-3.15 3.15,-3.15 1.739,0 3.15,1.411 3.15,3.15 0,1.739 -1.411,3.15 -3.15,3.15" /><path
       id="path218"
       style="fill:#000000;fill-opacity:1;fill-rule:nonzero;stroke:none"
       d="m 466,397.95 c -1.739,0 -3.15,-1.411 -3.15,-3.15 0,-1.739 1.411,-3.15 3.15,-3.15 1.739,0 3.15,1.411 3.15,3.15 0,1.739 -1.411,3.15 -3.15,3.15" /><path
       id="path220"
       style="fill:#000000;fill-opacity:1;fill-rule:nonzero;stroke:none"
       d="m 465.3,404.65 c -1.739,0 -3.15,-1.411 -3.15,-3.15 0,-1.739 1.411,-3.15 3.15,-3.15 1.739,0 3.15,1.411 3.15,3.15 0,1.739 -1.411,3.15 -3.15,3.15" /><path
       id="path222"
       style="fill:#000000;fill-opacity:1;fill-rule:nonzero;stroke:none"
       d="m 464.5,411.35 c -1.739,0 -3.15,-1.411 -3.15,-3.15 0,-1.739 1.411,-3.15 3.15,-3.15 1.739,0 3.15,1.411 3.15,3.15 0,1.739 -1.411,3.15 -3.15,3.15" /><path
       id="path224"
       style="fill:#000000;fill-opacity:1;fill-rule:nonzero;stroke:none"
       d="m 463.5,418.05 c -1.739,0 -3.15,-1.411 -3.15,-3.15 0,-1.739 1.411,-3.15 3.15,-3.15 1.739,0 3.15,1.411 3.15,3.15 0,1.739 -1.411,3.15 -3.15,3.15" /><path
       id="path226"
       style="fill:#000000;fill-opacity:1;fill-rule:nonzero;stroke:none"
       d="m 462.4,424.85 c -1.739,0 -3.15,-1.411 -3.15,-3.15 0,-1.739 1.411,-3.15 3.15,-3.15 1.739,0 3.15,1.411 3.15,3.15 0,1.739 -1.411,3.15 -3.15,3.15" /><path
       id="path228"
       style="fill:#000000;fill-opacity:1;fill-rule:nonzero;stroke:none"
       d="m 460.9,431.55 c -1.739,0 -3.15,-1.411 -3.15,-3.15 0,-1.739 1.411,-3.15 3.15,-3.15 1.739,0 3.15,1.411 3.15,3.15 0,1.739 -1.411,3.15 -3.15,3.15" /><path
       id="path230"
       style="fill:#000000;fill-opacity:1;fill-rule:nonzero;stroke:none"
       d="m 459,438.25 c -1.739,0 -3.15,-1.411 -3.15,-3.15 0,-1.739 1.411,-3.15 3.15,-3.15 1.739,0 3.15,1.411 3.15,3.15 0,1.739 -1.411,3.15 -3.15,3.15" /><path
       id="path232"
       style="fill:#000000;fill-opacity:1;fill-rule:nonzero;stroke:none"
       d="m 457.1,444.95 c -1.739,0 -3.15,-1.411 -3.15,-3.15 0,-1.739 1.411,-3.15 3.15,-3.15 1.739,0 3.15,1.411 3.15,3.15 0,1.739 -1.411,3.15 -3.15,3.15" /><path
       id="path234"
       style="fill:#000000;fill-opacity:1;fill-rule:nonzero;stroke:none"
       d="m 453.5,451.75 c -1.739,0 -3.15,-1.411 -3.15,-3.15 0,-1.739 1.411,-3.15 3.15,-3.15 1.739,0 3.15,1.411 3.15,3.15 0,1.739 -1.411,3.15 -3.15,3.15" /><path
       id="path236"
       style="fill:#000000;fill-opacity:1;fill-rule:nonzero;stroke:none"
       d="m 449.5,458.45 c -1.739,0 -3.15,-1.411 -3.15,-3.15 0,-1.739 1.411,-3.15 3.15,-3.15 1.739,0 3.15,1.411 3.15,3.15 0,1.739 -1.411,3.15 -3.15,3.15" /><path
       id="path238"
       style="fill:#000000;fill-opacity:1;fill-rule:nonzero;stroke:none"
       d="m 443.8,465.15 c -1.739,0 -3.15,-1.411 -3.15,-3.15 0,-1.739 1.411,-3.15 3.15,-3.15 1.739,0 3.15,1.411 3.15,3.15 0,1.739 -1.411,3.15 -3.15,3.15" /><path
       id="path240"
       style="fill:#000000;fill-opacity:1;fill-rule:nonzero;stroke:none"
       d="m 435.2,471.85 c -1.739,0 -3.15,-1.411 -3.15,-3.15 0,-1.739 1.411,-3.15 3.15,-3.15 1.739,0 3.15,1.411 3.15,3.15 0,1.739 -1.411,3.15 -3.15,3.15" /><path
       id="path242"
       style="fill:#000000;fill-opacity:1;fill-rule:nonzero;stroke:none"
       d="m 421,478.65 c -1.739,0 -3.15,-1.411 -3.15,-3.15 0,-1.739 1.411,-3.15 3.15,-3.15 1.739,0 3.15,1.411 3.15,3.15 0,1.739 -1.411,3.15 -3.15,3.15" /><path
       id="path244"
       style="fill:#000000;fill-opacity:1;fill-rule:nonzero;stroke:none"
       d="m 397,485.35 c -1.739,0 -3.15,-1.411 -3.15,-3.15 0,-1.739 1.411,-3.15 3.15,-3.15 1.739,0 3.15,1.411 3.15,3.15 0,1.739 -1.411,3.15 -3.15,3.15" /><path
       id="path246"
       style="fill:#000000;fill-opacity:1;fill-rule:nonzero;stroke:none"
       d="m 338.9,492.05 c -1.739,0 -3.15,-1.411 -3.15,-3.15 0,-1.739 1.411,-3.15 3.15,-3.15 1.739,0 3.15,1.411 3.15,3.15 0,1.739 -1.411,3.15 -3.15,3.15" /><path
       id="path248"
       style="fill:#000000;fill-opacity:1;fill-rule:nonzero;stroke:none"
       d="m 269.5,498.75 c -1.739,0 -3.15,-1.411 -3.15,-3.15 0,-1.739 1.411,-3.15 3.15,-3.15 1.739,0 3.15,1.411 3.15,3.15 0,1.739 -1.411,3.15 -3.15,3.15" /><path
       id="path250"
       style="fill:#000000;fill-opacity:1;fill-rule:nonzero;stroke:none"
       d="m 173.6,505.55 c -1.739,0 -3.15,-1.411 -3.15,-3.15 0,-1.739 1.411,-3.15 3.15,-3.15 1.739,0 3.15,1.411 3.15,3.15 0,1.739 -1.411,3.15 -3.15,3.15" /><path
       id="path252"
       style="fill:#000000;fill-opacity:1;fill-rule:nonzero;stroke:none"
       d="m 138.8,512.25 c -1.739,0 -3.15,-1.411 -3.15,-3.15 0,-1.739 1.411,-3.15 3.15,-3.15 1.739,0 3.15,1.411 3.15,3.15 0,1.739 -1.411,3.15 -3.15,3.15" /><path
       id="path254"
       style="fill:#000000;fill-opacity:1;fill-rule:nonzero;stroke:none"
       d="m 147.7,518.95 c -1.739,0 -3.15,-1.411 -3.15,-3.15 0,-1.739 1.411,-3.15 3.15,-3.15 1.739,0 3.15,1.411 3.15,3.15 0,1.739 -1.411,3.15 -3.15,3.15" /><path
       id="path256"
       style="fill:#000000;fill-opacity:1;fill-rule:nonzero;stroke:none"
       d="m 204.5,525.65 c -1.739,0 -3.15,-1.411 -3.15,-3.15 0,-1.739 1.411,-3.15 3.15,-3.15 1.739,0 3.15,1.411 3.15,3.15 0,1.739 -1.411,3.15 -3.15,3.15" /><path
       id="path258"
       style="fill:#000000;fill-opacity:1;fill-rule:nonzero;stroke:none"
       d="m 261.9,532.45 c -1.739,0 -3.15,-1.411 -3.15,-3.15 0,-1.739 1.411,-3.15 3.15,-3.15 1.739,0 3.15,1.411 3.15,3.15 0,1.739 -1.411,3.15 -3.15,3.15" /><path
       id="path260"
       style="fill:#000000;fill-opacity:1;fill-rule:nonzero;stroke:none"
       d="m 298.8,539.15 c -1.739,0 -3.15,-1.411 -3.15,-3.15 0,-1.739 1.411,-3.15 3.15,-3.15 1.739,0 3.15,1.411 3.15,3.15 0,1.739 -1.411,3.15 -3.15,3.15" /><path
       id="path262"
       style="fill:#000000;fill-opacity:1;fill-rule:nonzero;stroke:none"
       d="m 337.8,545.85 c -1.739,0 -3.15,-1.411 -3.15,-3.15 0,-1.739 1.411,-3.15 3.15,-3.15 1.739,0 3.15,1.411 3.15,3.15 0,1.739 -1.411,3.15 -3.15,3.15" /><path
       id="path264"
       style="fill:#000000;fill-opacity:1;fill-rule:nonzero;stroke:none"
       d="m 360.7,552.55 c -1.739,0 -3.15,-1.411 -3.15,-3.15 0,-1.739 1.411,-3.15 3.15,-3.15 1.739,0 3.15,1.411 3.15,3.15 0,1.739 -1.411,3.15 -3.15,3.15" /><path
       id="path266"
       style="fill:#000000;fill-opacity:1;fill-rule:nonzero;stroke:none"
       d="m 377.5,559.35 c -1.739,0 -3.15,-1.411 -3.15,-3.15 0,-1.739 1.411,-3.15 3.15,-3.15 1.739,0 3.15,1.411 3.15,3.15 0,1.739 -1.411,3.15 -3.15,3.15" /><path
       id="path268"
       style="fill:#000000;fill-opacity:1;fill-rule:nonzero;stroke:none"
       d="m 392.5,566.05 c -1.739,0 -3.15,-1.411 -3.15,-3.15 0,-1.739 1.411,-3.15 3.15,-3.15 1.739,0 3.15,1.411 3.15,3.15 0,1.739 -1.411,3.15 -3.15,3.15" /><path
       id="path270"
       style="fill:#000000;fill-opacity:1;fill-rule:nonzero;stroke:none"
       d="m 403.4,572.75 c -1.739,0 -3.15,-1.411 -3.15,-3.15 0,-1.739 1.411,-3.15 3.15,-3.15 1.739,0 3.15,1.411 3.15,3.15 0,1.739 -1.411,3.15 -3.15,3.15" /><path
       id="path272"
       style="fill:#000000;fill-opacity:1;fill-rule:nonzero;stroke:none"
       d="m 410.9,579.45 c -1.739,0 -3.15,-1.411 -3.15,-3.15 0,-1.739 1.411,-3.15 3.15,-3.15 1.739,0 3.15,1.411 3.15,3.15 0,1.739 -1.411,3.15 -3.15,3.15" /><path
       id="path274"
       style="fill:#000000;fill-opacity:1;fill-rule:nonzero;stroke:none"
       d="m 418.1,586.25 c -1.739,0 -3.15,-1.411 -3.15,-3.15 0,-1.739 1.411,-3.15 3.15,-3.15 1.739,0 3.15,1.411 3.15,3.15 0,1.739 -1.411,3.15 -3.15,3.15" /><path
       id="path276"
       style="fill:#000000;fill-opacity:1;fill-rule:nonzero;stroke:none"
       d="m 422.5,592.95 c -1.739,0 -3.15,-1.411 -3.15,-3.15 0,-1.739 1.411,-3.15 3.15,-3.15 1.739,0 3.15,1.411 3.15,3.15 0,1.739 -1.411,3.15 -3.15,3.15" /><path
       id="path278"
       style="fill:#000000;fill-opacity:1;fill-rule:nonzero;stroke:none"
       d="m 427.7,599.65 c -1.739,0 -3.15,-1.411 -3.15,-3.15 0,-1.739 1.411,-3.15 3.15,-3.15 1.739,0 3.15,1.411 3.15,3.15 0,1.739 -1.411,3.15 -3.15,3.15" /><path
       id="path280"
       style="fill:#000000;fill-opacity:1;fill-rule:nonzero;stroke:none"
       d="m 431.1,606.35 c -1.739,0 -3.15,-1.411 -3.15,-3.15 0,-1.739 1.411,-3.15 3.15,-3.15 1.739,0 3.15,1.411 3.15,3.15 0,1.739 -1.411,3.15 -3.15,3.15" /><path
       id="path282"
       style="fill:#000000;fill-opacity:1;fill-rule:nonzero;stroke:none"
       d="m 435.7,613.15 c -1.739,0 -3.15,-1.411 -3.15,-3.15 0,-1.739 1.411,-3.15 3.15,-3.15 1.739,0 3.15,1.411 3.15,3.15 0,1.739 -1.411,3.15 -3.15,3.15" /><path
       id="path284"
       style="fill:#000000;fill-opacity:1;fill-rule:nonzero;stroke:none"
       d="m 438,619.85 c -1.739,0 -3.15,-1.411 -3.15,-3.15 0,-1.739 1.411,-3.15 3.15,-3.15 1.739,0 3.15,1.411 3.15,3.15 0,1.739 -1.411,3.15 -3.15,3.15" /><path
       id="path286"
       style="fill:#000000;fill-opacity:1;fill-rule:nonzero;stroke:none"
       d="m 440.4,626.55 c -1.739,0 -3.15,-1.411 -3.15,-3.15 0,-1.739 1.411,-3.15 3.15,-3.15 1.739,0 3.15,1.411 3.15,3.15 0,1.739 -1.411,3.15 -3.15,3.15" /><path
       id="path288"
       style="fill:#000000;fill-opacity:1;fill-rule:nonzero;stroke:none"
       d="m 442.8,633.25 c -1.739,0 -3.15,-1.411 -3.15,-3.15 0,-1.739 1.411,-3.15 3.15,-3.15 1.739,0 3.15,1.411 3.15,3.15 0,1.739 -1.411,3.15 -3.15,3.15" /><path
       id="path290"
       style="fill:#000000;fill-opacity:1;fill-rule:nonzero;stroke:none"
       d="m 444.8,640.05 c -1.739,0 -3.15,-1.411 -3.15,-3.15 0,-1.739 1.411,-3.15 3.15,-3.15 1.739,0 3.15,1.411 3.15,3.15 0,1.739 -1.411,3.15 -3.15,3.15" /><path
       id="path292"
       style="fill:#000000;fill-opacity:1;fill-rule:nonzero;stroke:none"
       d="m 446,646.75 c -1.739,0 -3.15,-1.411 -3.15,-3.15 0,-1.739 1.411,-3.15 3.15,-3.15 1.739,0 3.15,1.411 3.15,3.15 0,1.739 -1.411,3.15 -3.15,3.15" /><path
       id="path294"
       style="fill:#000000;fill-opacity:1;fill-rule:nonzero;stroke:none"
       d="m 447.7,653.45 c -1.739,0 -3.15,-1.411 -3.15,-3.15 0,-1.739 1.411,-3.15 3.15,-3.15 1.739,0 3.15,1.411 3.15,3.15 0,1.739 -1.411,3.15 -3.15,3.15" /><path
       id="path296"
       style="fill:#000000;fill-opacity:1;fill-rule:nonzero;stroke:none"
       d="m 449.4,660.15 c -1.739,0 -3.15,-1.411 -3.15,-3.15 0,-1.739 1.411,-3.15 3.15,-3.15 1.739,0 3.15,1.411 3.15,3.15 0,1.739 -1.411,3.15 -3.15,3.15" /><path
       id="path298"
       style="fill:#000000;fill-opacity:1;fill-rule:nonzero;stroke:none"
       d="m 450.6,666.95 c -1.739,0 -3.15,-1.411 -3.15,-3.15 0,-1.739 1.411,-3.15 3.15,-3.15 1.739,0 3.15,1.411 3.15,3.15 0,1.739 -1.411,3.15 -3.15,3.15" /><path
       id="path300"
       style="fill:#000000;fill-opacity:1;fill-rule:nonzero;stroke:none"
       d="m 451.1,673.65 c -1.739,0 -3.15,-1.411 -3.15,-3.15 0,-1.739 1.411,-3.15 3.15,-3.15 1.739,0 3.15,1.411 3.15,3.15 0,1.739 -1.411,3.15 -3.15,3.15" /><path
       id="path302"
       style="fill:#000000;fill-opacity:1;fill-rule:nonzero;stroke:none"
       d="m 452.6,680.35 c -1.739,0 -3.15,-1.411 -3.15,-3.15 0,-1.739 1.411,-3.15 3.15,-3.15 1.739,0 3.15,1.411 3.15,3.15 0,1.739 -1.411,3.15 -3.15,3.15" /><path
       id="path304"
       style="fill:#000000;fill-opacity:1;fill-rule:nonzero;stroke:none"
       d="m 453.4,687.05 c -1.739,0 -3.15,-1.411 -3.15,-3.15 0,-1.739 1.411,-3.15 3.15,-3.15 1.739,0 3.15,1.411 3.15,3.15 0,1.739 -1.411,3.15 -3.15,3.15" /><path
       id="path306"
       style="fill:#000000;fill-opacity:1;fill-rule:nonzero;stroke:none"
       d="m 454.1,693.85 c -1.739,0 -3.15,-1.411 -3.15,-3.15 0,-1.739 1.411,-3.15 3.15,-3.15 1.739,0 3.15,1.411 3.15,3.15 0,1.739 -1.411,3.15 -3.15,3.15" /><path
       id="path308"
       style="fill:#000000;fill-opacity:1;fill-rule:nonzero;stroke:none"
       d="m 454.7,700.55 c -1.739,0 -3.15,-1.411 -3.15,-3.15 0,-1.739 1.411,-3.15 3.15,-3.15 1.739,0 3.15,1.411 3.15,3.15 0,1.739 -1.411,3.15 -3.15,3.15" /><path
       id="path310"
       style="fill:#000000;fill-opacity:1;fill-rule:nonzero;stroke:none"
       d="m 455.6,707.25 c -1.739,0 -3.15,-1.411 -3.15,-3.15 0,-1.739 1.411,-3.15 3.15,-3.15 1.739,0 3.15,1.411 3.15,3.15 0,1.739 -1.411,3.15 -3.15,3.15" /><path
       id="path312"
       style="fill:#000000;fill-opacity:1;fill-rule:nonzero;stroke:none"
       d="m 456.1,713.95 c -1.739,0 -3.15,-1.411 -3.15,-3.15 0,-1.739 1.411,-3.15 3.15,-3.15 1.739,0 3.15,1.411 3.15,3.15 0,1.739 -1.411,3.15 -3.15,3.15" /><path
       id="path314"
       style="fill:#000000;fill-opacity:1;fill-rule:nonzero;stroke:none"
       d="m 456.8,720.75 c -1.739,0 -3.15,-1.411 -3.15,-3.15 0,-1.739 1.411,-3.15 3.15,-3.15 1.739,0 3.15,1.411 3.15,3.15 0,1.739 -1.411,3.15 -3.15,3.15" /><path
       id="path316"
       style="fill:#000000;fill-opacity:1;fill-rule:nonzero;stroke:none"
       d="m 457.5,727.45 c -1.739,0 -3.15,-1.411 -3.15,-3.15 0,-1.739 1.411,-3.15 3.15,-3.15 1.739,0 3.15,1.411 3.15,3.15 0,1.739 -1.411,3.15 -3.15,3.15" /><path
       id="path318"
       style="fill:#000000;fill-opacity:1;fill-rule:nonzero;stroke:none"
       d="m 457.8,734.15 c -1.739,0 -3.15,-1.411 -3.15,-3.15 0,-1.739 1.411,-3.15 3.15,-3.15 1.739,0 3.15,1.411 3.15,3.15 0,1.739 -1.411,3.15 -3.15,3.15" /><path
       id="path320"
       style="fill:none;stroke:#000000;stroke-width:1;stroke-linecap:butt;stroke-linejoin:miter;stroke-miterlimit:10;stroke-opacity:1;stroke-dasharray:none"
       d="m 128,193 342.8,0 0,538 -342.8,0 0,-538 z" /><flowRoot
       xml:space="preserve"
       id="flowRoot3255-8"
       style="font-size:40px;font-style:normal;font-weight:normal;fill:#000000;fill-opacity:1;stroke:none;font-family:Bitstream Vera Sans"
       transform="matrix(0,0.8,0.8,0,-405.55054,-575.20581)"><flowRegion
         id="flowRegion3257-1"><rect
           id="rect3259-3"
           width="140.19597"
           height="101.29765"
           x="863.05615"
           y="653.97778" /></flowRegion><flowPara
         id="flowPara3261-1"
         style="font-size:48px;font-style:italic;font-variant:normal;font-weight:normal;font-stretch:normal;font-family:Times New Roman;-inkscape-font-specification:'Times New Roman, Italic'">χ</flowPara></flowRoot><flowRoot
       xml:space="preserve"
       id="flowRoot3255"
       style="font-size:40px;font-style:normal;font-weight:normal;fill:#000000;fill-opacity:1;stroke:none;font-family:Bitstream Vera Sans"
       transform="matrix(0,0.8,0.8,0,-19.560158,-3.019072)"><flowRegion
         id="flowRegion3257"><rect
           id="rect3259"
           width="81.848518"
           height="51.864407"
           x="863.05615"
           y="653.97778" /></flowRegion><flowPara
         id="flowPara3261"
         style="font-style:italic;font-variant:normal;font-weight:normal;font-stretch:normal;font-family:Times New Roman;-inkscape-font-specification:'Times New Roman, Italic'">T</flowPara></flowRoot></g></svg>