<?xml version="1.0" encoding="UTF-8" standalone="no"?>
<!-- Created with Inkscape (http://www.inkscape.org/) -->

<svg
   xmlns:dc="http://purl.org/dc/elements/1.1/"
   xmlns:cc="http://creativecommons.org/ns#"
   xmlns:rdf="http://www.w3.org/1999/02/22-rdf-syntax-ns#"
   xmlns:svg="http://www.w3.org/2000/svg"
   xmlns="http://www.w3.org/2000/svg"
   xmlns:sodipodi="http://sodipodi.sourceforge.net/DTD/sodipodi-0.dtd"
   xmlns:inkscape="http://www.inkscape.org/namespaces/inkscape"
   id="svg2"
   version="1.1"
   inkscape:version="0.47 r22583"
   width="990"
   height="765"
   xml:space="preserve"
   sodipodi:docname="M GS1 in T.eps"><metadata
     id="metadata8"><rdf:RDF><cc:Work
         rdf:about=""><dc:format>image/svg+xml</dc:format><dc:type
           rdf:resource="http://purl.org/dc/dcmitype/StillImage" /><dc:title></dc:title></cc:Work></rdf:RDF></metadata><defs
     id="defs6"><inkscape:perspective
       sodipodi:type="inkscape:persp3d"
       inkscape:vp_x="0 : 0.5 : 1"
       inkscape:vp_y="0 : 1000 : 0"
       inkscape:vp_z="1 : 0.5 : 1"
       inkscape:persp3d-origin="0.5 : 0.33333333 : 1"
       id="perspective10" /><inkscape:perspective
       id="perspective3098"
       inkscape:persp3d-origin="0.5 : 0.33333333 : 1"
       inkscape:vp_z="1 : 0.5 : 1"
       inkscape:vp_y="0 : 1000 : 0"
       inkscape:vp_x="0 : 0.5 : 1"
       sodipodi:type="inkscape:persp3d" /><inkscape:perspective
       id="perspective3114"
       inkscape:persp3d-origin="0.5 : 0.33333333 : 1"
       inkscape:vp_z="1 : 0.5 : 1"
       inkscape:vp_y="0 : 1000 : 0"
       inkscape:vp_x="0 : 0.5 : 1"
       sodipodi:type="inkscape:persp3d" /></defs><sodipodi:namedview
     pagecolor="#ffffff"
     bordercolor="#666666"
     borderopacity="1"
     objecttolerance="10"
     gridtolerance="10"
     guidetolerance="10"
     inkscape:pageopacity="0"
     inkscape:pageshadow="2"
     inkscape:window-width="1366"
     inkscape:window-height="695"
     id="namedview4"
     showgrid="false"
     inkscape:zoom="0.61699346"
     inkscape:cx="652.05482"
     inkscape:cy="359.50686"
     inkscape:window-x="0"
     inkscape:window-y="24"
     inkscape:window-maximized="1"
     inkscape:current-layer="g12" /><g
     id="g12"
     inkscape:groupmode="layer"
     inkscape:label="ink_ext_XXXXXX"
     transform="matrix(0,1.25,1.25,0,0,0)"><path
       id="path16"
       style="fill:none;stroke:#000000;stroke-width:1;stroke-linecap:butt;stroke-linejoin:miter;stroke-miterlimit:10;stroke-opacity:1;stroke-dasharray:none"
       d="m 470.8,208.6 0,6.3 m 0,516.1 0,-6.3" /><g
       id="g18"><text
         id="text20"
         transform="matrix(0,1,1,0,479.47,180)"><tspan
           id="tspan22"
           y="0"
           x="0"
           style="font-size:26px;font-variant:normal;font-weight:normal;writing-mode:lr-tb;fill:#000000;fill-opacity:1;fill-rule:nonzero;stroke:none;font-family:Times New Roman;-inkscape-font-specification:Times-Roman">0</tspan></text>
</g><path
       id="path24"
       style="fill:none;stroke:#000000;stroke-width:1;stroke-linecap:butt;stroke-linejoin:miter;stroke-miterlimit:10;stroke-opacity:1;stroke-dasharray:none"
       d="m 436.5,208.6 0,6.3 m 0,516.1 0,-6.3" /><g
       id="g26"><text
         id="text28"
         transform="matrix(0,1,1,0,445.17,160.5)"><tspan
           id="tspan30"
           sodipodi:role="line"
           y="0"
           x="0 13 19.5"
           style="font-size:26px;font-variant:normal;font-weight:normal;writing-mode:lr-tb;fill:#000000;fill-opacity:1;fill-rule:nonzero;stroke:none;font-family:Times New Roman;-inkscape-font-specification:Times-Roman">0.1</tspan></text>
</g><path
       id="path32"
       style="fill:none;stroke:#000000;stroke-width:1;stroke-linecap:butt;stroke-linejoin:miter;stroke-miterlimit:10;stroke-opacity:1;stroke-dasharray:none"
       d="m 402.2,208.6 0,6.3 m 0,516.1 0,-6.3" /><g
       id="g34"><text
         id="text36"
         transform="matrix(0,1,1,0,410.87,160.5)"><tspan
           id="tspan38"
           sodipodi:role="line"
           y="0"
           x="0 13 19.5"
           style="font-size:26px;font-variant:normal;font-weight:normal;writing-mode:lr-tb;fill:#000000;fill-opacity:1;fill-rule:nonzero;stroke:none;font-family:Times New Roman;-inkscape-font-specification:Times-Roman">0.2</tspan></text>
</g><path
       id="path40"
       style="fill:none;stroke:#000000;stroke-width:1;stroke-linecap:butt;stroke-linejoin:miter;stroke-miterlimit:10;stroke-opacity:1;stroke-dasharray:none"
       d="m 368,208.6 0,6.3 m 0,516.1 0,-6.3" /><g
       id="g42"><text
         id="text44"
         transform="matrix(0,1,1,0,376.67,160.5)"><tspan
           id="tspan46"
           sodipodi:role="line"
           y="0"
           x="0 13 19.5"
           style="font-size:26px;font-variant:normal;font-weight:normal;writing-mode:lr-tb;fill:#000000;fill-opacity:1;fill-rule:nonzero;stroke:none;font-family:Times New Roman;-inkscape-font-specification:Times-Roman">0.3</tspan></text>
</g><path
       id="path48"
       style="fill:none;stroke:#000000;stroke-width:1;stroke-linecap:butt;stroke-linejoin:miter;stroke-miterlimit:10;stroke-opacity:1;stroke-dasharray:none"
       d="m 333.7,208.6 0,6.3 m 0,516.1 0,-6.3" /><g
       id="g50"><text
         id="text52"
         transform="matrix(0,1,1,0,342.37,160.5)"><tspan
           id="tspan54"
           sodipodi:role="line"
           y="0"
           x="0 13 19.5"
           style="font-size:26px;font-variant:normal;font-weight:normal;writing-mode:lr-tb;fill:#000000;fill-opacity:1;fill-rule:nonzero;stroke:none;font-family:Times New Roman;-inkscape-font-specification:Times-Roman">0.4</tspan></text>
</g><path
       id="path56"
       style="fill:none;stroke:#000000;stroke-width:1;stroke-linecap:butt;stroke-linejoin:miter;stroke-miterlimit:10;stroke-opacity:1;stroke-dasharray:none"
       d="m 299.4,208.6 0,6.3 m 0,516.1 0,-6.3" /><g
       id="g58"><text
         id="text60"
         transform="matrix(0,1,1,0,308.07,160.5)"><tspan
           id="tspan62"
           sodipodi:role="line"
           y="0"
           x="0 13 19.5"
           style="font-size:26px;font-variant:normal;font-weight:normal;writing-mode:lr-tb;fill:#000000;fill-opacity:1;fill-rule:nonzero;stroke:none;font-family:Times New Roman;-inkscape-font-specification:Times-Roman">0.5</tspan></text>
</g><path
       id="path64"
       style="fill:none;stroke:#000000;stroke-width:1;stroke-linecap:butt;stroke-linejoin:miter;stroke-miterlimit:10;stroke-opacity:1;stroke-dasharray:none"
       d="m 265.1,208.6 0,6.3 m 0,516.1 0,-6.3" /><g
       id="g66"><text
         id="text68"
         transform="matrix(0,1,1,0,273.77,160.5)"><tspan
           id="tspan70"
           sodipodi:role="line"
           y="0"
           x="0 13 19.5"
           style="font-size:26px;font-variant:normal;font-weight:normal;writing-mode:lr-tb;fill:#000000;fill-opacity:1;fill-rule:nonzero;stroke:none;font-family:Times New Roman;-inkscape-font-specification:Times-Roman">0.6</tspan></text>
</g><path
       id="path72"
       style="fill:none;stroke:#000000;stroke-width:1;stroke-linecap:butt;stroke-linejoin:miter;stroke-miterlimit:10;stroke-opacity:1;stroke-dasharray:none"
       d="m 230.8,208.6 0,6.3 m 0,516.1 0,-6.3" /><g
       id="g74"><text
         id="text76"
         transform="matrix(0,1,1,0,239.47,160.5)"><tspan
           id="tspan78"
           sodipodi:role="line"
           y="0"
           x="0 13 19.5"
           style="font-size:26px;font-variant:normal;font-weight:normal;writing-mode:lr-tb;fill:#000000;fill-opacity:1;fill-rule:nonzero;stroke:none;font-family:Times New Roman;-inkscape-font-specification:Times-Roman">0.7</tspan></text>
</g><path
       id="path80"
       style="fill:none;stroke:#000000;stroke-width:1;stroke-linecap:butt;stroke-linejoin:miter;stroke-miterlimit:10;stroke-opacity:1;stroke-dasharray:none"
       d="m 196.6,208.6 0,6.3 m 0,516.1 0,-6.3" /><g
       id="g82"><text
         id="text84"
         transform="matrix(0,1,1,0,205.27,160.5)"><tspan
           id="tspan86"
           sodipodi:role="line"
           y="0"
           x="0 13 19.5"
           style="font-size:26px;font-variant:normal;font-weight:normal;writing-mode:lr-tb;fill:#000000;fill-opacity:1;fill-rule:nonzero;stroke:none;font-family:Times New Roman;-inkscape-font-specification:Times-Roman">0.8</tspan></text>
</g><path
       id="path88"
       style="fill:none;stroke:#000000;stroke-width:1;stroke-linecap:butt;stroke-linejoin:miter;stroke-miterlimit:10;stroke-opacity:1;stroke-dasharray:none"
       d="m 162.3,208.6 0,6.3 m 0,516.1 0,-6.3" /><g
       id="g90"><text
         id="text92"
         transform="matrix(0,1,1,0,170.97,160.5)"><tspan
           id="tspan94"
           sodipodi:role="line"
           y="0"
           x="0 13 19.5"
           style="font-size:26px;font-variant:normal;font-weight:normal;writing-mode:lr-tb;fill:#000000;fill-opacity:1;fill-rule:nonzero;stroke:none;font-family:Times New Roman;-inkscape-font-specification:Times-Roman">0.9</tspan></text>
</g><path
       id="path96"
       style="fill:none;stroke:#000000;stroke-width:1;stroke-linecap:butt;stroke-linejoin:miter;stroke-miterlimit:10;stroke-opacity:1;stroke-dasharray:none"
       d="m 128,208.6 0,6.3 m 0,516.1 0,-6.3" /><g
       id="g98"><text
         id="text100"
         transform="matrix(0,1,1,0,136.67,180)"><tspan
           id="tspan102"
           y="0"
           x="0"
           style="font-size:26px;font-variant:normal;font-weight:normal;writing-mode:lr-tb;fill:#000000;fill-opacity:1;fill-rule:nonzero;stroke:none;font-family:Times New Roman;-inkscape-font-specification:Times-Roman">1</tspan></text>
</g><path
       id="path104"
       style="fill:none;stroke:#000000;stroke-width:1;stroke-linecap:butt;stroke-linejoin:miter;stroke-miterlimit:10;stroke-opacity:1;stroke-dasharray:none"
       d="m 470.8,208.6 -6.3,0 m -336.5,0 6.3,0" /><g
       id="g106"><text
         id="text108"
         transform="matrix(0,1,1,0,505.47,195.6)"><tspan
           id="tspan110"
           sodipodi:role="line"
           y="0"
           x="0 13 19.5"
           style="font-size:26px;font-variant:normal;font-weight:normal;writing-mode:lr-tb;fill:#000000;fill-opacity:1;fill-rule:nonzero;stroke:none;font-family:Times New Roman;-inkscape-font-specification:Times-Roman">1.2</tspan></text>
</g><path
       id="path112"
       style="fill:none;stroke:#000000;stroke-width:1;stroke-linecap:butt;stroke-linejoin:miter;stroke-miterlimit:10;stroke-opacity:1;stroke-dasharray:none"
       d="m 470.8,295.7 -6.3,0 m -336.5,0 6.3,0" /><g
       id="g114"><text
         id="text116"
         transform="matrix(0,1,1,0,505.47,282.7)"><tspan
           id="tspan118"
           sodipodi:role="line"
           y="0"
           x="0 13 19.5"
           style="font-size:26px;font-variant:normal;font-weight:normal;writing-mode:lr-tb;fill:#000000;fill-opacity:1;fill-rule:nonzero;stroke:none;font-family:Times New Roman;-inkscape-font-specification:Times-Roman">1.4</tspan></text>
</g><path
       id="path120"
       style="fill:none;stroke:#000000;stroke-width:1;stroke-linecap:butt;stroke-linejoin:miter;stroke-miterlimit:10;stroke-opacity:1;stroke-dasharray:none"
       d="m 470.8,382.7 -6.3,0 m -336.5,0 6.3,0" /><g
       id="g122"><text
         id="text124"
         transform="matrix(0,1,1,0,505.47,369.7)"><tspan
           id="tspan126"
           sodipodi:role="line"
           y="0"
           x="0 13 19.5"
           style="font-size:26px;font-variant:normal;font-weight:normal;writing-mode:lr-tb;fill:#000000;fill-opacity:1;fill-rule:nonzero;stroke:none;font-family:Times New Roman;-inkscape-font-specification:Times-Roman">1.6</tspan></text>
</g><path
       id="path128"
       style="fill:none;stroke:#000000;stroke-width:1;stroke-linecap:butt;stroke-linejoin:miter;stroke-miterlimit:10;stroke-opacity:1;stroke-dasharray:none"
       d="m 470.8,469.8 -6.3,0 m -336.5,0 6.3,0" /><g
       id="g130"><text
         id="text132"
         transform="matrix(0,1,1,0,505.47,456.8)"><tspan
           id="tspan134"
           sodipodi:role="line"
           y="0"
           x="0 13 19.5"
           style="font-size:26px;font-variant:normal;font-weight:normal;writing-mode:lr-tb;fill:#000000;fill-opacity:1;fill-rule:nonzero;stroke:none;font-family:Times New Roman;-inkscape-font-specification:Times-Roman">1.8</tspan></text>
</g><path
       id="path136"
       style="fill:none;stroke:#000000;stroke-width:1;stroke-linecap:butt;stroke-linejoin:miter;stroke-miterlimit:10;stroke-opacity:1;stroke-dasharray:none"
       d="m 470.8,556.9 -6.3,0 m -336.5,0 6.3,0" /><g
       id="g138"><text
         id="text140"
         transform="matrix(0,1,1,0,505.47,553.65)"><tspan
           id="tspan142"
           y="0"
           x="0"
           style="font-size:26px;font-variant:normal;font-weight:normal;writing-mode:lr-tb;fill:#000000;fill-opacity:1;fill-rule:nonzero;stroke:none;font-family:Times New Roman;-inkscape-font-specification:Times-Roman">2</tspan></text>
</g><path
       id="path144"
       style="fill:none;stroke:#000000;stroke-width:1;stroke-linecap:butt;stroke-linejoin:miter;stroke-miterlimit:10;stroke-opacity:1;stroke-dasharray:none"
       d="m 470.8,643.9 -6.3,0 m -336.5,0 6.3,0" /><g
       id="g146"><text
         id="text148"
         transform="matrix(0,1,1,0,505.47,630.9)"><tspan
           id="tspan150"
           sodipodi:role="line"
           y="0"
           x="0 13 19.5"
           style="font-size:26px;font-variant:normal;font-weight:normal;writing-mode:lr-tb;fill:#000000;fill-opacity:1;fill-rule:nonzero;stroke:none;font-family:Times New Roman;-inkscape-font-specification:Times-Roman">2.2</tspan></text>
</g><path
       id="path152"
       style="fill:none;stroke:#000000;stroke-width:1;stroke-linecap:butt;stroke-linejoin:miter;stroke-miterlimit:10;stroke-opacity:1;stroke-dasharray:none"
       d="m 470.8,731 -6.3,0 m -336.5,0 6.3,0" /><g
       id="g154"><text
         id="text156"
         transform="matrix(0,1,1,0,505.47,718)"><tspan
           id="tspan158"
           sodipodi:role="line"
           y="0"
           x="0 13 19.5"
           style="font-size:26px;font-variant:normal;font-weight:normal;writing-mode:lr-tb;fill:#000000;fill-opacity:1;fill-rule:nonzero;stroke:none;font-family:Times New Roman;-inkscape-font-specification:Times-Roman">2.4</tspan></text>
</g><path
       id="path160"
       style="fill:none;stroke:#000000;stroke-width:1;stroke-linecap:butt;stroke-linejoin:miter;stroke-miterlimit:10;stroke-opacity:1;stroke-dasharray:none"
       d="m 128,208.6 342.8,0 0,522.4 -342.8,0 0,-522.4 z" /><path
       id="path174"
       style="fill:#000000;fill-opacity:1;fill-rule:nonzero;stroke:none"
       d="m 131.2,211.75 c -1.739,0 -3.15,-1.411 -3.15,-3.15 0,-1.739 1.411,-3.15 3.15,-3.15 1.739,0 3.15,1.411 3.15,3.15 0,1.739 -1.411,3.15 -3.15,3.15" /><path
       id="path176"
       style="fill:#000000;fill-opacity:1;fill-rule:nonzero;stroke:none"
       d="m 131.5,218.25 c -1.739,0 -3.15,-1.411 -3.15,-3.15 0,-1.739 1.411,-3.15 3.15,-3.15 1.739,0 3.15,1.411 3.15,3.15 0,1.739 -1.411,3.15 -3.15,3.15" /><path
       id="path178"
       style="fill:#000000;fill-opacity:1;fill-rule:nonzero;stroke:none"
       d="m 131.8,224.85 c -1.739,0 -3.15,-1.411 -3.15,-3.15 0,-1.739 1.411,-3.15 3.15,-3.15 1.739,0 3.15,1.411 3.15,3.15 0,1.739 -1.411,3.15 -3.15,3.15" /><path
       id="path180"
       style="fill:#000000;fill-opacity:1;fill-rule:nonzero;stroke:none"
       d="m 132.1,231.35 c -1.739,0 -3.15,-1.411 -3.15,-3.15 0,-1.739 1.411,-3.15 3.15,-3.15 1.739,0 3.15,1.411 3.15,3.15 0,1.739 -1.411,3.15 -3.15,3.15" /><path
       id="path182"
       style="fill:#000000;fill-opacity:1;fill-rule:nonzero;stroke:none"
       d="m 132.5,237.85 c -1.739,0 -3.15,-1.411 -3.15,-3.15 0,-1.739 1.411,-3.15 3.15,-3.15 1.739,0 3.15,1.411 3.15,3.15 0,1.739 -1.411,3.15 -3.15,3.15" /><path
       id="path184"
       style="fill:#000000;fill-opacity:1;fill-rule:nonzero;stroke:none"
       d="m 132.9,244.35 c -1.739,0 -3.15,-1.411 -3.15,-3.15 0,-1.739 1.411,-3.15 3.15,-3.15 1.739,0 3.15,1.411 3.15,3.15 0,1.739 -1.411,3.15 -3.15,3.15" /><path
       id="path186"
       style="fill:#000000;fill-opacity:1;fill-rule:nonzero;stroke:none"
       d="m 133.3,250.95 c -1.739,0 -3.15,-1.411 -3.15,-3.15 0,-1.739 1.411,-3.15 3.15,-3.15 1.739,0 3.15,1.411 3.15,3.15 0,1.739 -1.411,3.15 -3.15,3.15" /><path
       id="path188"
       style="fill:#000000;fill-opacity:1;fill-rule:nonzero;stroke:none"
       d="m 133.8,257.45 c -1.739,0 -3.15,-1.411 -3.15,-3.15 0,-1.739 1.411,-3.15 3.15,-3.15 1.739,0 3.15,1.411 3.15,3.15 0,1.739 -1.411,3.15 -3.15,3.15" /><path
       id="path190"
       style="fill:#000000;fill-opacity:1;fill-rule:nonzero;stroke:none"
       d="m 134.3,263.95 c -1.739,0 -3.15,-1.411 -3.15,-3.15 0,-1.739 1.411,-3.15 3.15,-3.15 1.739,0 3.15,1.411 3.15,3.15 0,1.739 -1.411,3.15 -3.15,3.15" /><path
       id="path192"
       style="fill:#000000;fill-opacity:1;fill-rule:nonzero;stroke:none"
       d="m 134.8,270.55 c -1.739,0 -3.15,-1.411 -3.15,-3.15 0,-1.739 1.411,-3.15 3.15,-3.15 1.739,0 3.15,1.411 3.15,3.15 0,1.739 -1.411,3.15 -3.15,3.15" /><path
       id="path194"
       style="fill:#000000;fill-opacity:1;fill-rule:nonzero;stroke:none"
       d="m 135.4,277.05 c -1.739,0 -3.15,-1.411 -3.15,-3.15 0,-1.739 1.411,-3.15 3.15,-3.15 1.739,0 3.15,1.411 3.15,3.15 0,1.739 -1.411,3.15 -3.15,3.15" /><path
       id="path196"
       style="fill:#000000;fill-opacity:1;fill-rule:nonzero;stroke:none"
       d="m 136,283.55 c -1.739,0 -3.15,-1.411 -3.15,-3.15 0,-1.739 1.411,-3.15 3.15,-3.15 1.739,0 3.15,1.411 3.15,3.15 0,1.739 -1.411,3.15 -3.15,3.15" /><path
       id="path198"
       style="fill:#000000;fill-opacity:1;fill-rule:nonzero;stroke:none"
       d="m 136.7,290.15 c -1.739,0 -3.15,-1.411 -3.15,-3.15 0,-1.739 1.411,-3.15 3.15,-3.15 1.739,0 3.15,1.411 3.15,3.15 0,1.739 -1.411,3.15 -3.15,3.15" /><path
       id="path200"
       style="fill:#000000;fill-opacity:1;fill-rule:nonzero;stroke:none"
       d="m 137.4,296.65 c -1.739,0 -3.15,-1.411 -3.15,-3.15 0,-1.739 1.411,-3.15 3.15,-3.15 1.739,0 3.15,1.411 3.15,3.15 0,1.739 -1.411,3.15 -3.15,3.15" /><path
       id="path202"
       style="fill:#000000;fill-opacity:1;fill-rule:nonzero;stroke:none"
       d="m 138.2,303.15 c -1.739,0 -3.15,-1.411 -3.15,-3.15 0,-1.739 1.411,-3.15 3.15,-3.15 1.739,0 3.15,1.411 3.15,3.15 0,1.739 -1.411,3.15 -3.15,3.15" /><path
       id="path204"
       style="fill:#000000;fill-opacity:1;fill-rule:nonzero;stroke:none"
       d="m 139,309.75 c -1.739,0 -3.15,-1.411 -3.15,-3.15 0,-1.739 1.411,-3.15 3.15,-3.15 1.739,0 3.15,1.411 3.15,3.15 0,1.739 -1.411,3.15 -3.15,3.15" /><path
       id="path206"
       style="fill:#000000;fill-opacity:1;fill-rule:nonzero;stroke:none"
       d="m 139.8,316.25 c -1.739,0 -3.15,-1.411 -3.15,-3.15 0,-1.739 1.411,-3.15 3.15,-3.15 1.739,0 3.15,1.411 3.15,3.15 0,1.739 -1.411,3.15 -3.15,3.15" /><path
       id="path208"
       style="fill:#000000;fill-opacity:1;fill-rule:nonzero;stroke:none"
       d="m 140.8,322.75 c -1.739,0 -3.15,-1.411 -3.15,-3.15 0,-1.739 1.411,-3.15 3.15,-3.15 1.739,0 3.15,1.411 3.15,3.15 0,1.739 -1.411,3.15 -3.15,3.15" /><path
       id="path210"
       style="fill:#000000;fill-opacity:1;fill-rule:nonzero;stroke:none"
       d="m 141.8,329.25 c -1.739,0 -3.15,-1.411 -3.15,-3.15 0,-1.739 1.411,-3.15 3.15,-3.15 1.739,0 3.15,1.411 3.15,3.15 0,1.739 -1.411,3.15 -3.15,3.15" /><path
       id="path212"
       style="fill:#000000;fill-opacity:1;fill-rule:nonzero;stroke:none"
       d="m 142.9,335.85 c -1.739,0 -3.15,-1.411 -3.15,-3.15 0,-1.739 1.411,-3.15 3.15,-3.15 1.739,0 3.15,1.411 3.15,3.15 0,1.739 -1.411,3.15 -3.15,3.15" /><path
       id="path214"
       style="fill:#000000;fill-opacity:1;fill-rule:nonzero;stroke:none"
       d="m 144,342.35 c -1.739,0 -3.15,-1.411 -3.15,-3.15 0,-1.739 1.411,-3.15 3.15,-3.15 1.739,0 3.15,1.411 3.15,3.15 0,1.739 -1.411,3.15 -3.15,3.15" /><path
       id="path216"
       style="fill:#000000;fill-opacity:1;fill-rule:nonzero;stroke:none"
       d="m 145.3,348.85 c -1.739,0 -3.15,-1.411 -3.15,-3.15 0,-1.739 1.411,-3.15 3.15,-3.15 1.739,0 3.15,1.411 3.15,3.15 0,1.739 -1.411,3.15 -3.15,3.15" /><path
       id="path218"
       style="fill:#000000;fill-opacity:1;fill-rule:nonzero;stroke:none"
       d="m 146.6,355.45 c -1.739,0 -3.15,-1.411 -3.15,-3.15 0,-1.739 1.411,-3.15 3.15,-3.15 1.739,0 3.15,1.411 3.15,3.15 0,1.739 -1.411,3.15 -3.15,3.15" /><path
       id="path220"
       style="fill:#000000;fill-opacity:1;fill-rule:nonzero;stroke:none"
       d="m 148.1,361.95 c -1.739,0 -3.15,-1.411 -3.15,-3.15 0,-1.739 1.411,-3.15 3.15,-3.15 1.739,0 3.15,1.411 3.15,3.15 0,1.739 -1.411,3.15 -3.15,3.15" /><path
       id="path222"
       style="fill:#000000;fill-opacity:1;fill-rule:nonzero;stroke:none"
       d="m 149.6,368.45 c -1.739,0 -3.15,-1.411 -3.15,-3.15 0,-1.739 1.411,-3.15 3.15,-3.15 1.739,0 3.15,1.411 3.15,3.15 0,1.739 -1.411,3.15 -3.15,3.15" /><path
       id="path224"
       style="fill:#000000;fill-opacity:1;fill-rule:nonzero;stroke:none"
       d="m 151.3,375.05 c -1.739,0 -3.15,-1.411 -3.15,-3.15 0,-1.739 1.411,-3.15 3.15,-3.15 1.739,0 3.15,1.411 3.15,3.15 0,1.739 -1.411,3.15 -3.15,3.15" /><path
       id="path226"
       style="fill:#000000;fill-opacity:1;fill-rule:nonzero;stroke:none"
       d="m 153.1,381.55 c -1.739,0 -3.15,-1.411 -3.15,-3.15 0,-1.739 1.411,-3.15 3.15,-3.15 1.739,0 3.15,1.411 3.15,3.15 0,1.739 -1.411,3.15 -3.15,3.15" /><path
       id="path228"
       style="fill:#000000;fill-opacity:1;fill-rule:nonzero;stroke:none"
       d="m 155,388.05 c -1.739,0 -3.15,-1.411 -3.15,-3.15 0,-1.739 1.411,-3.15 3.15,-3.15 1.739,0 3.15,1.411 3.15,3.15 0,1.739 -1.411,3.15 -3.15,3.15" /><path
       id="path230"
       style="fill:#000000;fill-opacity:1;fill-rule:nonzero;stroke:none"
       d="m 157.1,394.55 c -1.739,0 -3.15,-1.411 -3.15,-3.15 0,-1.739 1.411,-3.15 3.15,-3.15 1.739,0 3.15,1.411 3.15,3.15 0,1.739 -1.411,3.15 -3.15,3.15" /><path
       id="path232"
       style="fill:#000000;fill-opacity:1;fill-rule:nonzero;stroke:none"
       d="m 159.4,401.15 c -1.739,0 -3.15,-1.411 -3.15,-3.15 0,-1.739 1.411,-3.15 3.15,-3.15 1.739,0 3.15,1.411 3.15,3.15 0,1.739 -1.411,3.15 -3.15,3.15" /><path
       id="path234"
       style="fill:#000000;fill-opacity:1;fill-rule:nonzero;stroke:none"
       d="m 161.9,407.65 c -1.739,0 -3.15,-1.411 -3.15,-3.15 0,-1.739 1.411,-3.15 3.15,-3.15 1.739,0 3.15,1.411 3.15,3.15 0,1.739 -1.411,3.15 -3.15,3.15" /><path
       id="path236"
       style="fill:#000000;fill-opacity:1;fill-rule:nonzero;stroke:none"
       d="m 164.6,414.15 c -1.739,0 -3.15,-1.411 -3.15,-3.15 0,-1.739 1.411,-3.15 3.15,-3.15 1.739,0 3.15,1.411 3.15,3.15 0,1.739 -1.411,3.15 -3.15,3.15" /><path
       id="path238"
       style="fill:#000000;fill-opacity:1;fill-rule:nonzero;stroke:none"
       d="m 167.7,420.75 c -1.739,0 -3.15,-1.411 -3.15,-3.15 0,-1.739 1.411,-3.15 3.15,-3.15 1.739,0 3.15,1.411 3.15,3.15 0,1.739 -1.411,3.15 -3.15,3.15" /><path
       id="path240"
       style="fill:#000000;fill-opacity:1;fill-rule:nonzero;stroke:none"
       d="m 170.9,427.25 c -1.739,0 -3.15,-1.411 -3.15,-3.15 0,-1.739 1.411,-3.15 3.15,-3.15 1.739,0 3.15,1.411 3.15,3.15 0,1.739 -1.411,3.15 -3.15,3.15" /><path
       id="path242"
       style="fill:#000000;fill-opacity:1;fill-rule:nonzero;stroke:none"
       d="m 174.4,433.75 c -1.739,0 -3.15,-1.411 -3.15,-3.15 0,-1.739 1.411,-3.15 3.15,-3.15 1.739,0 3.15,1.411 3.15,3.15 0,1.739 -1.411,3.15 -3.15,3.15" /><path
       id="path244"
       style="fill:#000000;fill-opacity:1;fill-rule:nonzero;stroke:none"
       d="m 178.4,440.35 c -1.739,0 -3.15,-1.411 -3.15,-3.15 0,-1.739 1.411,-3.15 3.15,-3.15 1.739,0 3.15,1.411 3.15,3.15 0,1.739 -1.411,3.15 -3.15,3.15" /><path
       id="path246"
       style="fill:#000000;fill-opacity:1;fill-rule:nonzero;stroke:none"
       d="m 182.8,446.85 c -1.739,0 -3.15,-1.411 -3.15,-3.15 0,-1.739 1.411,-3.15 3.15,-3.15 1.739,0 3.15,1.411 3.15,3.15 0,1.739 -1.411,3.15 -3.15,3.15" /><path
       id="path248"
       style="fill:#000000;fill-opacity:1;fill-rule:nonzero;stroke:none"
       d="m 187.7,453.35 c -1.739,0 -3.15,-1.411 -3.15,-3.15 0,-1.739 1.411,-3.15 3.15,-3.15 1.739,0 3.15,1.411 3.15,3.15 0,1.739 -1.411,3.15 -3.15,3.15" /><path
       id="path250"
       style="fill:#000000;fill-opacity:1;fill-rule:nonzero;stroke:none"
       d="m 193.3,459.85 c -1.739,0 -3.15,-1.411 -3.15,-3.15 0,-1.739 1.411,-3.15 3.15,-3.15 1.739,0 3.15,1.411 3.15,3.15 0,1.739 -1.411,3.15 -3.15,3.15" /><path
       id="path252"
       style="fill:#000000;fill-opacity:1;fill-rule:nonzero;stroke:none"
       d="m 199.4,466.45 c -1.739,0 -3.15,-1.411 -3.15,-3.15 0,-1.739 1.411,-3.15 3.15,-3.15 1.739,0 3.15,1.411 3.15,3.15 0,1.739 -1.411,3.15 -3.15,3.15" /><path
       id="path254"
       style="fill:#000000;fill-opacity:1;fill-rule:nonzero;stroke:none"
       d="m 206.5,472.95 c -1.739,0 -3.15,-1.411 -3.15,-3.15 0,-1.739 1.411,-3.15 3.15,-3.15 1.739,0 3.15,1.411 3.15,3.15 0,1.739 -1.411,3.15 -3.15,3.15" /><path
       id="path256"
       style="fill:#000000;fill-opacity:1;fill-rule:nonzero;stroke:none"
       d="m 215.1,479.45 c -1.739,0 -3.15,-1.411 -3.15,-3.15 0,-1.739 1.411,-3.15 3.15,-3.15 1.739,0 3.15,1.411 3.15,3.15 0,1.739 -1.411,3.15 -3.15,3.15" /><path
       id="path258"
       style="fill:#000000;fill-opacity:1;fill-rule:nonzero;stroke:none"
       d="m 224.9,486.05 c -1.739,0 -3.15,-1.411 -3.15,-3.15 0,-1.739 1.411,-3.15 3.15,-3.15 1.739,0 3.15,1.411 3.15,3.15 0,1.739 -1.411,3.15 -3.15,3.15" /><path
       id="path260"
       style="fill:#000000;fill-opacity:1;fill-rule:nonzero;stroke:none"
       d="m 237.7,492.55 c -1.739,0 -3.15,-1.411 -3.15,-3.15 0,-1.739 1.411,-3.15 3.15,-3.15 1.739,0 3.15,1.411 3.15,3.15 0,1.739 -1.411,3.15 -3.15,3.15" /><path
       id="path262"
       style="fill:#000000;fill-opacity:1;fill-rule:nonzero;stroke:none"
       d="m 254.6,499.05 c -1.739,0 -3.15,-1.411 -3.15,-3.15 0,-1.739 1.411,-3.15 3.15,-3.15 1.739,0 3.15,1.411 3.15,3.15 0,1.739 -1.411,3.15 -3.15,3.15" /><path
       id="path264"
       style="fill:#000000;fill-opacity:1;fill-rule:nonzero;stroke:none"
       d="m 275,505.65 c -1.739,0 -3.15,-1.411 -3.15,-3.15 0,-1.739 1.411,-3.15 3.15,-3.15 1.739,0 3.15,1.411 3.15,3.15 0,1.739 -1.411,3.15 -3.15,3.15" /><path
       id="path266"
       style="fill:#000000;fill-opacity:1;fill-rule:nonzero;stroke:none"
       d="m 303.8,512.15 c -1.739,0 -3.15,-1.411 -3.15,-3.15 0,-1.739 1.411,-3.15 3.15,-3.15 1.739,0 3.15,1.411 3.15,3.15 0,1.739 -1.411,3.15 -3.15,3.15" /><path
       id="path268"
       style="fill:#000000;fill-opacity:1;fill-rule:nonzero;stroke:none"
       d="m 333.5,518.65 c -1.739,0 -3.15,-1.411 -3.15,-3.15 0,-1.739 1.411,-3.15 3.15,-3.15 1.739,0 3.15,1.411 3.15,3.15 0,1.739 -1.411,3.15 -3.15,3.15" /><path
       id="path270"
       style="fill:#000000;fill-opacity:1;fill-rule:nonzero;stroke:none"
       d="m 362.9,525.15 c -1.739,0 -3.15,-1.411 -3.15,-3.15 0,-1.739 1.411,-3.15 3.15,-3.15 1.739,0 3.15,1.411 3.15,3.15 0,1.739 -1.411,3.15 -3.15,3.15" /><path
       id="path272"
       style="fill:#000000;fill-opacity:1;fill-rule:nonzero;stroke:none"
       d="m 380.9,531.75 c -1.739,0 -3.15,-1.411 -3.15,-3.15 0,-1.739 1.411,-3.15 3.15,-3.15 1.739,0 3.15,1.411 3.15,3.15 0,1.739 -1.411,3.15 -3.15,3.15" /><path
       id="path274"
       style="fill:#000000;fill-opacity:1;fill-rule:nonzero;stroke:none"
       d="m 397.4,538.25 c -1.739,0 -3.15,-1.411 -3.15,-3.15 0,-1.739 1.411,-3.15 3.15,-3.15 1.739,0 3.15,1.411 3.15,3.15 0,1.739 -1.411,3.15 -3.15,3.15" /><path
       id="path276"
       style="fill:#000000;fill-opacity:1;fill-rule:nonzero;stroke:none"
       d="m 407.8,544.75 c -1.739,0 -3.15,-1.411 -3.15,-3.15 0,-1.739 1.411,-3.15 3.15,-3.15 1.739,0 3.15,1.411 3.15,3.15 0,1.739 -1.411,3.15 -3.15,3.15" /><path
       id="path278"
       style="fill:#000000;fill-opacity:1;fill-rule:nonzero;stroke:none"
       d="m 416.2,551.35 c -1.739,0 -3.15,-1.411 -3.15,-3.15 0,-1.739 1.411,-3.15 3.15,-3.15 1.739,0 3.15,1.411 3.15,3.15 0,1.739 -1.411,3.15 -3.15,3.15" /><path
       id="path280"
       style="fill:#000000;fill-opacity:1;fill-rule:nonzero;stroke:none"
       d="m 421.5,557.85 c -1.739,0 -3.15,-1.411 -3.15,-3.15 0,-1.739 1.411,-3.15 3.15,-3.15 1.739,0 3.15,1.411 3.15,3.15 0,1.739 -1.411,3.15 -3.15,3.15" /><path
       id="path282"
       style="fill:#000000;fill-opacity:1;fill-rule:nonzero;stroke:none"
       d="m 425.7,564.35 c -1.739,0 -3.15,-1.411 -3.15,-3.15 0,-1.739 1.411,-3.15 3.15,-3.15 1.739,0 3.15,1.411 3.15,3.15 0,1.739 -1.411,3.15 -3.15,3.15" /><path
       id="path284"
       style="fill:#000000;fill-opacity:1;fill-rule:nonzero;stroke:none"
       d="m 429.9,570.95 c -1.739,0 -3.15,-1.411 -3.15,-3.15 0,-1.739 1.411,-3.15 3.15,-3.15 1.739,0 3.15,1.411 3.15,3.15 0,1.739 -1.411,3.15 -3.15,3.15" /><path
       id="path286"
       style="fill:#000000;fill-opacity:1;fill-rule:nonzero;stroke:none"
       d="m 432.7,577.45 c -1.739,0 -3.15,-1.411 -3.15,-3.15 0,-1.739 1.411,-3.15 3.15,-3.15 1.739,0 3.15,1.411 3.15,3.15 0,1.739 -1.411,3.15 -3.15,3.15" /><path
       id="path288"
       style="fill:#000000;fill-opacity:1;fill-rule:nonzero;stroke:none"
       d="m 435.2,583.95 c -1.739,0 -3.15,-1.411 -3.15,-3.15 0,-1.739 1.411,-3.15 3.15,-3.15 1.739,0 3.15,1.411 3.15,3.15 0,1.739 -1.411,3.15 -3.15,3.15" /><path
       id="path290"
       style="fill:#000000;fill-opacity:1;fill-rule:nonzero;stroke:none"
       d="m 437.2,590.45 c -1.739,0 -3.15,-1.411 -3.15,-3.15 0,-1.739 1.411,-3.15 3.15,-3.15 1.739,0 3.15,1.411 3.15,3.15 0,1.739 -1.411,3.15 -3.15,3.15" /><path
       id="path292"
       style="fill:#000000;fill-opacity:1;fill-rule:nonzero;stroke:none"
       d="m 438.5,597.05 c -1.739,0 -3.15,-1.411 -3.15,-3.15 0,-1.739 1.411,-3.15 3.15,-3.15 1.739,0 3.15,1.411 3.15,3.15 0,1.739 -1.411,3.15 -3.15,3.15" /><path
       id="path294"
       style="fill:#000000;fill-opacity:1;fill-rule:nonzero;stroke:none"
       d="m 440.4,603.55 c -1.739,0 -3.15,-1.411 -3.15,-3.15 0,-1.739 1.411,-3.15 3.15,-3.15 1.739,0 3.15,1.411 3.15,3.15 0,1.739 -1.411,3.15 -3.15,3.15" /><path
       id="path296"
       style="fill:#000000;fill-opacity:1;fill-rule:nonzero;stroke:none"
       d="m 441.6,610.05 c -1.739,0 -3.15,-1.411 -3.15,-3.15 0,-1.739 1.411,-3.15 3.15,-3.15 1.739,0 3.15,1.411 3.15,3.15 0,1.739 -1.411,3.15 -3.15,3.15" /><path
       id="path298"
       style="fill:#000000;fill-opacity:1;fill-rule:nonzero;stroke:none"
       d="m 442.9,616.65 c -1.739,0 -3.15,-1.411 -3.15,-3.15 0,-1.739 1.411,-3.15 3.15,-3.15 1.739,0 3.15,1.411 3.15,3.15 0,1.739 -1.411,3.15 -3.15,3.15" /><path
       id="path300"
       style="fill:#000000;fill-opacity:1;fill-rule:nonzero;stroke:none"
       d="m 444.2,623.15 c -1.739,0 -3.15,-1.411 -3.15,-3.15 0,-1.739 1.411,-3.15 3.15,-3.15 1.739,0 3.15,1.411 3.15,3.15 0,1.739 -1.411,3.15 -3.15,3.15" /><path
       id="path302"
       style="fill:#000000;fill-opacity:1;fill-rule:nonzero;stroke:none"
       d="m 445,629.65 c -1.739,0 -3.15,-1.411 -3.15,-3.15 0,-1.739 1.411,-3.15 3.15,-3.15 1.739,0 3.15,1.411 3.15,3.15 0,1.739 -1.411,3.15 -3.15,3.15" /><path
       id="path304"
       style="fill:#000000;fill-opacity:1;fill-rule:nonzero;stroke:none"
       d="m 446,636.25 c -1.739,0 -3.15,-1.411 -3.15,-3.15 0,-1.739 1.411,-3.15 3.15,-3.15 1.739,0 3.15,1.411 3.15,3.15 0,1.739 -1.411,3.15 -3.15,3.15" /><path
       id="path306"
       style="fill:#000000;fill-opacity:1;fill-rule:nonzero;stroke:none"
       d="m 446.7,642.75 c -1.739,0 -3.15,-1.411 -3.15,-3.15 0,-1.739 1.411,-3.15 3.15,-3.15 1.739,0 3.15,1.411 3.15,3.15 0,1.739 -1.411,3.15 -3.15,3.15" /><path
       id="path308"
       style="fill:#000000;fill-opacity:1;fill-rule:nonzero;stroke:none"
       d="m 447.2,649.25 c -1.739,0 -3.15,-1.411 -3.15,-3.15 0,-1.739 1.411,-3.15 3.15,-3.15 1.739,0 3.15,1.411 3.15,3.15 0,1.739 -1.411,3.15 -3.15,3.15" /><path
       id="path310"
       style="fill:#000000;fill-opacity:1;fill-rule:nonzero;stroke:none"
       d="m 448.1,655.75 c -1.739,0 -3.15,-1.411 -3.15,-3.15 0,-1.739 1.411,-3.15 3.15,-3.15 1.739,0 3.15,1.411 3.15,3.15 0,1.739 -1.411,3.15 -3.15,3.15" /><path
       id="path312"
       style="fill:#000000;fill-opacity:1;fill-rule:nonzero;stroke:none"
       d="m 448.8,662.35 c -1.739,0 -3.15,-1.411 -3.15,-3.15 0,-1.739 1.411,-3.15 3.15,-3.15 1.739,0 3.15,1.411 3.15,3.15 0,1.739 -1.411,3.15 -3.15,3.15" /><path
       id="path314"
       style="fill:#000000;fill-opacity:1;fill-rule:nonzero;stroke:none"
       d="m 449.3,668.85 c -1.739,0 -3.15,-1.411 -3.15,-3.15 0,-1.739 1.411,-3.15 3.15,-3.15 1.739,0 3.15,1.411 3.15,3.15 0,1.739 -1.411,3.15 -3.15,3.15" /><path
       id="path316"
       style="fill:#000000;fill-opacity:1;fill-rule:nonzero;stroke:none"
       d="m 449.7,675.35 c -1.739,0 -3.15,-1.411 -3.15,-3.15 0,-1.739 1.411,-3.15 3.15,-3.15 1.739,0 3.15,1.411 3.15,3.15 0,1.739 -1.411,3.15 -3.15,3.15" /><path
       id="path318"
       style="fill:#000000;fill-opacity:1;fill-rule:nonzero;stroke:none"
       d="m 450.3,681.95 c -1.739,0 -3.15,-1.411 -3.15,-3.15 0,-1.739 1.411,-3.15 3.15,-3.15 1.739,0 3.15,1.411 3.15,3.15 0,1.739 -1.411,3.15 -3.15,3.15" /><path
       id="path320"
       style="fill:#000000;fill-opacity:1;fill-rule:nonzero;stroke:none"
       d="m 450.6,688.45 c -1.739,0 -3.15,-1.411 -3.15,-3.15 0,-1.739 1.411,-3.15 3.15,-3.15 1.739,0 3.15,1.411 3.15,3.15 0,1.739 -1.411,3.15 -3.15,3.15" /><path
       id="path322"
       style="fill:#000000;fill-opacity:1;fill-rule:nonzero;stroke:none"
       d="m 451.1,694.95 c -1.739,0 -3.15,-1.411 -3.15,-3.15 0,-1.739 1.411,-3.15 3.15,-3.15 1.739,0 3.15,1.411 3.15,3.15 0,1.739 -1.411,3.15 -3.15,3.15" /><path
       id="path324"
       style="fill:#000000;fill-opacity:1;fill-rule:nonzero;stroke:none"
       d="m 451.4,701.55 c -1.739,0 -3.15,-1.411 -3.15,-3.15 0,-1.739 1.411,-3.15 3.15,-3.15 1.739,0 3.15,1.411 3.15,3.15 0,1.739 -1.411,3.15 -3.15,3.15" /><path
       id="path326"
       style="fill:#000000;fill-opacity:1;fill-rule:nonzero;stroke:none"
       d="m 451.9,708.05 c -1.739,0 -3.15,-1.411 -3.15,-3.15 0,-1.739 1.411,-3.15 3.15,-3.15 1.739,0 3.15,1.411 3.15,3.15 0,1.739 -1.411,3.15 -3.15,3.15" /><path
       id="path328"
       style="fill:#000000;fill-opacity:1;fill-rule:nonzero;stroke:none"
       d="m 452.2,714.55 c -1.739,0 -3.15,-1.411 -3.15,-3.15 0,-1.739 1.411,-3.15 3.15,-3.15 1.739,0 3.15,1.411 3.15,3.15 0,1.739 -1.411,3.15 -3.15,3.15" /><path
       id="path330"
       style="fill:#000000;fill-opacity:1;fill-rule:nonzero;stroke:none"
       d="m 452.5,721.05 c -1.739,0 -3.15,-1.411 -3.15,-3.15 0,-1.739 1.411,-3.15 3.15,-3.15 1.739,0 3.15,1.411 3.15,3.15 0,1.739 -1.411,3.15 -3.15,3.15" /><path
       id="path332"
       style="fill:#000000;fill-opacity:1;fill-rule:nonzero;stroke:none"
       d="m 452.9,727.65 c -1.739,0 -3.15,-1.411 -3.15,-3.15 0,-1.739 1.411,-3.15 3.15,-3.15 1.739,0 3.15,1.411 3.15,3.15 0,1.739 -1.411,3.15 -3.15,3.15" /><path
       id="path334"
       style="fill:#000000;fill-opacity:1;fill-rule:nonzero;stroke:none"
       d="m 453.1,734.15 c -1.739,0 -3.15,-1.411 -3.15,-3.15 0,-1.739 1.411,-3.15 3.15,-3.15 1.739,0 3.15,1.411 3.15,3.15 0,1.739 -1.411,3.15 -3.15,3.15" /><path
       id="path336"
       style="fill:none;stroke:#000000;stroke-width:1;stroke-linecap:butt;stroke-linejoin:miter;stroke-miterlimit:10;stroke-opacity:1;stroke-dasharray:none"
       d="m 128,208.6 342.8,0 0,522.4 -342.8,0 0,-522.4 z" /><flowRoot
       xml:space="preserve"
       id="flowRoot3255"
       style="font-size:40px;font-style:normal;font-weight:normal;fill:#000000;fill-opacity:1;stroke:none;font-family:Bitstream Vera Sans"
       transform="matrix(0,0.8,0.8,0,-21.045229,-2.7781512)"><flowRegion
         id="flowRegion3257"><rect
           id="rect3259"
           width="81.848518"
           height="51.864407"
           x="863.05615"
           y="653.97778" /></flowRegion><flowPara
         id="flowPara3261"
         style="font-style:italic;font-variant:normal;font-weight:normal;font-stretch:normal;font-family:Times New Roman;-inkscape-font-specification:'Times New Roman, Italic'">T</flowPara></flowRoot><flowRoot
       xml:space="preserve"
       id="flowRoot3255-7"
       style="font-size:40px;font-style:normal;font-weight:normal;fill:#000000;fill-opacity:1;stroke:none;font-family:Bitstream Vera Sans"
       transform="matrix(0,0.8,0.8,0,-401.60286,-564.19086)"><flowRegion
         id="flowRegion3257-6"><rect
           id="rect3259-1"
           width="81.848518"
           height="51.864407"
           x="863.05615"
           y="653.97778" /></flowRegion><flowPara
         id="flowPara3261-5"
         style="font-style:italic;font-variant:normal;font-weight:normal;font-stretch:normal;font-family:Times New Roman;-inkscape-font-specification:'Times New Roman, Italic'">M</flowPara></flowRoot></g></svg>