<?xml version="1.0" encoding="UTF-8" standalone="no"?>
<!-- Created with Inkscape (http://www.inkscape.org/) -->

<svg
   xmlns:dc="http://purl.org/dc/elements/1.1/"
   xmlns:cc="http://creativecommons.org/ns#"
   xmlns:rdf="http://www.w3.org/1999/02/22-rdf-syntax-ns#"
   xmlns:svg="http://www.w3.org/2000/svg"
   xmlns="http://www.w3.org/2000/svg"
   xmlns:sodipodi="http://sodipodi.sourceforge.net/DTD/sodipodi-0.dtd"
   xmlns:inkscape="http://www.inkscape.org/namespaces/inkscape"
   id="svg2"
   version="1.1"
   inkscape:version="0.47 r22583"
   width="990"
   height="765"
   xml:space="preserve"
   sodipodi:docname="Tc_J1 (copy).eps"><metadata
     id="metadata8"><rdf:RDF><cc:Work
         rdf:about=""><dc:format>image/svg+xml</dc:format><dc:type
           rdf:resource="http://purl.org/dc/dcmitype/StillImage" /><dc:title></dc:title></cc:Work></rdf:RDF></metadata><defs
     id="defs6"><inkscape:perspective
       sodipodi:type="inkscape:persp3d"
       inkscape:vp_x="0 : 0.5 : 1"
       inkscape:vp_y="0 : 1000 : 0"
       inkscape:vp_z="1 : 0.5 : 1"
       inkscape:persp3d-origin="0.5 : 0.33333333 : 1"
       id="perspective10" /><inkscape:perspective
       id="perspective2960"
       inkscape:persp3d-origin="0.5 : 0.33333333 : 1"
       inkscape:vp_z="1 : 0.5 : 1"
       inkscape:vp_y="0 : 1000 : 0"
       inkscape:vp_x="0 : 0.5 : 1"
       sodipodi:type="inkscape:persp3d" /><inkscape:perspective
       id="perspective2980"
       inkscape:persp3d-origin="0.5 : 0.33333333 : 1"
       inkscape:vp_z="1 : 0.5 : 1"
       inkscape:vp_y="0 : 1000 : 0"
       inkscape:vp_x="0 : 0.5 : 1"
       sodipodi:type="inkscape:persp3d" /><inkscape:perspective
       id="perspective2996"
       inkscape:persp3d-origin="0.5 : 0.33333333 : 1"
       inkscape:vp_z="1 : 0.5 : 1"
       inkscape:vp_y="0 : 1000 : 0"
       inkscape:vp_x="0 : 0.5 : 1"
       sodipodi:type="inkscape:persp3d" /><inkscape:perspective
       id="perspective3012"
       inkscape:persp3d-origin="0.5 : 0.33333333 : 1"
       inkscape:vp_z="1 : 0.5 : 1"
       inkscape:vp_y="0 : 1000 : 0"
       inkscape:vp_x="0 : 0.5 : 1"
       sodipodi:type="inkscape:persp3d" /><inkscape:perspective
       id="perspective3028"
       inkscape:persp3d-origin="0.5 : 0.33333333 : 1"
       inkscape:vp_z="1 : 0.5 : 1"
       inkscape:vp_y="0 : 1000 : 0"
       inkscape:vp_x="0 : 0.5 : 1"
       sodipodi:type="inkscape:persp3d" /></defs><sodipodi:namedview
     pagecolor="#ffffff"
     bordercolor="#666666"
     borderopacity="1"
     objecttolerance="10"
     gridtolerance="10"
     guidetolerance="10"
     inkscape:pageopacity="0"
     inkscape:pageshadow="2"
     inkscape:window-width="1908"
     inkscape:window-height="1005"
     id="namedview4"
     showgrid="false"
     inkscape:zoom="1.2339869"
     inkscape:cx="602.63239"
     inkscape:cy="381.71352"
     inkscape:window-x="0"
     inkscape:window-y="24"
     inkscape:window-maximized="1"
     inkscape:current-layer="g12" /><g
     id="g12"
     inkscape:groupmode="layer"
     inkscape:label="ink_ext_XXXXXX"
     transform="matrix(0,1.25,1.25,0,0,0)"><path
       style="fill:#ffff00;stroke:#000000;stroke-width:1px;stroke-linecap:butt;stroke-linejoin:miter;stroke-opacity:1;fill-opacity:1"
       d="m 913.6902,363.02215 -43.54999,8.02237 -43.54998,9.74144 -43.8365,11.17401 -42.97697,10.8875 -43.54998,14.32566 -43.76849,17.39387 -43.86189,24.10885 -9.31939,5.67266 -4.76099,4.45711 -2.93763,3.03892 -2.63374,3.84931 -1.92465,5.06488 0.30389,107.57813 326.38109,-0.10129 -0.0148,-225.21342 2e-5,0 z"
       id="path3133"
       transform="matrix(0,0.8,0.8,0,0,0)"
       sodipodi:nodetypes="ccccccccccccccccc" /><path
       style="fill:#55f0ff;stroke:#000000;stroke-width:1px;stroke-linecap:butt;stroke-linejoin:miter;stroke-opacity:1;fill-opacity:1"
       d="m 260.44039,187.10312 43.8365,33.23552 43.54998,36.38716 43.54999,36.67368 43.54999,38.10624 43.54999,36.67367 43.26347,40.97137 43.8365,40.11183 11.41435,11.09606 6.97761,10.32043 3.16604,9.94702 0.217,107.59533 -326.91142,0 0,-401.11831 z"
       id="path3131"
       transform="matrix(0,0.8,0.8,0,0,0)"
       sodipodi:nodetypes="cccccccccccccc" /><path
       id="path16"
       style="fill:none;stroke:#000000;stroke-width:1;stroke-linecap:butt;stroke-linejoin:miter;stroke-miterlimit:10;stroke-opacity:1;stroke-dasharray:none"
       d="m 470.8,208.6 0,6.3 m 0,516.1 0,-6.3" /><g
       id="g18"><text
         id="text20"
         transform="matrix(0,1,1,0,479.47,160.5)"><tspan
           id="tspan22"
           sodipodi:role="line"
           y="0"
           x="0 13 19.5"
           style="font-size:26px;font-variant:normal;font-weight:normal;writing-mode:lr-tb;fill:#000000;fill-opacity:1;fill-rule:nonzero;stroke:none;font-family:Times New Roman;-inkscape-font-specification:Times-Roman">0.5</tspan></text>
</g><path
       id="path24"
       style="fill:none;stroke:#000000;stroke-width:1;stroke-linecap:butt;stroke-linejoin:miter;stroke-miterlimit:10;stroke-opacity:1;stroke-dasharray:none"
       d="m 407.3,208.6 0,6.3 m 0,516.1 0,-6.3" /><g
       id="g26"><text
         id="text28"
         transform="matrix(0,1,1,0,415.97,180)"><tspan
           id="tspan30"
           y="0"
           x="0"
           style="font-size:26px;font-variant:normal;font-weight:normal;writing-mode:lr-tb;fill:#000000;fill-opacity:1;fill-rule:nonzero;stroke:none;font-family:Times New Roman;-inkscape-font-specification:Times-Roman">1</tspan></text>
</g><path
       id="path32"
       style="fill:none;stroke:#000000;stroke-width:1;stroke-linecap:butt;stroke-linejoin:miter;stroke-miterlimit:10;stroke-opacity:1;stroke-dasharray:none"
       d="m 343.8,208.6 0,6.3 m 0,516.1 0,-6.3" /><g
       id="g34"><text
         id="text36"
         transform="matrix(0,1,1,0,352.47,160.5)"><tspan
           id="tspan38"
           sodipodi:role="line"
           y="0"
           x="0 13 19.5"
           style="font-size:26px;font-variant:normal;font-weight:normal;writing-mode:lr-tb;fill:#000000;fill-opacity:1;fill-rule:nonzero;stroke:none;font-family:Times New Roman;-inkscape-font-specification:Times-Roman">1.5</tspan></text>
</g><path
       id="path40"
       style="fill:none;stroke:#000000;stroke-width:1;stroke-linecap:butt;stroke-linejoin:miter;stroke-miterlimit:10;stroke-opacity:1;stroke-dasharray:none"
       d="m 280.4,208.6 0,6.3 m 0,516.1 0,-6.3" /><g
       id="g42"><text
         id="text44"
         transform="matrix(0,1,1,0,289.07,180)"><tspan
           id="tspan46"
           y="0"
           x="0"
           style="font-size:26px;font-variant:normal;font-weight:normal;writing-mode:lr-tb;fill:#000000;fill-opacity:1;fill-rule:nonzero;stroke:none;font-family:Times New Roman;-inkscape-font-specification:Times-Roman">2</tspan></text>
</g><path
       id="path48"
       style="fill:none;stroke:#000000;stroke-width:1;stroke-linecap:butt;stroke-linejoin:miter;stroke-miterlimit:10;stroke-opacity:1;stroke-dasharray:none"
       d="m 216.9,208.6 0,6.3 m 0,516.1 0,-6.3" /><g
       id="g50"><text
         id="text52"
         transform="matrix(0,1,1,0,225.57,160.5)"><tspan
           id="tspan54"
           sodipodi:role="line"
           y="0"
           x="0 13 19.5"
           style="font-size:26px;font-variant:normal;font-weight:normal;writing-mode:lr-tb;fill:#000000;fill-opacity:1;fill-rule:nonzero;stroke:none;font-family:Times New Roman;-inkscape-font-specification:Times-Roman">2.5</tspan></text>
</g><path
       id="path56"
       style="fill:none;stroke:#000000;stroke-width:1;stroke-linecap:butt;stroke-linejoin:miter;stroke-miterlimit:10;stroke-opacity:1;stroke-dasharray:none"
       d="m 153.4,208.6 0,6.3 m 0,516.1 0,-6.3" /><g
       id="g58"><text
         id="text60"
         transform="matrix(0,1,1,0,162.07,180)"><tspan
           id="tspan62"
           y="0"
           x="0"
           style="font-size:26px;font-variant:normal;font-weight:normal;writing-mode:lr-tb;fill:#000000;fill-opacity:1;fill-rule:nonzero;stroke:none;font-family:Times New Roman;-inkscape-font-specification:Times-Roman">3</tspan></text>
</g><path
       id="path64"
       style="fill:none;stroke:#000000;stroke-width:1;stroke-linecap:butt;stroke-linejoin:miter;stroke-miterlimit:10;stroke-opacity:1;stroke-dasharray:none"
       d="m 470.8,208.6 -6.3,0 m -336.5,0 6.3,0" /><g
       id="g66"><text
         id="text68"
         transform="matrix(0,1,1,0,505.47,195.6)"><tspan
           id="tspan70"
           sodipodi:role="line"
           y="0"
           x="0 13 19.5"
           style="font-size:26px;font-variant:normal;font-weight:normal;writing-mode:lr-tb;fill:#000000;fill-opacity:1;fill-rule:nonzero;stroke:none;font-family:Times New Roman;-inkscape-font-specification:Times-Roman">0.1</tspan></text>
</g><path
       id="path72"
       style="fill:none;stroke:#000000;stroke-width:1;stroke-linecap:butt;stroke-linejoin:miter;stroke-miterlimit:10;stroke-opacity:1;stroke-dasharray:none"
       d="m 470.8,295.7 -6.3,0 m -336.5,0 6.3,0" /><g
       id="g74"><text
         id="text76"
         transform="matrix(0,1,1,0,505.47,276.2)"><tspan
           id="tspan78"
           sodipodi:role="line"
           y="0"
           x="0 13 19.5 32.5"
           style="font-size:26px;font-variant:normal;font-weight:normal;writing-mode:lr-tb;fill:#000000;fill-opacity:1;fill-rule:nonzero;stroke:none;font-family:Times New Roman;-inkscape-font-specification:Times-Roman">0.15</tspan></text>
</g><path
       id="path80"
       style="fill:none;stroke:#000000;stroke-width:1;stroke-linecap:butt;stroke-linejoin:miter;stroke-miterlimit:10;stroke-opacity:1;stroke-dasharray:none"
       d="m 470.8,382.7 -6.3,0 m -336.5,0 6.3,0" /><g
       id="g82"><text
         id="text84"
         transform="matrix(0,1,1,0,505.47,369.7)"><tspan
           id="tspan86"
           sodipodi:role="line"
           y="0"
           x="0 13 19.5"
           style="font-size:26px;font-variant:normal;font-weight:normal;writing-mode:lr-tb;fill:#000000;fill-opacity:1;fill-rule:nonzero;stroke:none;font-family:Times New Roman;-inkscape-font-specification:Times-Roman">0.2</tspan></text>
</g><path
       id="path88"
       style="fill:none;stroke:#000000;stroke-width:1;stroke-linecap:butt;stroke-linejoin:miter;stroke-miterlimit:10;stroke-opacity:1;stroke-dasharray:none"
       d="m 470.8,469.8 -6.3,0 m -336.5,0 6.3,0" /><g
       id="g90"><text
         id="text92"
         transform="matrix(0,1,1,0,505.47,450.3)"><tspan
           id="tspan94"
           sodipodi:role="line"
           y="0"
           x="0 13 19.5 32.5"
           style="font-size:26px;font-variant:normal;font-weight:normal;writing-mode:lr-tb;fill:#000000;fill-opacity:1;fill-rule:nonzero;stroke:none;font-family:Times New Roman;-inkscape-font-specification:Times-Roman">0.25</tspan></text>
</g><path
       id="path96"
       style="fill:none;stroke:#000000;stroke-width:1;stroke-linecap:butt;stroke-linejoin:miter;stroke-miterlimit:10;stroke-opacity:1;stroke-dasharray:none"
       d="m 470.8,556.9 -6.3,0 m -336.5,0 6.3,0" /><g
       id="g98"><text
         id="text100"
         transform="matrix(0,1,1,0,505.47,543.9)"><tspan
           id="tspan102"
           sodipodi:role="line"
           y="0"
           x="0 13 19.5"
           style="font-size:26px;font-variant:normal;font-weight:normal;writing-mode:lr-tb;fill:#000000;fill-opacity:1;fill-rule:nonzero;stroke:none;font-family:Times New Roman;-inkscape-font-specification:Times-Roman">0.3</tspan></text>
</g><path
       id="path104"
       style="fill:none;stroke:#000000;stroke-width:1;stroke-linecap:butt;stroke-linejoin:miter;stroke-miterlimit:10;stroke-opacity:1;stroke-dasharray:none"
       d="m 470.8,643.9 -6.3,0 m -336.5,0 6.3,0" /><g
       id="g106"><text
         id="text108"
         transform="matrix(0,1,1,0,505.47,624.4)"><tspan
           id="tspan110"
           sodipodi:role="line"
           y="0"
           x="0 13 19.5 32.5"
           style="font-size:26px;font-variant:normal;font-weight:normal;writing-mode:lr-tb;fill:#000000;fill-opacity:1;fill-rule:nonzero;stroke:none;font-family:Times New Roman;-inkscape-font-specification:Times-Roman">0.35</tspan></text>
</g><path
       id="path112"
       style="fill:none;stroke:#000000;stroke-width:1;stroke-linecap:butt;stroke-linejoin:miter;stroke-miterlimit:10;stroke-opacity:1;stroke-dasharray:none"
       d="m 470.8,731 -6.3,0 m -336.5,0 6.3,0" /><g
       id="g114"><text
         id="text116"
         transform="matrix(0,1,1,0,505.47,718)"><tspan
           id="tspan118"
           sodipodi:role="line"
           y="0"
           x="0 13 19.5"
           style="font-size:26px;font-variant:normal;font-weight:normal;writing-mode:lr-tb;fill:#000000;fill-opacity:1;fill-rule:nonzero;stroke:none;font-family:Times New Roman;-inkscape-font-specification:Times-Roman">0.4</tspan></text>
</g><path
       id="path120"
       style="fill:none;stroke:#000000;stroke-width:1;stroke-linecap:butt;stroke-linejoin:miter;stroke-miterlimit:10;stroke-opacity:1;stroke-dasharray:none"
       d="m 128,208.6 342.8,0 0,522.4 -342.8,0 0,-522.4 z" /><path
       id="path134"
       style="fill:#000000;fill-opacity:1;fill-rule:nonzero;stroke:none"
       d="m 149.6,211.75 c -1.739,0 -3.15,-1.411 -3.15,-3.15 0,-1.739 1.411,-3.15 3.15,-3.15 1.739,0 3.15,1.411 3.15,3.15 0,1.739 -1.411,3.15 -3.15,3.15" /><path
       id="path136"
       style="fill:#000000;fill-opacity:1;fill-rule:nonzero;stroke:none"
       d="m 176.2,246.55 c -1.739,0 -3.15,-1.411 -3.15,-3.15 0,-1.739 1.411,-3.15 3.15,-3.15 1.739,0 3.15,1.411 3.15,3.15 0,1.739 -1.411,3.15 -3.15,3.15" /><path
       id="path138"
       style="fill:#000000;fill-opacity:1;fill-rule:nonzero;stroke:none"
       d="m 205.4,281.45 c -1.739,0 -3.15,-1.411 -3.15,-3.15 0,-1.739 1.411,-3.15 3.15,-3.15 1.739,0 3.15,1.411 3.15,3.15 0,1.739 -1.411,3.15 -3.15,3.15" /><path
       id="path140"
       style="fill:#000000;fill-opacity:1;fill-rule:nonzero;stroke:none"
       d="m 234.6,316.25 c -1.739,0 -3.15,-1.411 -3.15,-3.15 0,-1.739 1.411,-3.15 3.15,-3.15 1.739,0 3.15,1.411 3.15,3.15 0,1.739 -1.411,3.15 -3.15,3.15" /><path
       id="path142"
       style="fill:#000000;fill-opacity:1;fill-rule:nonzero;stroke:none"
       d="m 265.1,351.05 c -1.739,0 -3.15,-1.411 -3.15,-3.15 0,-1.739 1.411,-3.15 3.15,-3.15 1.739,0 3.15,1.411 3.15,3.15 0,1.739 -1.411,3.15 -3.15,3.15" /><path
       id="path144"
       style="fill:#000000;fill-opacity:1;fill-rule:nonzero;stroke:none"
       d="m 294.3,385.85 c -1.739,0 -3.15,-1.411 -3.15,-3.15 0,-1.739 1.411,-3.15 3.15,-3.15 1.739,0 3.15,1.411 3.15,3.15 0,1.739 -1.411,3.15 -3.15,3.15" /><path
       id="path146"
       style="fill:#000000;fill-opacity:1;fill-rule:nonzero;stroke:none"
       d="m 327.3,420.75 c -1.739,0 -3.15,-1.411 -3.15,-3.15 0,-1.739 1.411,-3.15 3.15,-3.15 1.739,0 3.15,1.411 3.15,3.15 0,1.739 -1.411,3.15 -3.15,3.15" /><path
       id="path148"
       style="fill:#000000;fill-opacity:1;fill-rule:nonzero;stroke:none"
       d="m 359.1,455.55 c -1.739,0 -3.15,-1.411 -3.15,-3.15 0,-1.739 1.411,-3.15 3.15,-3.15 1.739,0 3.15,1.411 3.15,3.15 0,1.739 -1.411,3.15 -3.15,3.15" /><path
       id="path150"
       style="fill:#000000;fill-opacity:1;fill-rule:nonzero;stroke:none"
       d="m 366.7,490.35 c -1.739,0 -3.15,-1.411 -3.15,-3.15 0,-1.739 1.411,-3.15 3.15,-3.15 1.739,0 3.15,1.411 3.15,3.15 0,1.739 -1.411,3.15 -3.15,3.15" /><path
       id="path152"
       style="fill:#000000;fill-opacity:1;fill-rule:nonzero;stroke:none"
       d="m 347.6,525.15 c -1.739,0 -3.15,-1.411 -3.15,-3.15 0,-1.739 1.411,-3.15 3.15,-3.15 1.739,0 3.15,1.411 3.15,3.15 0,1.739 -1.411,3.15 -3.15,3.15" /><path
       id="path154"
       style="fill:#000000;fill-opacity:1;fill-rule:nonzero;stroke:none"
       d="m 333.7,560.05 c -1.739,0 -3.15,-1.411 -3.15,-3.15 0,-1.739 1.411,-3.15 3.15,-3.15 1.739,0 3.15,1.411 3.15,3.15 0,1.739 -1.411,3.15 -3.15,3.15" /><path
       id="path156"
       style="fill:#000000;fill-opacity:1;fill-rule:nonzero;stroke:none"
       d="m 322.3,594.85 c -1.739,0 -3.15,-1.411 -3.15,-3.15 0,-1.739 1.411,-3.15 3.15,-3.15 1.739,0 3.15,1.411 3.15,3.15 0,1.739 -1.411,3.15 -3.15,3.15" /><path
       id="path158"
       style="fill:#000000;fill-opacity:1;fill-rule:nonzero;stroke:none"
       d="m 313.4,629.65 c -1.739,0 -3.15,-1.411 -3.15,-3.15 0,-1.739 1.411,-3.15 3.15,-3.15 1.739,0 3.15,1.411 3.15,3.15 0,1.739 -1.411,3.15 -3.15,3.15" /><path
       id="path160"
       style="fill:#000000;fill-opacity:1;fill-rule:nonzero;stroke:none"
       d="m 304.5,664.45 c -1.739,0 -3.15,-1.411 -3.15,-3.15 0,-1.739 1.411,-3.15 3.15,-3.15 1.739,0 3.15,1.411 3.15,3.15 0,1.739 -1.411,3.15 -3.15,3.15" /><path
       id="path162"
       style="fill:#000000;fill-opacity:1;fill-rule:nonzero;stroke:none"
       d="m 296.9,699.35 c -1.739,0 -3.15,-1.411 -3.15,-3.15 0,-1.739 1.411,-3.15 3.15,-3.15 1.739,0 3.15,1.411 3.15,3.15 0,1.739 -1.411,3.15 -3.15,3.15" /><path
       id="path164"
       style="fill:#000000;fill-opacity:1;fill-rule:nonzero;stroke:none"
       d="m 290.5,734.15 c -1.739,0 -3.15,-1.411 -3.15,-3.15 0,-1.739 1.411,-3.15 3.15,-3.15 1.739,0 3.15,1.411 3.15,3.15 0,1.739 -1.411,3.15 -3.15,3.15" /><path
       id="path166"
       style="fill:none;stroke:#000000;stroke-width:1;stroke-linecap:butt;stroke-linejoin:miter;stroke-miterlimit:10;stroke-opacity:1;stroke-dasharray:none"
       d="m 128,208.6 342.8,0 0,522.4 -342.8,0 0,-522.4 z" /><flowRoot
       xml:space="preserve"
       id="flowRoot3165-3"
       style="font-size:40px;font-style:normal;font-weight:normal;fill:#000000;fill-opacity:1;stroke:none;font-family:Bitstream Vera Sans"
       transform="matrix(0,0.8,0.8,0,-262.47547,-543.10176)"><flowRegion
         id="flowRegion3167-5"><rect
           id="rect3169-9"
           width="33.370361"
           height="48.201603"
           x="846.86523"
           y="490.92792" /></flowRegion><flowPara
         id="flowPara3171-4"
         style="font-style:italic;font-variant:normal;font-weight:normal;font-stretch:normal;font-family:Times New Roman;-inkscape-font-specification:'Times New Roman, Italic'">T</flowPara></flowRoot><flowRoot
       xml:space="preserve"
       id="flowRoot3165-3-4"
       style="font-size:40px;font-style:normal;font-weight:normal;fill:#000000;fill-opacity:1;stroke:none;font-family:Bitstream Vera Sans"
       transform="matrix(0,0.8,0.8,0,-248.18237,-526.82944)"><flowRegion
         id="flowRegion3167-5-8"><rect
           id="rect3169-9-7"
           width="33.370361"
           height="48.201603"
           x="846.86523"
           y="490.92792" /></flowRegion><flowPara
         id="flowPara3171-4-2"
         style="font-size:28px;font-style:italic;font-variant:normal;font-weight:normal;font-stretch:normal;font-family:Times New Roman;-inkscape-font-specification:'Times New Roman, Italic'">c</flowPara></flowRoot><flowRoot
       xml:space="preserve"
       id="flowRoot3165-9"
       style="font-size:40px;font-style:normal;font-weight:normal;fill:#000000;fill-opacity:1;stroke:none;font-family:Bitstream Vera Sans"
       transform="matrix(0,0.8,0.8,0,102.45861,34.002729)"><flowRegion
         id="flowRegion3167-84"><rect
           id="rect3169-8"
           width="60.066639"
           height="60.808174"
           x="846.86523"
           y="490.92792" /></flowRegion><flowPara
         id="flowPara3171-1"
         style="font-size:56px;font-style:normal;font-variant:normal;font-weight:normal;font-stretch:normal;font-family:Times New Roman;-inkscape-font-specification:'Times New Roman,'">η</flowPara></flowRoot><flowRoot
       xml:space="preserve"
       id="flowRoot3849"
       style="font-size:40px;font-style:normal;font-weight:normal;fill:#000000;fill-opacity:1;stroke:none;font-family:Bitstream Vera Sans"
       transform="matrix(0,0.8,0.8,0,23.243859,-37.02654)"><flowRegion
         id="flowRegion3851"><rect
           id="rect3853"
           width="108.87497"
           height="80.796684"
           x="443.52225"
           y="441.81326" /></flowRegion><flowPara
         id="flowPara3855"
         style="font-style:normal;font-variant:normal;font-weight:normal;font-stretch:normal;font-family:Times New Roman;-inkscape-font-specification:'Times New Roman,'">(1)</flowPara></flowRoot><flowRoot
       transform="matrix(0,0.8,0.8,0,23.24386,239.91174)"
       xml:space="preserve"
       id="flowRoot3849-2"
       style="font-size:40px;font-style:normal;font-weight:normal;fill:#000000;fill-opacity:1;stroke:none;font-family:Bitstream Vera Sans"><flowRegion
         id="flowRegion3851-4"><rect
           id="rect3853-2"
           width="108.87497"
           height="80.796684"
           x="443.52225"
           y="441.81326" /></flowRegion><flowPara
         id="flowPara3855-7"
         style="font-style:normal;font-variant:normal;font-weight:normal;font-stretch:normal;font-family:Times New Roman;-inkscape-font-specification:'Times New Roman,'">(2)</flowPara></flowRoot><flowRoot
       transform="matrix(0,0.8,0.8,0,-160.22648,111.17738)"
       xml:space="preserve"
       id="flowRoot3849-22"
       style="font-size:40px;font-style:normal;font-weight:normal;fill:#000000;fill-opacity:1;stroke:none;font-family:Bitstream Vera Sans"><flowRegion
         id="flowRegion3851-2"><rect
           id="rect3853-7"
           width="108.87497"
           height="80.796684"
           x="443.52225"
           y="441.81326" /></flowRegion><flowPara
         id="flowPara3855-3"
         style="font-style:normal;font-variant:normal;font-weight:normal;font-stretch:normal;font-family:Times New Roman;-inkscape-font-specification:'Times New Roman,'">(P)</flowPara></flowRoot></g></svg>